<?xml version="1.0" encoding="utf-8"?>
<svg version="1.1" xmlns:xlink="http://www.w3.org/1999/xlink" width="376px" height="488px" xmlns="http://www.w3.org/2000/svg">
  <defs>
    <filter x="1385px" y="347px" width="376px" height="488px" filterUnits="userSpaceOnUse" id="filter147">
      <feOffset dx="5" dy="5" in="SourceAlpha" result="shadowOffsetInner" />
      <feGaussianBlur stdDeviation="2.5" in="shadowOffsetInner" result="shadowGaussian" />
      <feComposite in2="shadowGaussian" operator="atop" in="SourceAlpha" result="shadowComposite" />
      <feColorMatrix type="matrix" values="0 0 0 0 0  0 0 0 0 0  0 0 0 0 0  0 0 0 0.156862745098039 0  " in="shadowComposite" />
    </filter>
    <g id="widget148">
      <path d="M 1386 351  A 3 3 0 0 1 1389 348 L 1747 348  A 3 3 0 0 1 1750 351 L 1750 821  A 3 3 0 0 1 1747 824 L 1389 824  A 3 3 0 0 1 1386 821 L 1386 351  Z " fill-rule="nonzero" fill="#ffffff" stroke="none" />
      <path d="M 1385.5 351  A 3.5 3.5 0 0 1 1389 347.5 L 1747 347.5  A 3.5 3.5 0 0 1 1750.5 351 L 1750.5 821  A 3.5 3.5 0 0 1 1747 824.5 L 1389 824.5  A 3.5 3.5 0 0 1 1385.5 821 L 1385.5 351  Z " stroke-width="1" stroke="#797979" fill="none" stroke-opacity="0.196078431372549" />
    </g>
  </defs>
  <g transform="matrix(1 0 0 1 -1385 -347 )">
    <use xlink:href="#widget148" filter="url(#filter147)" />
    <use xlink:href="#widget148" />
  </g>
</svg>