<?xml version="1.0" encoding="utf-8"?>
<svg version="1.1" xmlns:xlink="http://www.w3.org/1999/xlink" width="252px" height="133px" xmlns="http://www.w3.org/2000/svg">
  <defs>
    <filter x="1408px" y="796px" width="252px" height="133px" filterUnits="userSpaceOnUse" id="filter153">
      <feOffset dx="5" dy="5" in="SourceAlpha" result="shadowOffsetInner" />
      <feGaussianBlur stdDeviation="2.5" in="shadowOffsetInner" result="shadowGaussian" />
      <feComposite in2="shadowGaussian" operator="atop" in="SourceAlpha" result="shadowComposite" />
      <feColorMatrix type="matrix" values="0 0 0 0 0  0 0 0 0 0  0 0 0 0 0  0 0 0 0.156862745098039 0  " in="shadowComposite" />
    </filter>
    <g id="widget154">
      <path d="M 1409 800  A 3 3 0 0 1 1412 797 L 1646 797  A 3 3 0 0 1 1649 800 L 1649 915  A 3 3 0 0 1 1646 918 L 1412 918  A 3 3 0 0 1 1409 915 L 1409 800  Z " fill-rule="nonzero" fill="#ffffff" stroke="none" />
      <path d="M 1408.5 800  A 3.5 3.5 0 0 1 1412 796.5 L 1646 796.5  A 3.5 3.5 0 0 1 1649.5 800 L 1649.5 915  A 3.5 3.5 0 0 1 1646 918.5 L 1412 918.5  A 3.5 3.5 0 0 1 1408.5 915 L 1408.5 800  Z " stroke-width="1" stroke="#797979" fill="none" stroke-opacity="0.196078431372549" />
    </g>
  </defs>
  <g transform="matrix(1 0 0 1 -1408 -796 )">
    <use xlink:href="#widget154" filter="url(#filter153)" />
    <use xlink:href="#widget154" />
  </g>
</svg>