<?xml version="1.0" encoding="utf-8"?>
<svg version="1.1" xmlns:xlink="http://www.w3.org/1999/xlink" width="340px" height="334px" xmlns="http://www.w3.org/2000/svg">
  <defs>
    <filter x="1457px" y="565px" width="340px" height="334px" filterUnits="userSpaceOnUse" id="filter249">
      <feOffset dx="5" dy="5" in="SourceAlpha" result="shadowOffsetInner" />
      <feGaussianBlur stdDeviation="2.5" in="shadowOffsetInner" result="shadowGaussian" />
      <feComposite in2="shadowGaussian" operator="atop" in="SourceAlpha" result="shadowComposite" />
      <feColorMatrix type="matrix" values="0 0 0 0 0  0 0 0 0 0  0 0 0 0 0  0 0 0 0.156862745098039 0  " in="shadowComposite" />
    </filter>
    <g id="widget250">
      <path d="M 1458 569  A 3 3 0 0 1 1461 566 L 1783 566  A 3 3 0 0 1 1786 569 L 1786 885  A 3 3 0 0 1 1783 888 L 1461 888  A 3 3 0 0 1 1458 885 L 1458 569  Z " fill-rule="nonzero" fill="#ffffff" stroke="none" />
      <path d="M 1457.5 569  A 3.5 3.5 0 0 1 1461 565.5 L 1783 565.5  A 3.5 3.5 0 0 1 1786.5 569 L 1786.5 885  A 3.5 3.5 0 0 1 1783 888.5 L 1461 888.5  A 3.5 3.5 0 0 1 1457.5 885 L 1457.5 569  Z " stroke-width="1" stroke="#797979" fill="none" stroke-opacity="0.196078431372549" />
    </g>
  </defs>
  <g transform="matrix(1 0 0 1 -1457 -565 )">
    <use xlink:href="#widget250" filter="url(#filter249)" />
    <use xlink:href="#widget250" />
  </g>
</svg>