<?xml version="1.0" encoding="utf-8"?>
<svg version="1.1" xmlns:xlink="http://www.w3.org/1999/xlink" width="196px" height="133px" xmlns="http://www.w3.org/2000/svg">
  <defs>
    <filter x="1495px" y="24px" width="196px" height="133px" filterUnits="userSpaceOnUse" id="filter177">
      <feOffset dx="5" dy="5" in="SourceAlpha" result="shadowOffsetInner" />
      <feGaussianBlur stdDeviation="2.5" in="shadowOffsetInner" result="shadowGaussian" />
      <feComposite in2="shadowGaussian" operator="atop" in="SourceAlpha" result="shadowComposite" />
      <feColorMatrix type="matrix" values="0 0 0 0 0  0 0 0 0 0  0 0 0 0 0  0 0 0 0.156862745098039 0  " in="shadowComposite" />
    </filter>
    <g id="widget178">
      <path d="M 1496 28  A 3 3 0 0 1 1499 25 L 1677 25  A 3 3 0 0 1 1680 28 L 1680 143  A 3 3 0 0 1 1677 146 L 1499 146  A 3 3 0 0 1 1496 143 L 1496 28  Z " fill-rule="nonzero" fill="#ffffff" stroke="none" />
      <path d="M 1495.5 28  A 3.5 3.5 0 0 1 1499 24.5 L 1677 24.5  A 3.5 3.5 0 0 1 1680.5 28 L 1680.5 143  A 3.5 3.5 0 0 1 1677 146.5 L 1499 146.5  A 3.5 3.5 0 0 1 1495.5 143 L 1495.5 28  Z " stroke-width="1" stroke="#797979" fill="none" stroke-opacity="0.196078431372549" />
    </g>
  </defs>
  <g transform="matrix(1 0 0 1 -1495 -24 )">
    <use xlink:href="#widget178" filter="url(#filter177)" />
    <use xlink:href="#widget178" />
  </g>
</svg>