<?xml version="1.0" encoding="utf-8"?>
<svg version="1.1" xmlns:xlink="http://www.w3.org/1999/xlink" width="196px" height="71px" xmlns="http://www.w3.org/2000/svg">
  <defs>
    <filter x="54px" y="185px" width="196px" height="71px" filterUnits="userSpaceOnUse" id="filter195">
      <feOffset dx="5" dy="5" in="SourceAlpha" result="shadowOffsetInner" />
      <feGaussianBlur stdDeviation="2.5" in="shadowOffsetInner" result="shadowGaussian" />
      <feComposite in2="shadowGaussian" operator="atop" in="SourceAlpha" result="shadowComposite" />
      <feColorMatrix type="matrix" values="0 0 0 0 0  0 0 0 0 0  0 0 0 0 0  0 0 0 0.156862745098039 0  " in="shadowComposite" />
    </filter>
    <g id="widget196">
      <path d="M 55 189  A 3 3 0 0 1 58 186 L 236 186  A 3 3 0 0 1 239 189 L 239 242  A 3 3 0 0 1 236 245 L 58 245  A 3 3 0 0 1 55 242 L 55 189  Z " fill-rule="nonzero" fill="#ffffff" stroke="none" />
      <path d="M 54.5 189  A 3.5 3.5 0 0 1 58 185.5 L 236 185.5  A 3.5 3.5 0 0 1 239.5 189 L 239.5 242  A 3.5 3.5 0 0 1 236 245.5 L 58 245.5  A 3.5 3.5 0 0 1 54.5 242 L 54.5 189  Z " stroke-width="1" stroke="#797979" fill="none" stroke-opacity="0.196078431372549" />
    </g>
  </defs>
  <g transform="matrix(1 0 0 1 -54 -185 )">
    <use xlink:href="#widget196" filter="url(#filter195)" />
    <use xlink:href="#widget196" />
  </g>
</svg>