<?xml version="1.0" encoding="utf-8"?>
<svg version="1.1" xmlns:xlink="http://www.w3.org/1999/xlink" width="196px" height="113px" xmlns="http://www.w3.org/2000/svg">
  <defs>
    <filter x="155px" y="446px" width="196px" height="113px" filterUnits="userSpaceOnUse" id="filter171">
      <feOffset dx="5" dy="5" in="SourceAlpha" result="shadowOffsetInner" />
      <feGaussianBlur stdDeviation="2.5" in="shadowOffsetInner" result="shadowGaussian" />
      <feComposite in2="shadowGaussian" operator="atop" in="SourceAlpha" result="shadowComposite" />
      <feColorMatrix type="matrix" values="0 0 0 0 0  0 0 0 0 0  0 0 0 0 0  0 0 0 0.156862745098039 0  " in="shadowComposite" />
    </filter>
    <g id="widget172">
      <path d="M 156 450  A 3 3 0 0 1 159 447 L 337 447  A 3 3 0 0 1 340 450 L 340 545  A 3 3 0 0 1 337 548 L 159 548  A 3 3 0 0 1 156 545 L 156 450  Z " fill-rule="nonzero" fill="#ffffff" stroke="none" />
      <path d="M 155.5 450  A 3.5 3.5 0 0 1 159 446.5 L 337 446.5  A 3.5 3.5 0 0 1 340.5 450 L 340.5 545  A 3.5 3.5 0 0 1 337 548.5 L 159 548.5  A 3.5 3.5 0 0 1 155.5 545 L 155.5 450  Z " stroke-width="1" stroke="#797979" fill="none" stroke-opacity="0.196078431372549" />
    </g>
  </defs>
  <g transform="matrix(1 0 0 1 -155 -446 )">
    <use xlink:href="#widget172" filter="url(#filter171)" />
    <use xlink:href="#widget172" />
  </g>
</svg>