<?xml version="1.0" encoding="utf-8"?>
<svg version="1.1" xmlns:xlink="http://www.w3.org/1999/xlink" width="196px" height="94px" xmlns="http://www.w3.org/2000/svg">
  <defs>
    <filter x="490px" y="119px" width="196px" height="94px" filterUnits="userSpaceOnUse" id="filter159">
      <feOffset dx="5" dy="5" in="SourceAlpha" result="shadowOffsetInner" />
      <feGaussianBlur stdDeviation="2.5" in="shadowOffsetInner" result="shadowGaussian" />
      <feComposite in2="shadowGaussian" operator="atop" in="SourceAlpha" result="shadowComposite" />
      <feColorMatrix type="matrix" values="0 0 0 0 0  0 0 0 0 0  0 0 0 0 0  0 0 0 0.156862745098039 0  " in="shadowComposite" />
    </filter>
    <g id="widget160">
      <path d="M 491 123  A 3 3 0 0 1 494 120 L 672 120  A 3 3 0 0 1 675 123 L 675 199  A 3 3 0 0 1 672 202 L 494 202  A 3 3 0 0 1 491 199 L 491 123  Z " fill-rule="nonzero" fill="#ffffff" stroke="none" />
      <path d="M 490.5 123  A 3.5 3.5 0 0 1 494 119.5 L 672 119.5  A 3.5 3.5 0 0 1 675.5 123 L 675.5 199  A 3.5 3.5 0 0 1 672 202.5 L 494 202.5  A 3.5 3.5 0 0 1 490.5 199 L 490.5 123  Z " stroke-width="1" stroke="#797979" fill="none" stroke-opacity="0.196078431372549" />
    </g>
  </defs>
  <g transform="matrix(1 0 0 1 -490 -119 )">
    <use xlink:href="#widget160" filter="url(#filter159)" />
    <use xlink:href="#widget160" />
  </g>
</svg>