<?xml version="1.0" encoding="utf-8"?>
<svg version="1.1" xmlns:xlink="http://www.w3.org/1999/xlink" width="196px" height="75px" xmlns="http://www.w3.org/2000/svg">
  <defs>
    <filter x="1379px" y="833px" width="196px" height="75px" filterUnits="userSpaceOnUse" id="filter187">
      <feOffset dx="5" dy="5" in="SourceAlpha" result="shadowOffsetInner" />
      <feGaussianBlur stdDeviation="2.5" in="shadowOffsetInner" result="shadowGaussian" />
      <feComposite in2="shadowGaussian" operator="atop" in="SourceAlpha" result="shadowComposite" />
      <feColorMatrix type="matrix" values="0 0 0 0 0  0 0 0 0 0  0 0 0 0 0  0 0 0 0.156862745098039 0  " in="shadowComposite" />
    </filter>
    <g id="widget188">
      <path d="M 1380 837  A 3 3 0 0 1 1383 834 L 1561 834  A 3 3 0 0 1 1564 837 L 1564 894  A 3 3 0 0 1 1561 897 L 1383 897  A 3 3 0 0 1 1380 894 L 1380 837  Z " fill-rule="nonzero" fill="#ffffff" stroke="none" />
      <path d="M 1379.5 837  A 3.5 3.5 0 0 1 1383 833.5 L 1561 833.5  A 3.5 3.5 0 0 1 1564.5 837 L 1564.5 894  A 3.5 3.5 0 0 1 1561 897.5 L 1383 897.5  A 3.5 3.5 0 0 1 1379.5 894 L 1379.5 837  Z " stroke-width="1" stroke="#797979" fill="none" stroke-opacity="0.196078431372549" />
    </g>
  </defs>
  <g transform="matrix(1 0 0 1 -1379 -833 )">
    <use xlink:href="#widget188" filter="url(#filter187)" />
    <use xlink:href="#widget188" />
  </g>
</svg>