<?xml version="1.0" encoding="utf-8"?>
<svg version="1.1" xmlns:xlink="http://www.w3.org/1999/xlink" width="196px" height="55px" xmlns="http://www.w3.org/2000/svg">
  <defs>
    <filter x="195px" y="272px" width="196px" height="55px" filterUnits="userSpaceOnUse" id="filter225">
      <feOffset dx="5" dy="5" in="SourceAlpha" result="shadowOffsetInner" />
      <feGaussianBlur stdDeviation="2.5" in="shadowOffsetInner" result="shadowGaussian" />
      <feComposite in2="shadowGaussian" operator="atop" in="SourceAlpha" result="shadowComposite" />
      <feColorMatrix type="matrix" values="0 0 0 0 0  0 0 0 0 0  0 0 0 0 0  0 0 0 0.156862745098039 0  " in="shadowComposite" />
    </filter>
    <g id="widget226">
      <path d="M 196 276  A 3 3 0 0 1 199 273 L 377 273  A 3 3 0 0 1 380 276 L 380 313  A 3 3 0 0 1 377 316 L 199 316  A 3 3 0 0 1 196 313 L 196 276  Z " fill-rule="nonzero" fill="#ffffff" stroke="none" />
      <path d="M 195.5 276  A 3.5 3.5 0 0 1 199 272.5 L 377 272.5  A 3.5 3.5 0 0 1 380.5 276 L 380.5 313  A 3.5 3.5 0 0 1 377 316.5 L 199 316.5  A 3.5 3.5 0 0 1 195.5 313 L 195.5 276  Z " stroke-width="1" stroke="#797979" fill="none" stroke-opacity="0.196078431372549" />
    </g>
  </defs>
  <g transform="matrix(1 0 0 1 -195 -272 )">
    <use xlink:href="#widget226" filter="url(#filter225)" />
    <use xlink:href="#widget226" />
  </g>
</svg>