<?xml version="1.0" encoding="utf-8"?>
<svg version="1.1" xmlns:xlink="http://www.w3.org/1999/xlink" width="177px" height="117px" xmlns="http://www.w3.org/2000/svg">
  <defs>
    <filter x="439px" y="648px" width="177px" height="117px" filterUnits="userSpaceOnUse" id="filter57">
      <feOffset dx="5" dy="5" in="SourceAlpha" result="shadowOffsetInner" />
      <feGaussianBlur stdDeviation="2.5" in="shadowOffsetInner" result="shadowGaussian" />
      <feComposite in2="shadowGaussian" operator="atop" in="SourceAlpha" result="shadowComposite" />
      <feColorMatrix type="matrix" values="0 0 0 0 0  0 0 0 0 0  0 0 0 0 0  0 0 0 0.156862745098039 0  " in="shadowComposite" />
    </filter>
    <g id="widget58">
      <path d="M 440 652  A 3 3 0 0 1 443 649 L 602 649  A 3 3 0 0 1 605 652 L 605 751  A 3 3 0 0 1 602 754 L 443 754  A 3 3 0 0 1 440 751 L 440 652  Z " fill-rule="nonzero" fill="#ffffff" stroke="none" />
      <path d="M 439.5 652  A 3.5 3.5 0 0 1 443 648.5 L 602 648.5  A 3.5 3.5 0 0 1 605.5 652 L 605.5 751  A 3.5 3.5 0 0 1 602 754.5 L 443 754.5  A 3.5 3.5 0 0 1 439.5 751 L 439.5 652  Z " stroke-width="1" stroke="#797979" fill="none" stroke-opacity="0.196078431372549" />
    </g>
  </defs>
  <g transform="matrix(1 0 0 1 -439 -648 )">
    <use xlink:href="#widget58" filter="url(#filter57)" />
    <use xlink:href="#widget58" />
  </g>
</svg>