<?xml version="1.0" encoding="utf-8"?>
<svg version="1.1" xmlns:xlink="http://www.w3.org/1999/xlink" width="196px" height="64px" xmlns="http://www.w3.org/2000/svg">
  <defs>
    <filter x="354px" y="141px" width="196px" height="64px" filterUnits="userSpaceOnUse" id="filter239">
      <feOffset dx="5" dy="5" in="SourceAlpha" result="shadowOffsetInner" />
      <feGaussianBlur stdDeviation="2.5" in="shadowOffsetInner" result="shadowGaussian" />
      <feComposite in2="shadowGaussian" operator="atop" in="SourceAlpha" result="shadowComposite" />
      <feColorMatrix type="matrix" values="0 0 0 0 0  0 0 0 0 0  0 0 0 0 0  0 0 0 0.156862745098039 0  " in="shadowComposite" />
    </filter>
    <g id="widget240">
      <path d="M 355 145  A 3 3 0 0 1 358 142 L 536 142  A 3 3 0 0 1 539 145 L 539 191  A 3 3 0 0 1 536 194 L 358 194  A 3 3 0 0 1 355 191 L 355 145  Z " fill-rule="nonzero" fill="#ffffff" stroke="none" />
      <path d="M 354.5 145  A 3.5 3.5 0 0 1 358 141.5 L 536 141.5  A 3.5 3.5 0 0 1 539.5 145 L 539.5 191  A 3.5 3.5 0 0 1 536 194.5 L 358 194.5  A 3.5 3.5 0 0 1 354.5 191 L 354.5 145  Z " stroke-width="1" stroke="#797979" fill="none" stroke-opacity="0.196078431372549" />
    </g>
  </defs>
  <g transform="matrix(1 0 0 1 -354 -141 )">
    <use xlink:href="#widget240" filter="url(#filter239)" />
    <use xlink:href="#widget240" />
  </g>
</svg>