<?xml version="1.0" encoding="utf-8"?>
<svg version="1.1" xmlns:xlink="http://www.w3.org/1999/xlink" width="412px" height="172px" xmlns="http://www.w3.org/2000/svg">
  <defs>
    <filter x="717px" y="192px" width="412px" height="172px" filterUnits="userSpaceOnUse" id="filter75">
      <feOffset dx="5" dy="5" in="SourceAlpha" result="shadowOffsetInner" />
      <feGaussianBlur stdDeviation="2.5" in="shadowOffsetInner" result="shadowGaussian" />
      <feComposite in2="shadowGaussian" operator="atop" in="SourceAlpha" result="shadowComposite" />
      <feColorMatrix type="matrix" values="0 0 0 0 0  0 0 0 0 0  0 0 0 0 0  0 0 0 0.156862745098039 0  " in="shadowComposite" />
    </filter>
    <g id="widget76">
      <path d="M 718 196  A 3 3 0 0 1 721 193 L 1115 193  A 3 3 0 0 1 1118 196 L 1118 350  A 3 3 0 0 1 1115 353 L 721 353  A 3 3 0 0 1 718 350 L 718 196  Z " fill-rule="nonzero" fill="#ffffff" stroke="none" />
      <path d="M 717.5 196  A 3.5 3.5 0 0 1 721 192.5 L 1115 192.5  A 3.5 3.5 0 0 1 1118.5 196 L 1118.5 350  A 3.5 3.5 0 0 1 1115 353.5 L 721 353.5  A 3.5 3.5 0 0 1 717.5 350 L 717.5 196  Z " stroke-width="1" stroke="#797979" fill="none" stroke-opacity="0.196078431372549" />
    </g>
  </defs>
  <g transform="matrix(1 0 0 1 -717 -192 )">
    <use xlink:href="#widget76" filter="url(#filter75)" />
    <use xlink:href="#widget76" />
  </g>
</svg>