<?xml version="1.0" encoding="utf-8"?>
<svg version="1.1" xmlns:xlink="http://www.w3.org/1999/xlink" width="136px" height="107px" xmlns="http://www.w3.org/2000/svg">
  <defs>
    <filter x="1515px" y="11px" width="136px" height="107px" filterUnits="userSpaceOnUse" id="filter9">
      <feOffset dx="5" dy="5" in="SourceAlpha" result="shadowOffsetInner" />
      <feGaussianBlur stdDeviation="2.5" in="shadowOffsetInner" result="shadowGaussian" />
      <feComposite in2="shadowGaussian" operator="atop" in="SourceAlpha" result="shadowComposite" />
      <feColorMatrix type="matrix" values="0 0 0 0 0  0 0 0 0 0  0 0 0 0 0  0 0 0 0.156862745098039 0  " in="shadowComposite" />
    </filter>
    <g id="widget10">
      <path d="M 1516 15  A 3 3 0 0 1 1519 12 L 1637 12  A 3 3 0 0 1 1640 15 L 1640 104  A 3 3 0 0 1 1637 107 L 1519 107  A 3 3 0 0 1 1516 104 L 1516 15  Z " fill-rule="nonzero" fill="#ffffff" stroke="none" />
      <path d="M 1515.5 15  A 3.5 3.5 0 0 1 1519 11.5 L 1637 11.5  A 3.5 3.5 0 0 1 1640.5 15 L 1640.5 104  A 3.5 3.5 0 0 1 1637 107.5 L 1519 107.5  A 3.5 3.5 0 0 1 1515.5 104 L 1515.5 15  Z " stroke-width="1" stroke="#797979" fill="none" stroke-opacity="0.196078431372549" />
    </g>
  </defs>
  <g transform="matrix(1 0 0 1 -1515 -11 )">
    <use xlink:href="#widget10" filter="url(#filter9)" />
    <use xlink:href="#widget10" />
  </g>
</svg>