<?xml version="1.0" encoding="utf-8"?>
<svg version="1.1" xmlns:xlink="http://www.w3.org/1999/xlink" width="182px" height="83px" xmlns="http://www.w3.org/2000/svg">
  <defs>
    <filter x="1690px" y="241px" width="182px" height="83px" filterUnits="userSpaceOnUse" id="filter105">
      <feOffset dx="5" dy="5" in="SourceAlpha" result="shadowOffsetInner" />
      <feGaussianBlur stdDeviation="2.5" in="shadowOffsetInner" result="shadowGaussian" />
      <feComposite in2="shadowGaussian" operator="atop" in="SourceAlpha" result="shadowComposite" />
      <feColorMatrix type="matrix" values="0 0 0 0 0  0 0 0 0 0  0 0 0 0 0  0 0 0 0.156862745098039 0  " in="shadowComposite" />
    </filter>
    <g id="widget106">
      <path d="M 1691 245  A 3 3 0 0 1 1694 242 L 1858 242  A 3 3 0 0 1 1861 245 L 1861 310  A 3 3 0 0 1 1858 313 L 1694 313  A 3 3 0 0 1 1691 310 L 1691 245  Z " fill-rule="nonzero" fill="#ffffff" stroke="none" />
      <path d="M 1690.5 245  A 3.5 3.5 0 0 1 1694 241.5 L 1858 241.5  A 3.5 3.5 0 0 1 1861.5 245 L 1861.5 310  A 3.5 3.5 0 0 1 1858 313.5 L 1694 313.5  A 3.5 3.5 0 0 1 1690.5 310 L 1690.5 245  Z " stroke-width="1" stroke="#797979" fill="none" stroke-opacity="0.196078431372549" />
    </g>
  </defs>
  <g transform="matrix(1 0 0 1 -1690 -241 )">
    <use xlink:href="#widget106" filter="url(#filter105)" />
    <use xlink:href="#widget106" />
  </g>
</svg>