<?xml version="1.0" encoding="utf-8"?>
<svg version="1.1" xmlns:xlink="http://www.w3.org/1999/xlink" width="193px" height="107px" xmlns="http://www.w3.org/2000/svg">
  <defs>
    <filter x="1347px" y="92px" width="193px" height="107px" filterUnits="userSpaceOnUse" id="filter13">
      <feOffset dx="5" dy="5" in="SourceAlpha" result="shadowOffsetInner" />
      <feGaussianBlur stdDeviation="2.5" in="shadowOffsetInner" result="shadowGaussian" />
      <feComposite in2="shadowGaussian" operator="atop" in="SourceAlpha" result="shadowComposite" />
      <feColorMatrix type="matrix" values="0 0 0 0 0  0 0 0 0 0  0 0 0 0 0  0 0 0 0.156862745098039 0  " in="shadowComposite" />
    </filter>
    <g id="widget14">
      <path d="M 1348 96  A 3 3 0 0 1 1351 93 L 1526 93  A 3 3 0 0 1 1529 96 L 1529 185  A 3 3 0 0 1 1526 188 L 1351 188  A 3 3 0 0 1 1348 185 L 1348 96  Z " fill-rule="nonzero" fill="#ffffff" stroke="none" />
      <path d="M 1347.5 96  A 3.5 3.5 0 0 1 1351 92.5 L 1526 92.5  A 3.5 3.5 0 0 1 1529.5 96 L 1529.5 185  A 3.5 3.5 0 0 1 1526 188.5 L 1351 188.5  A 3.5 3.5 0 0 1 1347.5 185 L 1347.5 96  Z " stroke-width="1" stroke="#797979" fill="none" stroke-opacity="0.196078431372549" />
    </g>
  </defs>
  <g transform="matrix(1 0 0 1 -1347 -92 )">
    <use xlink:href="#widget14" filter="url(#filter13)" />
    <use xlink:href="#widget14" />
  </g>
</svg>