<?xml version="1.0" encoding="utf-8"?>
<svg version="1.1" xmlns:xlink="http://www.w3.org/1999/xlink" width="242px" height="138px" xmlns="http://www.w3.org/2000/svg">
  <defs>
    <filter x="287px" y="13px" width="242px" height="138px" filterUnits="userSpaceOnUse" id="filter241">
      <feOffset dx="5" dy="5" in="SourceAlpha" result="shadowOffsetInner" />
      <feGaussianBlur stdDeviation="2.5" in="shadowOffsetInner" result="shadowGaussian" />
      <feComposite in2="shadowGaussian" operator="atop" in="SourceAlpha" result="shadowComposite" />
      <feColorMatrix type="matrix" values="0 0 0 0 0  0 0 0 0 0  0 0 0 0 0  0 0 0 0.156862745098039 0  " in="shadowComposite" />
    </filter>
    <g id="widget242">
      <path d="M 288 17  A 3 3 0 0 1 291 14 L 515 14  A 3 3 0 0 1 518 17 L 518 137  A 3 3 0 0 1 515 140 L 291 140  A 3 3 0 0 1 288 137 L 288 17  Z " fill-rule="nonzero" fill="#ffffff" stroke="none" />
      <path d="M 287.5 17  A 3.5 3.5 0 0 1 291 13.5 L 515 13.5  A 3.5 3.5 0 0 1 518.5 17 L 518.5 137  A 3.5 3.5 0 0 1 515 140.5 L 291 140.5  A 3.5 3.5 0 0 1 287.5 137 L 287.5 17  Z " stroke-width="1" stroke="#797979" fill="none" stroke-opacity="0.196078431372549" />
    </g>
  </defs>
  <g transform="matrix(1 0 0 1 -287 -13 )">
    <use xlink:href="#widget242" filter="url(#filter241)" />
    <use xlink:href="#widget242" />
  </g>
</svg>