<?xml version="1.0" encoding="utf-8"?>
<svg version="1.1" xmlns:xlink="http://www.w3.org/1999/xlink" width="172px" height="75px" xmlns="http://www.w3.org/2000/svg">
  <defs>
    <filter x="694px" y="436px" width="172px" height="75px" filterUnits="userSpaceOnUse" id="filter99">
      <feOffset dx="5" dy="5" in="SourceAlpha" result="shadowOffsetInner" />
      <feGaussianBlur stdDeviation="2.5" in="shadowOffsetInner" result="shadowGaussian" />
      <feComposite in2="shadowGaussian" operator="atop" in="SourceAlpha" result="shadowComposite" />
      <feColorMatrix type="matrix" values="0 0 0 0 0  0 0 0 0 0  0 0 0 0 0  0 0 0 0.156862745098039 0  " in="shadowComposite" />
    </filter>
    <g id="widget100">
      <path d="M 695 440  A 3 3 0 0 1 698 437 L 852 437  A 3 3 0 0 1 855 440 L 855 497  A 3 3 0 0 1 852 500 L 698 500  A 3 3 0 0 1 695 497 L 695 440  Z " fill-rule="nonzero" fill="#ffffff" stroke="none" />
      <path d="M 694.5 440  A 3.5 3.5 0 0 1 698 436.5 L 852 436.5  A 3.5 3.5 0 0 1 855.5 440 L 855.5 497  A 3.5 3.5 0 0 1 852 500.5 L 698 500.5  A 3.5 3.5 0 0 1 694.5 497 L 694.5 440  Z " stroke-width="1" stroke="#797979" fill="none" stroke-opacity="0.196078431372549" />
    </g>
  </defs>
  <g transform="matrix(1 0 0 1 -694 -436 )">
    <use xlink:href="#widget100" filter="url(#filter99)" />
    <use xlink:href="#widget100" />
  </g>
</svg>