<?xml version="1.0" encoding="utf-8"?>
<svg version="1.1" xmlns:xlink="http://www.w3.org/1999/xlink" width="196px" height="58px" xmlns="http://www.w3.org/2000/svg">
  <defs>
    <filter x="643px" y="662px" width="196px" height="58px" filterUnits="userSpaceOnUse" id="filter167">
      <feOffset dx="5" dy="5" in="SourceAlpha" result="shadowOffsetInner" />
      <feGaussianBlur stdDeviation="2.5" in="shadowOffsetInner" result="shadowGaussian" />
      <feComposite in2="shadowGaussian" operator="atop" in="SourceAlpha" result="shadowComposite" />
      <feColorMatrix type="matrix" values="0 0 0 0 0  0 0 0 0 0  0 0 0 0 0  0 0 0 0.156862745098039 0  " in="shadowComposite" />
    </filter>
    <g id="widget168">
      <path d="M 644 666  A 3 3 0 0 1 647 663 L 825 663  A 3 3 0 0 1 828 666 L 828 706  A 3 3 0 0 1 825 709 L 647 709  A 3 3 0 0 1 644 706 L 644 666  Z " fill-rule="nonzero" fill="#ffffff" stroke="none" />
      <path d="M 643.5 666  A 3.5 3.5 0 0 1 647 662.5 L 825 662.5  A 3.5 3.5 0 0 1 828.5 666 L 828.5 706  A 3.5 3.5 0 0 1 825 709.5 L 647 709.5  A 3.5 3.5 0 0 1 643.5 706 L 643.5 666  Z " stroke-width="1" stroke="#797979" fill="none" stroke-opacity="0.196078431372549" />
    </g>
  </defs>
  <g transform="matrix(1 0 0 1 -643 -662 )">
    <use xlink:href="#widget168" filter="url(#filter167)" />
    <use xlink:href="#widget168" />
  </g>
</svg>