<?xml version="1.0" encoding="utf-8"?>
<svg version="1.1" xmlns:xlink="http://www.w3.org/1999/xlink" width="262px" height="101px" xmlns="http://www.w3.org/2000/svg">
  <defs>
    <filter x="157px" y="259px" width="262px" height="101px" filterUnits="userSpaceOnUse" id="filter93">
      <feOffset dx="5" dy="5" in="SourceAlpha" result="shadowOffsetInner" />
      <feGaussianBlur stdDeviation="2.5" in="shadowOffsetInner" result="shadowGaussian" />
      <feComposite in2="shadowGaussian" operator="atop" in="SourceAlpha" result="shadowComposite" />
      <feColorMatrix type="matrix" values="0 0 0 0 0  0 0 0 0 0  0 0 0 0 0  0 0 0 0.156862745098039 0  " in="shadowComposite" />
    </filter>
    <g id="widget94">
      <path d="M 158 263  A 3 3 0 0 1 161 260 L 405 260  A 3 3 0 0 1 408 263 L 408 346  A 3 3 0 0 1 405 349 L 161 349  A 3 3 0 0 1 158 346 L 158 263  Z " fill-rule="nonzero" fill="#ffffff" stroke="none" />
      <path d="M 157.5 263  A 3.5 3.5 0 0 1 161 259.5 L 405 259.5  A 3.5 3.5 0 0 1 408.5 263 L 408.5 346  A 3.5 3.5 0 0 1 405 349.5 L 161 349.5  A 3.5 3.5 0 0 1 157.5 346 L 157.5 263  Z " stroke-width="1" stroke="#797979" fill="none" stroke-opacity="0.196078431372549" />
    </g>
  </defs>
  <g transform="matrix(1 0 0 1 -157 -259 )">
    <use xlink:href="#widget94" filter="url(#filter93)" />
    <use xlink:href="#widget94" />
  </g>
</svg>