<?xml version="1.0" encoding="utf-8"?>
<svg version="1.1" xmlns:xlink="http://www.w3.org/1999/xlink" width="177px" height="108px" xmlns="http://www.w3.org/2000/svg">
  <defs>
    <filter x="693px" y="822px" width="177px" height="108px" filterUnits="userSpaceOnUse" id="filter137">
      <feOffset dx="5" dy="5" in="SourceAlpha" result="shadowOffsetInner" />
      <feGaussianBlur stdDeviation="2.5" in="shadowOffsetInner" result="shadowGaussian" />
      <feComposite in2="shadowGaussian" operator="atop" in="SourceAlpha" result="shadowComposite" />
      <feColorMatrix type="matrix" values="0 0 0 0 0  0 0 0 0 0  0 0 0 0 0  0 0 0 0.156862745098039 0  " in="shadowComposite" />
    </filter>
    <g id="widget138">
      <path d="M 694 826  A 3 3 0 0 1 697 823 L 856 823  A 3 3 0 0 1 859 826 L 859 916  A 3 3 0 0 1 856 919 L 697 919  A 3 3 0 0 1 694 916 L 694 826  Z " fill-rule="nonzero" fill="#ffffff" stroke="none" />
      <path d="M 693.5 826  A 3.5 3.5 0 0 1 697 822.5 L 856 822.5  A 3.5 3.5 0 0 1 859.5 826 L 859.5 916  A 3.5 3.5 0 0 1 856 919.5 L 697 919.5  A 3.5 3.5 0 0 1 693.5 916 L 693.5 826  Z " stroke-width="1" stroke="#797979" fill="none" stroke-opacity="0.196078431372549" />
    </g>
  </defs>
  <g transform="matrix(1 0 0 1 -693 -822 )">
    <use xlink:href="#widget138" filter="url(#filter137)" />
    <use xlink:href="#widget138" />
  </g>
</svg>