<?xml version="1.0" encoding="utf-8"?>
<svg version="1.1" xmlns:xlink="http://www.w3.org/1999/xlink" width="196px" height="83px" xmlns="http://www.w3.org/2000/svg">
  <defs>
    <filter x="415px" y="399px" width="196px" height="83px" filterUnits="userSpaceOnUse" id="filter209">
      <feOffset dx="5" dy="5" in="SourceAlpha" result="shadowOffsetInner" />
      <feGaussianBlur stdDeviation="2.5" in="shadowOffsetInner" result="shadowGaussian" />
      <feComposite in2="shadowGaussian" operator="atop" in="SourceAlpha" result="shadowComposite" />
      <feColorMatrix type="matrix" values="0 0 0 0 0  0 0 0 0 0  0 0 0 0 0  0 0 0 0.156862745098039 0  " in="shadowComposite" />
    </filter>
    <g id="widget210">
      <path d="M 416 403  A 3 3 0 0 1 419 400 L 597 400  A 3 3 0 0 1 600 403 L 600 468  A 3 3 0 0 1 597 471 L 419 471  A 3 3 0 0 1 416 468 L 416 403  Z " fill-rule="nonzero" fill="#ffffff" stroke="none" />
      <path d="M 415.5 403  A 3.5 3.5 0 0 1 419 399.5 L 597 399.5  A 3.5 3.5 0 0 1 600.5 403 L 600.5 468  A 3.5 3.5 0 0 1 597 471.5 L 419 471.5  A 3.5 3.5 0 0 1 415.5 468 L 415.5 403  Z " stroke-width="1" stroke="#797979" fill="none" stroke-opacity="0.196078431372549" />
    </g>
  </defs>
  <g transform="matrix(1 0 0 1 -415 -399 )">
    <use xlink:href="#widget210" filter="url(#filter209)" />
    <use xlink:href="#widget210" />
  </g>
</svg>