<?xml version="1.0" encoding="utf-8"?>
<svg version="1.1" xmlns:xlink="http://www.w3.org/1999/xlink" width="196px" height="129px" xmlns="http://www.w3.org/2000/svg">
  <defs>
    <filter x="1296px" y="468px" width="196px" height="129px" filterUnits="userSpaceOnUse" id="filter217">
      <feOffset dx="5" dy="5" in="SourceAlpha" result="shadowOffsetInner" />
      <feGaussianBlur stdDeviation="2.5" in="shadowOffsetInner" result="shadowGaussian" />
      <feComposite in2="shadowGaussian" operator="atop" in="SourceAlpha" result="shadowComposite" />
      <feColorMatrix type="matrix" values="0 0 0 0 0  0 0 0 0 0  0 0 0 0 0  0 0 0 0.156862745098039 0  " in="shadowComposite" />
    </filter>
    <g id="widget218">
      <path d="M 1297 472  A 3 3 0 0 1 1300 469 L 1478 469  A 3 3 0 0 1 1481 472 L 1481 583  A 3 3 0 0 1 1478 586 L 1300 586  A 3 3 0 0 1 1297 583 L 1297 472  Z " fill-rule="nonzero" fill="#ffffff" stroke="none" />
      <path d="M 1296.5 472  A 3.5 3.5 0 0 1 1300 468.5 L 1478 468.5  A 3.5 3.5 0 0 1 1481.5 472 L 1481.5 583  A 3.5 3.5 0 0 1 1478 586.5 L 1300 586.5  A 3.5 3.5 0 0 1 1296.5 583 L 1296.5 472  Z " stroke-width="1" stroke="#797979" fill="none" stroke-opacity="0.196078431372549" />
    </g>
  </defs>
  <g transform="matrix(1 0 0 1 -1296 -468 )">
    <use xlink:href="#widget218" filter="url(#filter217)" />
    <use xlink:href="#widget218" />
  </g>
</svg>