<?xml version="1.0" encoding="utf-8"?>
<svg version="1.1" xmlns:xlink="http://www.w3.org/1999/xlink" width="196px" height="135px" xmlns="http://www.w3.org/2000/svg">
  <defs>
    <filter x="1315px" y="36px" width="196px" height="135px" filterUnits="userSpaceOnUse" id="filter191">
      <feOffset dx="5" dy="5" in="SourceAlpha" result="shadowOffsetInner" />
      <feGaussianBlur stdDeviation="2.5" in="shadowOffsetInner" result="shadowGaussian" />
      <feComposite in2="shadowGaussian" operator="atop" in="SourceAlpha" result="shadowComposite" />
      <feColorMatrix type="matrix" values="0 0 0 0 0  0 0 0 0 0  0 0 0 0 0  0 0 0 0.156862745098039 0  " in="shadowComposite" />
    </filter>
    <g id="widget192">
      <path d="M 1316 40  A 3 3 0 0 1 1319 37 L 1497 37  A 3 3 0 0 1 1500 40 L 1500 157  A 3 3 0 0 1 1497 160 L 1319 160  A 3 3 0 0 1 1316 157 L 1316 40  Z " fill-rule="nonzero" fill="#ffffff" stroke="none" />
      <path d="M 1315.5 40  A 3.5 3.5 0 0 1 1319 36.5 L 1497 36.5  A 3.5 3.5 0 0 1 1500.5 40 L 1500.5 157  A 3.5 3.5 0 0 1 1497 160.5 L 1319 160.5  A 3.5 3.5 0 0 1 1315.5 157 L 1315.5 40  Z " stroke-width="1" stroke="#797979" fill="none" stroke-opacity="0.196078431372549" />
    </g>
  </defs>
  <g transform="matrix(1 0 0 1 -1315 -36 )">
    <use xlink:href="#widget192" filter="url(#filter191)" />
    <use xlink:href="#widget192" />
  </g>
</svg>