<?xml version="1.0" encoding="utf-8"?>
<svg version="1.1" xmlns:xlink="http://www.w3.org/1999/xlink" width="178px" height="53px" xmlns="http://www.w3.org/2000/svg">
  <defs>
    <filter x="1326px" y="776px" width="178px" height="53px" filterUnits="userSpaceOnUse" id="filter121">
      <feOffset dx="5" dy="5" in="SourceAlpha" result="shadowOffsetInner" />
      <feGaussianBlur stdDeviation="2.5" in="shadowOffsetInner" result="shadowGaussian" />
      <feComposite in2="shadowGaussian" operator="atop" in="SourceAlpha" result="shadowComposite" />
      <feColorMatrix type="matrix" values="0 0 0 0 0  0 0 0 0 0  0 0 0 0 0  0 0 0 0.156862745098039 0  " in="shadowComposite" />
    </filter>
    <g id="widget122">
      <path d="M 1327 780  A 3 3 0 0 1 1330 777 L 1490 777  A 3 3 0 0 1 1493 780 L 1493 815  A 3 3 0 0 1 1490 818 L 1330 818  A 3 3 0 0 1 1327 815 L 1327 780  Z " fill-rule="nonzero" fill="#ffffff" stroke="none" />
      <path d="M 1326.5 780  A 3.5 3.5 0 0 1 1330 776.5 L 1490 776.5  A 3.5 3.5 0 0 1 1493.5 780 L 1493.5 815  A 3.5 3.5 0 0 1 1490 818.5 L 1330 818.5  A 3.5 3.5 0 0 1 1326.5 815 L 1326.5 780  Z " stroke-width="1" stroke="#797979" fill="none" stroke-opacity="0.196078431372549" />
    </g>
  </defs>
  <g transform="matrix(1 0 0 1 -1326 -776 )">
    <use xlink:href="#widget122" filter="url(#filter121)" />
    <use xlink:href="#widget122" />
  </g>
</svg>