<?xml version="1.0" encoding="utf-8"?>
<svg version="1.1" xmlns:xlink="http://www.w3.org/1999/xlink" width="196px" height="121px" xmlns="http://www.w3.org/2000/svg">
  <defs>
    <filter x="220px" y="71px" width="196px" height="121px" filterUnits="userSpaceOnUse" id="filter219">
      <feOffset dx="5" dy="5" in="SourceAlpha" result="shadowOffsetInner" />
      <feGaussianBlur stdDeviation="2.5" in="shadowOffsetInner" result="shadowGaussian" />
      <feComposite in2="shadowGaussian" operator="atop" in="SourceAlpha" result="shadowComposite" />
      <feColorMatrix type="matrix" values="0 0 0 0 0  0 0 0 0 0  0 0 0 0 0  0 0 0 0.156862745098039 0  " in="shadowComposite" />
    </filter>
    <g id="widget220">
      <path d="M 221 75  A 3 3 0 0 1 224 72 L 402 72  A 3 3 0 0 1 405 75 L 405 178  A 3 3 0 0 1 402 181 L 224 181  A 3 3 0 0 1 221 178 L 221 75  Z " fill-rule="nonzero" fill="#ffffff" stroke="none" />
      <path d="M 220.5 75  A 3.5 3.5 0 0 1 224 71.5 L 402 71.5  A 3.5 3.5 0 0 1 405.5 75 L 405.5 178  A 3.5 3.5 0 0 1 402 181.5 L 224 181.5  A 3.5 3.5 0 0 1 220.5 178 L 220.5 75  Z " stroke-width="1" stroke="#797979" fill="none" stroke-opacity="0.196078431372549" />
    </g>
  </defs>
  <g transform="matrix(1 0 0 1 -220 -71 )">
    <use xlink:href="#widget220" filter="url(#filter219)" />
    <use xlink:href="#widget220" />
  </g>
</svg>