<?xml version="1.0" encoding="utf-8"?>
<svg version="1.1" xmlns:xlink="http://www.w3.org/1999/xlink" width="242px" height="113px" xmlns="http://www.w3.org/2000/svg">
  <defs>
    <filter x="210px" y="545px" width="242px" height="113px" filterUnits="userSpaceOnUse" id="filter245">
      <feOffset dx="5" dy="5" in="SourceAlpha" result="shadowOffsetInner" />
      <feGaussianBlur stdDeviation="2.5" in="shadowOffsetInner" result="shadowGaussian" />
      <feComposite in2="shadowGaussian" operator="atop" in="SourceAlpha" result="shadowComposite" />
      <feColorMatrix type="matrix" values="0 0 0 0 0  0 0 0 0 0  0 0 0 0 0  0 0 0 0.156862745098039 0  " in="shadowComposite" />
    </filter>
    <g id="widget246">
      <path d="M 211 549  A 3 3 0 0 1 214 546 L 438 546  A 3 3 0 0 1 441 549 L 441 644  A 3 3 0 0 1 438 647 L 214 647  A 3 3 0 0 1 211 644 L 211 549  Z " fill-rule="nonzero" fill="#ffffff" stroke="none" />
      <path d="M 210.5 549  A 3.5 3.5 0 0 1 214 545.5 L 438 545.5  A 3.5 3.5 0 0 1 441.5 549 L 441.5 644  A 3.5 3.5 0 0 1 438 647.5 L 214 647.5  A 3.5 3.5 0 0 1 210.5 644 L 210.5 549  Z " stroke-width="1" stroke="#797979" fill="none" stroke-opacity="0.196078431372549" />
    </g>
  </defs>
  <g transform="matrix(1 0 0 1 -210 -545 )">
    <use xlink:href="#widget246" filter="url(#filter245)" />
    <use xlink:href="#widget246" />
  </g>
</svg>