<?xml version="1.0" encoding="utf-8"?>
<svg version="1.1" xmlns:xlink="http://www.w3.org/1999/xlink" width="177px" height="125px" xmlns="http://www.w3.org/2000/svg">
  <defs>
    <filter x="211px" y="307px" width="177px" height="125px" filterUnits="userSpaceOnUse" id="filter37">
      <feOffset dx="5" dy="5" in="SourceAlpha" result="shadowOffsetInner" />
      <feGaussianBlur stdDeviation="2.5" in="shadowOffsetInner" result="shadowGaussian" />
      <feComposite in2="shadowGaussian" operator="atop" in="SourceAlpha" result="shadowComposite" />
      <feColorMatrix type="matrix" values="0 0 0 0 0  0 0 0 0 0  0 0 0 0 0  0 0 0 0.156862745098039 0  " in="shadowComposite" />
    </filter>
    <g id="widget38">
      <path d="M 212 311  A 3 3 0 0 1 215 308 L 374 308  A 3 3 0 0 1 377 311 L 377 418  A 3 3 0 0 1 374 421 L 215 421  A 3 3 0 0 1 212 418 L 212 311  Z " fill-rule="nonzero" fill="#ffffff" stroke="none" />
      <path d="M 211.5 311  A 3.5 3.5 0 0 1 215 307.5 L 374 307.5  A 3.5 3.5 0 0 1 377.5 311 L 377.5 418  A 3.5 3.5 0 0 1 374 421.5 L 215 421.5  A 3.5 3.5 0 0 1 211.5 418 L 211.5 311  Z " stroke-width="1" stroke="#797979" fill="none" stroke-opacity="0.196078431372549" />
    </g>
  </defs>
  <g transform="matrix(1 0 0 1 -211 -307 )">
    <use xlink:href="#widget38" filter="url(#filter37)" />
    <use xlink:href="#widget38" />
  </g>
</svg>