<?xml version="1.0" encoding="utf-8"?>
<svg version="1.1" xmlns:xlink="http://www.w3.org/1999/xlink" width="177px" height="189px" xmlns="http://www.w3.org/2000/svg">
  <defs>
    <filter x="1204px" y="675px" width="177px" height="189px" filterUnits="userSpaceOnUse" id="filter51">
      <feOffset dx="5" dy="5" in="SourceAlpha" result="shadowOffsetInner" />
      <feGaussianBlur stdDeviation="2.5" in="shadowOffsetInner" result="shadowGaussian" />
      <feComposite in2="shadowGaussian" operator="atop" in="SourceAlpha" result="shadowComposite" />
      <feColorMatrix type="matrix" values="0 0 0 0 0  0 0 0 0 0  0 0 0 0 0  0 0 0 0.156862745098039 0  " in="shadowComposite" />
    </filter>
    <g id="widget52">
      <path d="M 1205 679  A 3 3 0 0 1 1208 676 L 1367 676  A 3 3 0 0 1 1370 679 L 1370 850  A 3 3 0 0 1 1367 853 L 1208 853  A 3 3 0 0 1 1205 850 L 1205 679  Z " fill-rule="nonzero" fill="#ffffff" stroke="none" />
      <path d="M 1204.5 679  A 3.5 3.5 0 0 1 1208 675.5 L 1367 675.5  A 3.5 3.5 0 0 1 1370.5 679 L 1370.5 850  A 3.5 3.5 0 0 1 1367 853.5 L 1208 853.5  A 3.5 3.5 0 0 1 1204.5 850 L 1204.5 679  Z " stroke-width="1" stroke="#797979" fill="none" stroke-opacity="0.196078431372549" />
    </g>
  </defs>
  <g transform="matrix(1 0 0 1 -1204 -675 )">
    <use xlink:href="#widget52" filter="url(#filter51)" />
    <use xlink:href="#widget52" />
  </g>
</svg>