<?xml version="1.0" encoding="utf-8"?>
<svg version="1.1" xmlns:xlink="http://www.w3.org/1999/xlink" width="262px" height="86px" xmlns="http://www.w3.org/2000/svg">
  <defs>
    <filter x="1570px" y="187px" width="262px" height="86px" filterUnits="userSpaceOnUse" id="filter95">
      <feOffset dx="5" dy="5" in="SourceAlpha" result="shadowOffsetInner" />
      <feGaussianBlur stdDeviation="2.5" in="shadowOffsetInner" result="shadowGaussian" />
      <feComposite in2="shadowGaussian" operator="atop" in="SourceAlpha" result="shadowComposite" />
      <feColorMatrix type="matrix" values="0 0 0 0 0  0 0 0 0 0  0 0 0 0 0  0 0 0 0.156862745098039 0  " in="shadowComposite" />
    </filter>
    <g id="widget96">
      <path d="M 1571 191  A 3 3 0 0 1 1574 188 L 1818 188  A 3 3 0 0 1 1821 191 L 1821 259  A 3 3 0 0 1 1818 262 L 1574 262  A 3 3 0 0 1 1571 259 L 1571 191  Z " fill-rule="nonzero" fill="#ffffff" stroke="none" />
      <path d="M 1570.5 191  A 3.5 3.5 0 0 1 1574 187.5 L 1818 187.5  A 3.5 3.5 0 0 1 1821.5 191 L 1821.5 259  A 3.5 3.5 0 0 1 1818 262.5 L 1574 262.5  A 3.5 3.5 0 0 1 1570.5 259 L 1570.5 191  Z " stroke-width="1" stroke="#797979" fill="none" stroke-opacity="0.196078431372549" />
    </g>
  </defs>
  <g transform="matrix(1 0 0 1 -1570 -187 )">
    <use xlink:href="#widget96" filter="url(#filter95)" />
    <use xlink:href="#widget96" />
  </g>
</svg>