<?xml version="1.0" encoding="utf-8"?>
<svg version="1.1" xmlns:xlink="http://www.w3.org/1999/xlink" width="196px" height="56px" xmlns="http://www.w3.org/2000/svg">
  <defs>
    <filter x="774px" y="211px" width="196px" height="56px" filterUnits="userSpaceOnUse" id="filter193">
      <feOffset dx="5" dy="5" in="SourceAlpha" result="shadowOffsetInner" />
      <feGaussianBlur stdDeviation="2.5" in="shadowOffsetInner" result="shadowGaussian" />
      <feComposite in2="shadowGaussian" operator="atop" in="SourceAlpha" result="shadowComposite" />
      <feColorMatrix type="matrix" values="0 0 0 0 0  0 0 0 0 0  0 0 0 0 0  0 0 0 0.156862745098039 0  " in="shadowComposite" />
    </filter>
    <g id="widget194">
      <path d="M 775 215  A 3 3 0 0 1 778 212 L 956 212  A 3 3 0 0 1 959 215 L 959 253  A 3 3 0 0 1 956 256 L 778 256  A 3 3 0 0 1 775 253 L 775 215  Z " fill-rule="nonzero" fill="#ffffff" stroke="none" />
      <path d="M 774.5 215  A 3.5 3.5 0 0 1 778 211.5 L 956 211.5  A 3.5 3.5 0 0 1 959.5 215 L 959.5 253  A 3.5 3.5 0 0 1 956 256.5 L 778 256.5  A 3.5 3.5 0 0 1 774.5 253 L 774.5 215  Z " stroke-width="1" stroke="#797979" fill="none" stroke-opacity="0.196078431372549" />
    </g>
  </defs>
  <g transform="matrix(1 0 0 1 -774 -211 )">
    <use xlink:href="#widget194" filter="url(#filter193)" />
    <use xlink:href="#widget194" />
  </g>
</svg>