<?xml version="1.0" encoding="utf-8"?>
<svg version="1.1" xmlns:xlink="http://www.w3.org/1999/xlink" width="312px" height="149px" xmlns="http://www.w3.org/2000/svg">
  <defs>
    <filter x="300px" y="106px" width="312px" height="149px" filterUnits="userSpaceOnUse" id="filter183">
      <feOffset dx="5" dy="5" in="SourceAlpha" result="shadowOffsetInner" />
      <feGaussianBlur stdDeviation="2.5" in="shadowOffsetInner" result="shadowGaussian" />
      <feComposite in2="shadowGaussian" operator="atop" in="SourceAlpha" result="shadowComposite" />
      <feColorMatrix type="matrix" values="0 0 0 0 0  0 0 0 0 0  0 0 0 0 0  0 0 0 0.156862745098039 0  " in="shadowComposite" />
    </filter>
    <g id="widget184">
      <path d="M 301 110  A 3 3 0 0 1 304 107 L 598 107  A 3 3 0 0 1 601 110 L 601 241  A 3 3 0 0 1 598 244 L 304 244  A 3 3 0 0 1 301 241 L 301 110  Z " fill-rule="nonzero" fill="#ffffff" stroke="none" />
      <path d="M 300.5 110  A 3.5 3.5 0 0 1 304 106.5 L 598 106.5  A 3.5 3.5 0 0 1 601.5 110 L 601.5 241  A 3.5 3.5 0 0 1 598 244.5 L 304 244.5  A 3.5 3.5 0 0 1 300.5 241 L 300.5 110  Z " stroke-width="1" stroke="#797979" fill="none" stroke-opacity="0.196078431372549" />
    </g>
  </defs>
  <g transform="matrix(1 0 0 1 -300 -106 )">
    <use xlink:href="#widget184" filter="url(#filter183)" />
    <use xlink:href="#widget184" />
  </g>
</svg>