<?xml version="1.0" encoding="utf-8"?>
<svg version="1.1" xmlns:xlink="http://www.w3.org/1999/xlink" width="247px" height="64px" xmlns="http://www.w3.org/2000/svg">
  <defs>
    <filter x="116px" y="209px" width="247px" height="64px" filterUnits="userSpaceOnUse" id="filter111">
      <feOffset dx="5" dy="5" in="SourceAlpha" result="shadowOffsetInner" />
      <feGaussianBlur stdDeviation="2.5" in="shadowOffsetInner" result="shadowGaussian" />
      <feComposite in2="shadowGaussian" operator="atop" in="SourceAlpha" result="shadowComposite" />
      <feColorMatrix type="matrix" values="0 0 0 0 0  0 0 0 0 0  0 0 0 0 0  0 0 0 0.156862745098039 0  " in="shadowComposite" />
    </filter>
    <g id="widget112">
      <path d="M 117 213  A 3 3 0 0 1 120 210 L 349 210  A 3 3 0 0 1 352 213 L 352 259  A 3 3 0 0 1 349 262 L 120 262  A 3 3 0 0 1 117 259 L 117 213  Z " fill-rule="nonzero" fill="#ffffff" stroke="none" />
      <path d="M 116.5 213  A 3.5 3.5 0 0 1 120 209.5 L 349 209.5  A 3.5 3.5 0 0 1 352.5 213 L 352.5 259  A 3.5 3.5 0 0 1 349 262.5 L 120 262.5  A 3.5 3.5 0 0 1 116.5 259 L 116.5 213  Z " stroke-width="1" stroke="#797979" fill="none" stroke-opacity="0.196078431372549" />
    </g>
  </defs>
  <g transform="matrix(1 0 0 1 -116 -209 )">
    <use xlink:href="#widget112" filter="url(#filter111)" />
    <use xlink:href="#widget112" />
  </g>
</svg>