<?xml version="1.0" encoding="utf-8"?>
<svg version="1.1" xmlns:xlink="http://www.w3.org/1999/xlink" width="272px" height="78px" xmlns="http://www.w3.org/2000/svg">
  <defs>
    <filter x="709px" y="464px" width="272px" height="78px" filterUnits="userSpaceOnUse" id="filter71">
      <feOffset dx="5" dy="5" in="SourceAlpha" result="shadowOffsetInner" />
      <feGaussianBlur stdDeviation="2.5" in="shadowOffsetInner" result="shadowGaussian" />
      <feComposite in2="shadowGaussian" operator="atop" in="SourceAlpha" result="shadowComposite" />
      <feColorMatrix type="matrix" values="0 0 0 0 0  0 0 0 0 0  0 0 0 0 0  0 0 0 0.156862745098039 0  " in="shadowComposite" />
    </filter>
    <g id="widget72">
      <path d="M 710 468  A 3 3 0 0 1 713 465 L 967 465  A 3 3 0 0 1 970 468 L 970 528  A 3 3 0 0 1 967 531 L 713 531  A 3 3 0 0 1 710 528 L 710 468  Z " fill-rule="nonzero" fill="#ffffff" stroke="none" />
      <path d="M 709.5 468  A 3.5 3.5 0 0 1 713 464.5 L 967 464.5  A 3.5 3.5 0 0 1 970.5 468 L 970.5 528  A 3.5 3.5 0 0 1 967 531.5 L 713 531.5  A 3.5 3.5 0 0 1 709.5 528 L 709.5 468  Z " stroke-width="1" stroke="#797979" fill="none" stroke-opacity="0.196078431372549" />
    </g>
  </defs>
  <g transform="matrix(1 0 0 1 -709 -464 )">
    <use xlink:href="#widget72" filter="url(#filter71)" />
    <use xlink:href="#widget72" />
  </g>
</svg>