<?xml version="1.0" encoding="utf-8"?>
<svg version="1.1" xmlns:xlink="http://www.w3.org/1999/xlink" width="196px" height="106px" xmlns="http://www.w3.org/2000/svg">
  <defs>
    <filter x="1103px" y="475px" width="196px" height="106px" filterUnits="userSpaceOnUse" id="filter165">
      <feOffset dx="5" dy="5" in="SourceAlpha" result="shadowOffsetInner" />
      <feGaussianBlur stdDeviation="2.5" in="shadowOffsetInner" result="shadowGaussian" />
      <feComposite in2="shadowGaussian" operator="atop" in="SourceAlpha" result="shadowComposite" />
      <feColorMatrix type="matrix" values="0 0 0 0 0  0 0 0 0 0  0 0 0 0 0  0 0 0 0.156862745098039 0  " in="shadowComposite" />
    </filter>
    <g id="widget166">
      <path d="M 1104 479  A 3 3 0 0 1 1107 476 L 1285 476  A 3 3 0 0 1 1288 479 L 1288 567  A 3 3 0 0 1 1285 570 L 1107 570  A 3 3 0 0 1 1104 567 L 1104 479  Z " fill-rule="nonzero" fill="#ffffff" stroke="none" />
      <path d="M 1103.5 479  A 3.5 3.5 0 0 1 1107 475.5 L 1285 475.5  A 3.5 3.5 0 0 1 1288.5 479 L 1288.5 567  A 3.5 3.5 0 0 1 1285 570.5 L 1107 570.5  A 3.5 3.5 0 0 1 1103.5 567 L 1103.5 479  Z " stroke-width="1" stroke="#797979" fill="none" stroke-opacity="0.196078431372549" />
    </g>
  </defs>
  <g transform="matrix(1 0 0 1 -1103 -475 )">
    <use xlink:href="#widget166" filter="url(#filter165)" />
    <use xlink:href="#widget166" />
  </g>
</svg>