<?xml version="1.0" encoding="utf-8"?>
<svg version="1.1" xmlns:xlink="http://www.w3.org/1999/xlink" width="225px" height="72px" xmlns="http://www.w3.org/2000/svg">
  <defs>
    <filter x="1544px" y="170px" width="225px" height="72px" filterUnits="userSpaceOnUse" id="filter237">
      <feOffset dx="5" dy="5" in="SourceAlpha" result="shadowOffsetInner" />
      <feGaussianBlur stdDeviation="2.5" in="shadowOffsetInner" result="shadowGaussian" />
      <feComposite in2="shadowGaussian" operator="atop" in="SourceAlpha" result="shadowComposite" />
      <feColorMatrix type="matrix" values="0 0 0 0 0  0 0 0 0 0  0 0 0 0 0  0 0 0 0.156862745098039 0  " in="shadowComposite" />
    </filter>
    <g id="widget238">
      <path d="M 1545 174  A 3 3 0 0 1 1548 171 L 1755 171  A 3 3 0 0 1 1758 174 L 1758 228  A 3 3 0 0 1 1755 231 L 1548 231  A 3 3 0 0 1 1545 228 L 1545 174  Z " fill-rule="nonzero" fill="#ffffff" stroke="none" />
      <path d="M 1544.5 174  A 3.5 3.5 0 0 1 1548 170.5 L 1755 170.5  A 3.5 3.5 0 0 1 1758.5 174 L 1758.5 228  A 3.5 3.5 0 0 1 1755 231.5 L 1548 231.5  A 3.5 3.5 0 0 1 1544.5 228 L 1544.5 174  Z " stroke-width="1" stroke="#797979" fill="none" stroke-opacity="0.196078431372549" />
    </g>
  </defs>
  <g transform="matrix(1 0 0 1 -1544 -170 )">
    <use xlink:href="#widget238" filter="url(#filter237)" />
    <use xlink:href="#widget238" />
  </g>
</svg>