<?xml version="1.0" encoding="utf-8"?>
<svg version="1.1" xmlns:xlink="http://www.w3.org/1999/xlink" width="137px" height="183px" xmlns="http://www.w3.org/2000/svg">
  <defs>
    <filter x="1679px" y="23px" width="137px" height="183px" filterUnits="userSpaceOnUse" id="filter103">
      <feOffset dx="5" dy="5" in="SourceAlpha" result="shadowOffsetInner" />
      <feGaussianBlur stdDeviation="2.5" in="shadowOffsetInner" result="shadowGaussian" />
      <feComposite in2="shadowGaussian" operator="atop" in="SourceAlpha" result="shadowComposite" />
      <feColorMatrix type="matrix" values="0 0 0 0 0  0 0 0 0 0  0 0 0 0 0  0 0 0 0.156862745098039 0  " in="shadowComposite" />
    </filter>
    <g id="widget104">
      <path d="M 1680 27  A 3 3 0 0 1 1683 24 L 1802 24  A 3 3 0 0 1 1805 27 L 1805 192  A 3 3 0 0 1 1802 195 L 1683 195  A 3 3 0 0 1 1680 192 L 1680 27  Z " fill-rule="nonzero" fill="#ffffff" stroke="none" />
      <path d="M 1679.5 27  A 3.5 3.5 0 0 1 1683 23.5 L 1802 23.5  A 3.5 3.5 0 0 1 1805.5 27 L 1805.5 192  A 3.5 3.5 0 0 1 1802 195.5 L 1683 195.5  A 3.5 3.5 0 0 1 1679.5 192 L 1679.5 27  Z " stroke-width="1" stroke="#797979" fill="none" stroke-opacity="0.196078431372549" />
    </g>
  </defs>
  <g transform="matrix(1 0 0 1 -1679 -23 )">
    <use xlink:href="#widget104" filter="url(#filter103)" />
    <use xlink:href="#widget104" />
  </g>
</svg>