<?xml version="1.0" encoding="utf-8"?>
<svg version="1.1" xmlns:xlink="http://www.w3.org/1999/xlink" width="177px" height="78px" xmlns="http://www.w3.org/2000/svg">
  <defs>
    <filter x="406px" y="40px" width="177px" height="78px" filterUnits="userSpaceOnUse" id="filter1">
      <feOffset dx="5" dy="5" in="SourceAlpha" result="shadowOffsetInner" />
      <feGaussianBlur stdDeviation="2.5" in="shadowOffsetInner" result="shadowGaussian" />
      <feComposite in2="shadowGaussian" operator="atop" in="SourceAlpha" result="shadowComposite" />
      <feColorMatrix type="matrix" values="0 0 0 0 0  0 0 0 0 0  0 0 0 0 0  0 0 0 0.156862745098039 0  " in="shadowComposite" />
    </filter>
    <g id="widget2">
      <path d="M 407 44  A 3 3 0 0 1 410 41 L 569 41  A 3 3 0 0 1 572 44 L 572 104  A 3 3 0 0 1 569 107 L 410 107  A 3 3 0 0 1 407 104 L 407 44  Z " fill-rule="nonzero" fill="#ffffff" stroke="none" />
      <path d="M 406.5 44  A 3.5 3.5 0 0 1 410 40.5 L 569 40.5  A 3.5 3.5 0 0 1 572.5 44 L 572.5 104  A 3.5 3.5 0 0 1 569 107.5 L 410 107.5  A 3.5 3.5 0 0 1 406.5 104 L 406.5 44  Z " stroke-width="1" stroke="#797979" fill="none" stroke-opacity="0.196078431372549" />
    </g>
  </defs>
  <g transform="matrix(1 0 0 1 -406 -40 )">
    <use xlink:href="#widget2" filter="url(#filter1)" />
    <use xlink:href="#widget2" />
  </g>
</svg>