<?xml version="1.0" encoding="utf-8"?>
<svg version="1.1" xmlns:xlink="http://www.w3.org/1999/xlink" width="251px" height="136px" xmlns="http://www.w3.org/2000/svg">
  <defs>
    <filter x="490px" y="471px" width="251px" height="136px" filterUnits="userSpaceOnUse" id="filter77">
      <feOffset dx="5" dy="5" in="SourceAlpha" result="shadowOffsetInner" />
      <feGaussianBlur stdDeviation="2.5" in="shadowOffsetInner" result="shadowGaussian" />
      <feComposite in2="shadowGaussian" operator="atop" in="SourceAlpha" result="shadowComposite" />
      <feColorMatrix type="matrix" values="0 0 0 0 0  0 0 0 0 0  0 0 0 0 0  0 0 0 0.156862745098039 0  " in="shadowComposite" />
    </filter>
    <g id="widget78">
      <path d="M 491 475  A 3 3 0 0 1 494 472 L 727 472  A 3 3 0 0 1 730 475 L 730 593  A 3 3 0 0 1 727 596 L 494 596  A 3 3 0 0 1 491 593 L 491 475  Z " fill-rule="nonzero" fill="#ffffff" stroke="none" />
      <path d="M 490.5 475  A 3.5 3.5 0 0 1 494 471.5 L 727 471.5  A 3.5 3.5 0 0 1 730.5 475 L 730.5 593  A 3.5 3.5 0 0 1 727 596.5 L 494 596.5  A 3.5 3.5 0 0 1 490.5 593 L 490.5 475  Z " stroke-width="1" stroke="#797979" fill="none" stroke-opacity="0.196078431372549" />
    </g>
  </defs>
  <g transform="matrix(1 0 0 1 -490 -471 )">
    <use xlink:href="#widget78" filter="url(#filter77)" />
    <use xlink:href="#widget78" />
  </g>
</svg>