<?xml version="1.0" encoding="utf-8"?>
<svg version="1.1" xmlns:xlink="http://www.w3.org/1999/xlink" width="196px" height="90px" xmlns="http://www.w3.org/2000/svg">
  <defs>
    <filter x="1170px" y="356px" width="196px" height="90px" filterUnits="userSpaceOnUse" id="filter233">
      <feOffset dx="5" dy="5" in="SourceAlpha" result="shadowOffsetInner" />
      <feGaussianBlur stdDeviation="2.5" in="shadowOffsetInner" result="shadowGaussian" />
      <feComposite in2="shadowGaussian" operator="atop" in="SourceAlpha" result="shadowComposite" />
      <feColorMatrix type="matrix" values="0 0 0 0 0  0 0 0 0 0  0 0 0 0 0  0 0 0 0.156862745098039 0  " in="shadowComposite" />
    </filter>
    <g id="widget234">
      <path d="M 1171 360  A 3 3 0 0 1 1174 357 L 1352 357  A 3 3 0 0 1 1355 360 L 1355 432  A 3 3 0 0 1 1352 435 L 1174 435  A 3 3 0 0 1 1171 432 L 1171 360  Z " fill-rule="nonzero" fill="#ffffff" stroke="none" />
      <path d="M 1170.5 360  A 3.5 3.5 0 0 1 1174 356.5 L 1352 356.5  A 3.5 3.5 0 0 1 1355.5 360 L 1355.5 432  A 3.5 3.5 0 0 1 1352 435.5 L 1174 435.5  A 3.5 3.5 0 0 1 1170.5 432 L 1170.5 360  Z " stroke-width="1" stroke="#797979" fill="none" stroke-opacity="0.196078431372549" />
    </g>
  </defs>
  <g transform="matrix(1 0 0 1 -1170 -356 )">
    <use xlink:href="#widget234" filter="url(#filter233)" />
    <use xlink:href="#widget234" />
  </g>
</svg>