<?xml version="1.0" encoding="utf-8"?>
<svg version="1.1" xmlns:xlink="http://www.w3.org/1999/xlink" width="196px" height="172px" xmlns="http://www.w3.org/2000/svg">
  <defs>
    <filter x="415px" y="185px" width="196px" height="172px" filterUnits="userSpaceOnUse" id="filter207">
      <feOffset dx="5" dy="5" in="SourceAlpha" result="shadowOffsetInner" />
      <feGaussianBlur stdDeviation="2.5" in="shadowOffsetInner" result="shadowGaussian" />
      <feComposite in2="shadowGaussian" operator="atop" in="SourceAlpha" result="shadowComposite" />
      <feColorMatrix type="matrix" values="0 0 0 0 0  0 0 0 0 0  0 0 0 0 0  0 0 0 0.156862745098039 0  " in="shadowComposite" />
    </filter>
    <g id="widget208">
      <path d="M 416 189  A 3 3 0 0 1 419 186 L 597 186  A 3 3 0 0 1 600 189 L 600 343  A 3 3 0 0 1 597 346 L 419 346  A 3 3 0 0 1 416 343 L 416 189  Z " fill-rule="nonzero" fill="#ffffff" stroke="none" />
      <path d="M 415.5 189  A 3.5 3.5 0 0 1 419 185.5 L 597 185.5  A 3.5 3.5 0 0 1 600.5 189 L 600.5 343  A 3.5 3.5 0 0 1 597 346.5 L 419 346.5  A 3.5 3.5 0 0 1 415.5 343 L 415.5 189  Z " stroke-width="1" stroke="#797979" fill="none" stroke-opacity="0.196078431372549" />
    </g>
  </defs>
  <g transform="matrix(1 0 0 1 -415 -185 )">
    <use xlink:href="#widget208" filter="url(#filter207)" />
    <use xlink:href="#widget208" />
  </g>
</svg>