<?xml version="1.0" encoding="utf-8"?>
<svg version="1.1" xmlns:xlink="http://www.w3.org/1999/xlink" width="196px" height="87px" xmlns="http://www.w3.org/2000/svg">
  <defs>
    <filter x="1727px" y="59px" width="196px" height="87px" filterUnits="userSpaceOnUse" id="filter223">
      <feOffset dx="5" dy="5" in="SourceAlpha" result="shadowOffsetInner" />
      <feGaussianBlur stdDeviation="2.5" in="shadowOffsetInner" result="shadowGaussian" />
      <feComposite in2="shadowGaussian" operator="atop" in="SourceAlpha" result="shadowComposite" />
      <feColorMatrix type="matrix" values="0 0 0 0 0  0 0 0 0 0  0 0 0 0 0  0 0 0 0.156862745098039 0  " in="shadowComposite" />
    </filter>
    <g id="widget224">
      <path d="M 1728 63  A 3 3 0 0 1 1731 60 L 1909 60  A 3 3 0 0 1 1912 63 L 1912 132  A 3 3 0 0 1 1909 135 L 1731 135  A 3 3 0 0 1 1728 132 L 1728 63  Z " fill-rule="nonzero" fill="#ffffff" stroke="none" />
      <path d="M 1727.5 63  A 3.5 3.5 0 0 1 1731 59.5 L 1909 59.5  A 3.5 3.5 0 0 1 1912.5 63 L 1912.5 132  A 3.5 3.5 0 0 1 1909 135.5 L 1731 135.5  A 3.5 3.5 0 0 1 1727.5 132 L 1727.5 63  Z " stroke-width="1" stroke="#797979" fill="none" stroke-opacity="0.196078431372549" />
    </g>
  </defs>
  <g transform="matrix(1 0 0 1 -1727 -59 )">
    <use xlink:href="#widget224" filter="url(#filter223)" />
    <use xlink:href="#widget224" />
  </g>
</svg>