<?xml version="1.0" encoding="utf-8"?>
<svg version="1.1" xmlns:xlink="http://www.w3.org/1999/xlink" width="196px" height="65px" xmlns="http://www.w3.org/2000/svg">
  <defs>
    <filter x="921px" y="179px" width="196px" height="65px" filterUnits="userSpaceOnUse" id="filter235">
      <feOffset dx="5" dy="5" in="SourceAlpha" result="shadowOffsetInner" />
      <feGaussianBlur stdDeviation="2.5" in="shadowOffsetInner" result="shadowGaussian" />
      <feComposite in2="shadowGaussian" operator="atop" in="SourceAlpha" result="shadowComposite" />
      <feColorMatrix type="matrix" values="0 0 0 0 0  0 0 0 0 0  0 0 0 0 0  0 0 0 0.156862745098039 0  " in="shadowComposite" />
    </filter>
    <g id="widget236">
      <path d="M 922 183  A 3 3 0 0 1 925 180 L 1103 180  A 3 3 0 0 1 1106 183 L 1106 230  A 3 3 0 0 1 1103 233 L 925 233  A 3 3 0 0 1 922 230 L 922 183  Z " fill-rule="nonzero" fill="#ffffff" stroke="none" />
      <path d="M 921.5 183  A 3.5 3.5 0 0 1 925 179.5 L 1103 179.5  A 3.5 3.5 0 0 1 1106.5 183 L 1106.5 230  A 3.5 3.5 0 0 1 1103 233.5 L 925 233.5  A 3.5 3.5 0 0 1 921.5 230 L 921.5 183  Z " stroke-width="1" stroke="#797979" fill="none" stroke-opacity="0.196078431372549" />
    </g>
  </defs>
  <g transform="matrix(1 0 0 1 -921 -179 )">
    <use xlink:href="#widget236" filter="url(#filter235)" />
    <use xlink:href="#widget236" />
  </g>
</svg>