<?xml version="1.0" encoding="utf-8"?>
<svg version="1.1" xmlns:xlink="http://www.w3.org/1999/xlink" width="177px" height="109px" xmlns="http://www.w3.org/2000/svg">
  <defs>
    <filter x="1231px" y="186px" width="177px" height="109px" filterUnits="userSpaceOnUse" id="filter91">
      <feOffset dx="5" dy="5" in="SourceAlpha" result="shadowOffsetInner" />
      <feGaussianBlur stdDeviation="2.5" in="shadowOffsetInner" result="shadowGaussian" />
      <feComposite in2="shadowGaussian" operator="atop" in="SourceAlpha" result="shadowComposite" />
      <feColorMatrix type="matrix" values="0 0 0 0 0  0 0 0 0 0  0 0 0 0 0  0 0 0 0.156862745098039 0  " in="shadowComposite" />
    </filter>
    <g id="widget92">
      <path d="M 1232 190  A 3 3 0 0 1 1235 187 L 1394 187  A 3 3 0 0 1 1397 190 L 1397 281  A 3 3 0 0 1 1394 284 L 1235 284  A 3 3 0 0 1 1232 281 L 1232 190  Z " fill-rule="nonzero" fill="#ffffff" stroke="none" />
      <path d="M 1231.5 190  A 3.5 3.5 0 0 1 1235 186.5 L 1394 186.5  A 3.5 3.5 0 0 1 1397.5 190 L 1397.5 281  A 3.5 3.5 0 0 1 1394 284.5 L 1235 284.5  A 3.5 3.5 0 0 1 1231.5 281 L 1231.5 190  Z " stroke-width="1" stroke="#797979" fill="none" stroke-opacity="0.196078431372549" />
    </g>
  </defs>
  <g transform="matrix(1 0 0 1 -1231 -186 )">
    <use xlink:href="#widget92" filter="url(#filter91)" />
    <use xlink:href="#widget92" />
  </g>
</svg>