<?xml version="1.0" encoding="utf-8"?>
<svg version="1.1" xmlns:xlink="http://www.w3.org/1999/xlink" width="272px" height="106px" xmlns="http://www.w3.org/2000/svg">
  <defs>
    <filter x="633px" y="62px" width="272px" height="106px" filterUnits="userSpaceOnUse" id="filter61">
      <feOffset dx="5" dy="5" in="SourceAlpha" result="shadowOffsetInner" />
      <feGaussianBlur stdDeviation="2.5" in="shadowOffsetInner" result="shadowGaussian" />
      <feComposite in2="shadowGaussian" operator="atop" in="SourceAlpha" result="shadowComposite" />
      <feColorMatrix type="matrix" values="0 0 0 0 0  0 0 0 0 0  0 0 0 0 0  0 0 0 0.156862745098039 0  " in="shadowComposite" />
    </filter>
    <g id="widget62">
      <path d="M 634 66  A 3 3 0 0 1 637 63 L 891 63  A 3 3 0 0 1 894 66 L 894 154  A 3 3 0 0 1 891 157 L 637 157  A 3 3 0 0 1 634 154 L 634 66  Z " fill-rule="nonzero" fill="#ffffff" stroke="none" />
      <path d="M 633.5 66  A 3.5 3.5 0 0 1 637 62.5 L 891 62.5  A 3.5 3.5 0 0 1 894.5 66 L 894.5 154  A 3.5 3.5 0 0 1 891 157.5 L 637 157.5  A 3.5 3.5 0 0 1 633.5 154 L 633.5 66  Z " stroke-width="1" stroke="#797979" fill="none" stroke-opacity="0.196078431372549" />
    </g>
  </defs>
  <g transform="matrix(1 0 0 1 -633 -62 )">
    <use xlink:href="#widget62" filter="url(#filter61)" />
    <use xlink:href="#widget62" />
  </g>
</svg>