<?xml version="1.0" encoding="utf-8"?>
<svg version="1.1" xmlns:xlink="http://www.w3.org/1999/xlink" width="196px" height="80px" xmlns="http://www.w3.org/2000/svg">
  <defs>
    <filter x="1677px" y="608px" width="196px" height="80px" filterUnits="userSpaceOnUse" id="filter229">
      <feOffset dx="5" dy="5" in="SourceAlpha" result="shadowOffsetInner" />
      <feGaussianBlur stdDeviation="2.5" in="shadowOffsetInner" result="shadowGaussian" />
      <feComposite in2="shadowGaussian" operator="atop" in="SourceAlpha" result="shadowComposite" />
      <feColorMatrix type="matrix" values="0 0 0 0 0  0 0 0 0 0  0 0 0 0 0  0 0 0 0.156862745098039 0  " in="shadowComposite" />
    </filter>
    <g id="widget230">
      <path d="M 1678 612  A 3 3 0 0 1 1681 609 L 1859 609  A 3 3 0 0 1 1862 612 L 1862 674  A 3 3 0 0 1 1859 677 L 1681 677  A 3 3 0 0 1 1678 674 L 1678 612  Z " fill-rule="nonzero" fill="#ffffff" stroke="none" />
      <path d="M 1677.5 612  A 3.5 3.5 0 0 1 1681 608.5 L 1859 608.5  A 3.5 3.5 0 0 1 1862.5 612 L 1862.5 674  A 3.5 3.5 0 0 1 1859 677.5 L 1681 677.5  A 3.5 3.5 0 0 1 1677.5 674 L 1677.5 612  Z " stroke-width="1" stroke="#797979" fill="none" stroke-opacity="0.196078431372549" />
    </g>
  </defs>
  <g transform="matrix(1 0 0 1 -1677 -608 )">
    <use xlink:href="#widget230" filter="url(#filter229)" />
    <use xlink:href="#widget230" />
  </g>
</svg>