<?xml version="1.0" encoding="utf-8"?>
<svg version="1.1" xmlns:xlink="http://www.w3.org/1999/xlink" width="247px" height="125px" xmlns="http://www.w3.org/2000/svg">
  <defs>
    <filter x="1507px" y="62px" width="247px" height="125px" filterUnits="userSpaceOnUse" id="filter113">
      <feOffset dx="5" dy="5" in="SourceAlpha" result="shadowOffsetInner" />
      <feGaussianBlur stdDeviation="2.5" in="shadowOffsetInner" result="shadowGaussian" />
      <feComposite in2="shadowGaussian" operator="atop" in="SourceAlpha" result="shadowComposite" />
      <feColorMatrix type="matrix" values="0 0 0 0 0  0 0 0 0 0  0 0 0 0 0  0 0 0 0.156862745098039 0  " in="shadowComposite" />
    </filter>
    <g id="widget114">
      <path d="M 1508 66  A 3 3 0 0 1 1511 63 L 1740 63  A 3 3 0 0 1 1743 66 L 1743 173  A 3 3 0 0 1 1740 176 L 1511 176  A 3 3 0 0 1 1508 173 L 1508 66  Z " fill-rule="nonzero" fill="#ffffff" stroke="none" />
      <path d="M 1507.5 66  A 3.5 3.5 0 0 1 1511 62.5 L 1740 62.5  A 3.5 3.5 0 0 1 1743.5 66 L 1743.5 173  A 3.5 3.5 0 0 1 1740 176.5 L 1511 176.5  A 3.5 3.5 0 0 1 1507.5 173 L 1507.5 66  Z " stroke-width="1" stroke="#797979" fill="none" stroke-opacity="0.196078431372549" />
    </g>
  </defs>
  <g transform="matrix(1 0 0 1 -1507 -62 )">
    <use xlink:href="#widget114" filter="url(#filter113)" />
    <use xlink:href="#widget114" />
  </g>
</svg>