<?xml version="1.0" encoding="utf-8"?>
<svg version="1.1" xmlns:xlink="http://www.w3.org/1999/xlink" width="177px" height="169px" xmlns="http://www.w3.org/2000/svg">
  <defs>
    <filter x="1182px" y="197px" width="177px" height="169px" filterUnits="userSpaceOnUse" id="filter47">
      <feOffset dx="5" dy="5" in="SourceAlpha" result="shadowOffsetInner" />
      <feGaussianBlur stdDeviation="2.5" in="shadowOffsetInner" result="shadowGaussian" />
      <feComposite in2="shadowGaussian" operator="atop" in="SourceAlpha" result="shadowComposite" />
      <feColorMatrix type="matrix" values="0 0 0 0 0  0 0 0 0 0  0 0 0 0 0  0 0 0 0.156862745098039 0  " in="shadowComposite" />
    </filter>
    <g id="widget48">
      <path d="M 1183 201  A 3 3 0 0 1 1186 198 L 1345 198  A 3 3 0 0 1 1348 201 L 1348 352  A 3 3 0 0 1 1345 355 L 1186 355  A 3 3 0 0 1 1183 352 L 1183 201  Z " fill-rule="nonzero" fill="#ffffff" stroke="none" />
      <path d="M 1182.5 201  A 3.5 3.5 0 0 1 1186 197.5 L 1345 197.5  A 3.5 3.5 0 0 1 1348.5 201 L 1348.5 352  A 3.5 3.5 0 0 1 1345 355.5 L 1186 355.5  A 3.5 3.5 0 0 1 1182.5 352 L 1182.5 201  Z " stroke-width="1" stroke="#797979" fill="none" stroke-opacity="0.196078431372549" />
    </g>
  </defs>
  <g transform="matrix(1 0 0 1 -1182 -197 )">
    <use xlink:href="#widget48" filter="url(#filter47)" />
    <use xlink:href="#widget48" />
  </g>
</svg>