<?xml version="1.0" encoding="utf-8"?>
<svg version="1.1" xmlns:xlink="http://www.w3.org/1999/xlink" width="177px" height="94px" xmlns="http://www.w3.org/2000/svg">
  <defs>
    <filter x="1502px" y="358px" width="177px" height="94px" filterUnits="userSpaceOnUse" id="filter127">
      <feOffset dx="5" dy="5" in="SourceAlpha" result="shadowOffsetInner" />
      <feGaussianBlur stdDeviation="2.5" in="shadowOffsetInner" result="shadowGaussian" />
      <feComposite in2="shadowGaussian" operator="atop" in="SourceAlpha" result="shadowComposite" />
      <feColorMatrix type="matrix" values="0 0 0 0 0  0 0 0 0 0  0 0 0 0 0  0 0 0 0.156862745098039 0  " in="shadowComposite" />
    </filter>
    <g id="widget128">
      <path d="M 1503 362  A 3 3 0 0 1 1506 359 L 1665 359  A 3 3 0 0 1 1668 362 L 1668 438  A 3 3 0 0 1 1665 441 L 1506 441  A 3 3 0 0 1 1503 438 L 1503 362  Z " fill-rule="nonzero" fill="#ffffff" stroke="none" />
      <path d="M 1502.5 362  A 3.5 3.5 0 0 1 1506 358.5 L 1665 358.5  A 3.5 3.5 0 0 1 1668.5 362 L 1668.5 438  A 3.5 3.5 0 0 1 1665 441.5 L 1506 441.5  A 3.5 3.5 0 0 1 1502.5 438 L 1502.5 362  Z " stroke-width="1" stroke="#797979" fill="none" stroke-opacity="0.196078431372549" />
    </g>
  </defs>
  <g transform="matrix(1 0 0 1 -1502 -358 )">
    <use xlink:href="#widget128" filter="url(#filter127)" />
    <use xlink:href="#widget128" />
  </g>
</svg>