<?xml version="1.0" encoding="utf-8"?>
<svg version="1.1" xmlns:xlink="http://www.w3.org/1999/xlink" width="220px" height="148px" xmlns="http://www.w3.org/2000/svg">
  <defs>
    <filter x="1505px" y="485px" width="220px" height="148px" filterUnits="userSpaceOnUse" id="filter59">
      <feOffset dx="5" dy="5" in="SourceAlpha" result="shadowOffsetInner" />
      <feGaussianBlur stdDeviation="2.5" in="shadowOffsetInner" result="shadowGaussian" />
      <feComposite in2="shadowGaussian" operator="atop" in="SourceAlpha" result="shadowComposite" />
      <feColorMatrix type="matrix" values="0 0 0 0 0  0 0 0 0 0  0 0 0 0 0  0 0 0 0.156862745098039 0  " in="shadowComposite" />
    </filter>
    <g id="widget60">
      <path d="M 1506 489  A 3 3 0 0 1 1509 486 L 1711 486  A 3 3 0 0 1 1714 489 L 1714 619  A 3 3 0 0 1 1711 622 L 1509 622  A 3 3 0 0 1 1506 619 L 1506 489  Z " fill-rule="nonzero" fill="#ffffff" stroke="none" />
      <path d="M 1505.5 489  A 3.5 3.5 0 0 1 1509 485.5 L 1711 485.5  A 3.5 3.5 0 0 1 1714.5 489 L 1714.5 619  A 3.5 3.5 0 0 1 1711 622.5 L 1509 622.5  A 3.5 3.5 0 0 1 1505.5 619 L 1505.5 489  Z " stroke-width="1" stroke="#797979" fill="none" stroke-opacity="0.196078431372549" />
    </g>
  </defs>
  <g transform="matrix(1 0 0 1 -1505 -485 )">
    <use xlink:href="#widget60" filter="url(#filter59)" />
    <use xlink:href="#widget60" />
  </g>
</svg>