<?xml version="1.0" encoding="utf-8"?>
<svg version="1.1" xmlns:xlink="http://www.w3.org/1999/xlink" width="196px" height="78px" xmlns="http://www.w3.org/2000/svg">
  <defs>
    <filter x="60px" y="100px" width="196px" height="78px" filterUnits="userSpaceOnUse" id="filter157">
      <feOffset dx="5" dy="5" in="SourceAlpha" result="shadowOffsetInner" />
      <feGaussianBlur stdDeviation="2.5" in="shadowOffsetInner" result="shadowGaussian" />
      <feComposite in2="shadowGaussian" operator="atop" in="SourceAlpha" result="shadowComposite" />
      <feColorMatrix type="matrix" values="0 0 0 0 0  0 0 0 0 0  0 0 0 0 0  0 0 0 0.156862745098039 0  " in="shadowComposite" />
    </filter>
    <g id="widget158">
      <path d="M 61 104  A 3 3 0 0 1 64 101 L 242 101  A 3 3 0 0 1 245 104 L 245 164  A 3 3 0 0 1 242 167 L 64 167  A 3 3 0 0 1 61 164 L 61 104  Z " fill-rule="nonzero" fill="#ffffff" stroke="none" />
      <path d="M 60.5 104  A 3.5 3.5 0 0 1 64 100.5 L 242 100.5  A 3.5 3.5 0 0 1 245.5 104 L 245.5 164  A 3.5 3.5 0 0 1 242 167.5 L 64 167.5  A 3.5 3.5 0 0 1 60.5 164 L 60.5 104  Z " stroke-width="1" stroke="#797979" fill="none" stroke-opacity="0.196078431372549" />
    </g>
  </defs>
  <g transform="matrix(1 0 0 1 -60 -100 )">
    <use xlink:href="#widget158" filter="url(#filter157)" />
    <use xlink:href="#widget158" />
  </g>
</svg>