<?xml version="1.0" encoding="utf-8"?>
<svg version="1.1" xmlns:xlink="http://www.w3.org/1999/xlink" width="217px" height="192px" xmlns="http://www.w3.org/2000/svg">
  <defs>
    <filter x="1160px" y="392px" width="217px" height="192px" filterUnits="userSpaceOnUse" id="filter143">
      <feOffset dx="5" dy="5" in="SourceAlpha" result="shadowOffsetInner" />
      <feGaussianBlur stdDeviation="2.5" in="shadowOffsetInner" result="shadowGaussian" />
      <feComposite in2="shadowGaussian" operator="atop" in="SourceAlpha" result="shadowComposite" />
      <feColorMatrix type="matrix" values="0 0 0 0 0  0 0 0 0 0  0 0 0 0 0  0 0 0 0.156862745098039 0  " in="shadowComposite" />
    </filter>
    <g id="widget144">
      <path d="M 1161 396  A 3 3 0 0 1 1164 393 L 1363 393  A 3 3 0 0 1 1366 396 L 1366 570  A 3 3 0 0 1 1363 573 L 1164 573  A 3 3 0 0 1 1161 570 L 1161 396  Z " fill-rule="nonzero" fill="#ffffff" stroke="none" />
      <path d="M 1160.5 396  A 3.5 3.5 0 0 1 1164 392.5 L 1363 392.5  A 3.5 3.5 0 0 1 1366.5 396 L 1366.5 570  A 3.5 3.5 0 0 1 1363 573.5 L 1164 573.5  A 3.5 3.5 0 0 1 1160.5 570 L 1160.5 396  Z " stroke-width="1" stroke="#797979" fill="none" stroke-opacity="0.196078431372549" />
    </g>
  </defs>
  <g transform="matrix(1 0 0 1 -1160 -392 )">
    <use xlink:href="#widget144" filter="url(#filter143)" />
    <use xlink:href="#widget144" />
  </g>
</svg>