<?xml version="1.0" encoding="utf-8"?>
<svg version="1.1" xmlns:xlink="http://www.w3.org/1999/xlink" width="196px" height="109px" xmlns="http://www.w3.org/2000/svg">
  <defs>
    <filter x="229px" y="777px" width="196px" height="109px" filterUnits="userSpaceOnUse" id="filter173">
      <feOffset dx="5" dy="5" in="SourceAlpha" result="shadowOffsetInner" />
      <feGaussianBlur stdDeviation="2.5" in="shadowOffsetInner" result="shadowGaussian" />
      <feComposite in2="shadowGaussian" operator="atop" in="SourceAlpha" result="shadowComposite" />
      <feColorMatrix type="matrix" values="0 0 0 0 0  0 0 0 0 0  0 0 0 0 0  0 0 0 0.156862745098039 0  " in="shadowComposite" />
    </filter>
    <g id="widget174">
      <path d="M 230 781  A 3 3 0 0 1 233 778 L 411 778  A 3 3 0 0 1 414 781 L 414 872  A 3 3 0 0 1 411 875 L 233 875  A 3 3 0 0 1 230 872 L 230 781  Z " fill-rule="nonzero" fill="#ffffff" stroke="none" />
      <path d="M 229.5 781  A 3.5 3.5 0 0 1 233 777.5 L 411 777.5  A 3.5 3.5 0 0 1 414.5 781 L 414.5 872  A 3.5 3.5 0 0 1 411 875.5 L 233 875.5  A 3.5 3.5 0 0 1 229.5 872 L 229.5 781  Z " stroke-width="1" stroke="#797979" fill="none" stroke-opacity="0.196078431372549" />
    </g>
  </defs>
  <g transform="matrix(1 0 0 1 -229 -777 )">
    <use xlink:href="#widget174" filter="url(#filter173)" />
    <use xlink:href="#widget174" />
  </g>
</svg>