<?xml version="1.0" encoding="utf-8"?>
<svg version="1.1" xmlns:xlink="http://www.w3.org/1999/xlink" width="172px" height="83px" xmlns="http://www.w3.org/2000/svg">
  <defs>
    <filter x="963px" y="529px" width="172px" height="83px" filterUnits="userSpaceOnUse" id="filter101">
      <feOffset dx="5" dy="5" in="SourceAlpha" result="shadowOffsetInner" />
      <feGaussianBlur stdDeviation="2.5" in="shadowOffsetInner" result="shadowGaussian" />
      <feComposite in2="shadowGaussian" operator="atop" in="SourceAlpha" result="shadowComposite" />
      <feColorMatrix type="matrix" values="0 0 0 0 0  0 0 0 0 0  0 0 0 0 0  0 0 0 0.156862745098039 0  " in="shadowComposite" />
    </filter>
    <g id="widget102">
      <path d="M 964 533  A 3 3 0 0 1 967 530 L 1121 530  A 3 3 0 0 1 1124 533 L 1124 598  A 3 3 0 0 1 1121 601 L 967 601  A 3 3 0 0 1 964 598 L 964 533  Z " fill-rule="nonzero" fill="#ffffff" stroke="none" />
      <path d="M 963.5 533  A 3.5 3.5 0 0 1 967 529.5 L 1121 529.5  A 3.5 3.5 0 0 1 1124.5 533 L 1124.5 598  A 3.5 3.5 0 0 1 1121 601.5 L 967 601.5  A 3.5 3.5 0 0 1 963.5 598 L 963.5 533  Z " stroke-width="1" stroke="#797979" fill="none" stroke-opacity="0.196078431372549" />
    </g>
  </defs>
  <g transform="matrix(1 0 0 1 -963 -529 )">
    <use xlink:href="#widget102" filter="url(#filter101)" />
    <use xlink:href="#widget102" />
  </g>
</svg>