<?xml version="1.0" encoding="utf-8"?>
<svg version="1.1" xmlns:xlink="http://www.w3.org/1999/xlink" width="215px" height="98px" xmlns="http://www.w3.org/2000/svg">
  <defs>
    <filter x="463px" y="73px" width="215px" height="98px" filterUnits="userSpaceOnUse" id="filter203">
      <feOffset dx="5" dy="5" in="SourceAlpha" result="shadowOffsetInner" />
      <feGaussianBlur stdDeviation="2.5" in="shadowOffsetInner" result="shadowGaussian" />
      <feComposite in2="shadowGaussian" operator="atop" in="SourceAlpha" result="shadowComposite" />
      <feColorMatrix type="matrix" values="0 0 0 0 0  0 0 0 0 0  0 0 0 0 0  0 0 0 0.156862745098039 0  " in="shadowComposite" />
    </filter>
    <g id="widget204">
      <path d="M 464 77  A 3 3 0 0 1 467 74 L 664 74  A 3 3 0 0 1 667 77 L 667 157  A 3 3 0 0 1 664 160 L 467 160  A 3 3 0 0 1 464 157 L 464 77  Z " fill-rule="nonzero" fill="#ffffff" stroke="none" />
      <path d="M 463.5 77  A 3.5 3.5 0 0 1 467 73.5 L 664 73.5  A 3.5 3.5 0 0 1 667.5 77 L 667.5 157  A 3.5 3.5 0 0 1 664 160.5 L 467 160.5  A 3.5 3.5 0 0 1 463.5 157 L 463.5 77  Z " stroke-width="1" stroke="#797979" fill="none" stroke-opacity="0.196078431372549" />
    </g>
  </defs>
  <g transform="matrix(1 0 0 1 -463 -73 )">
    <use xlink:href="#widget204" filter="url(#filter203)" />
    <use xlink:href="#widget204" />
  </g>
</svg>