<?xml version="1.0" encoding="utf-8"?>
<svg version="1.1" xmlns:xlink="http://www.w3.org/1999/xlink" width="196px" height="170px" xmlns="http://www.w3.org/2000/svg">
  <defs>
    <filter x="427px" y="167px" width="196px" height="170px" filterUnits="userSpaceOnUse" id="filter213">
      <feOffset dx="5" dy="5" in="SourceAlpha" result="shadowOffsetInner" />
      <feGaussianBlur stdDeviation="2.5" in="shadowOffsetInner" result="shadowGaussian" />
      <feComposite in2="shadowGaussian" operator="atop" in="SourceAlpha" result="shadowComposite" />
      <feColorMatrix type="matrix" values="0 0 0 0 0  0 0 0 0 0  0 0 0 0 0  0 0 0 0.156862745098039 0  " in="shadowComposite" />
    </filter>
    <g id="widget214">
      <path d="M 428 171  A 3 3 0 0 1 431 168 L 609 168  A 3 3 0 0 1 612 171 L 612 323  A 3 3 0 0 1 609 326 L 431 326  A 3 3 0 0 1 428 323 L 428 171  Z " fill-rule="nonzero" fill="#ffffff" stroke="none" />
      <path d="M 427.5 171  A 3.5 3.5 0 0 1 431 167.5 L 609 167.5  A 3.5 3.5 0 0 1 612.5 171 L 612.5 323  A 3.5 3.5 0 0 1 609 326.5 L 431 326.5  A 3.5 3.5 0 0 1 427.5 323 L 427.5 171  Z " stroke-width="1" stroke="#797979" fill="none" stroke-opacity="0.196078431372549" />
    </g>
  </defs>
  <g transform="matrix(1 0 0 1 -427 -167 )">
    <use xlink:href="#widget214" filter="url(#filter213)" />
    <use xlink:href="#widget214" />
  </g>
</svg>