<?xml version="1.0" encoding="utf-8"?>
<svg version="1.1" xmlns:xlink="http://www.w3.org/1999/xlink" width="217px" height="140px" xmlns="http://www.w3.org/2000/svg">
  <defs>
    <filter x="979px" y="289px" width="217px" height="140px" filterUnits="userSpaceOnUse" id="filter139">
      <feOffset dx="5" dy="5" in="SourceAlpha" result="shadowOffsetInner" />
      <feGaussianBlur stdDeviation="2.5" in="shadowOffsetInner" result="shadowGaussian" />
      <feComposite in2="shadowGaussian" operator="atop" in="SourceAlpha" result="shadowComposite" />
      <feColorMatrix type="matrix" values="0 0 0 0 0  0 0 0 0 0  0 0 0 0 0  0 0 0 0.156862745098039 0  " in="shadowComposite" />
    </filter>
    <g id="widget140">
      <path d="M 980 293  A 3 3 0 0 1 983 290 L 1182 290  A 3 3 0 0 1 1185 293 L 1185 415  A 3 3 0 0 1 1182 418 L 983 418  A 3 3 0 0 1 980 415 L 980 293  Z " fill-rule="nonzero" fill="#ffffff" stroke="none" />
      <path d="M 979.5 293  A 3.5 3.5 0 0 1 983 289.5 L 1182 289.5  A 3.5 3.5 0 0 1 1185.5 293 L 1185.5 415  A 3.5 3.5 0 0 1 1182 418.5 L 983 418.5  A 3.5 3.5 0 0 1 979.5 415 L 979.5 293  Z " stroke-width="1" stroke="#797979" fill="none" stroke-opacity="0.196078431372549" />
    </g>
  </defs>
  <g transform="matrix(1 0 0 1 -979 -289 )">
    <use xlink:href="#widget140" filter="url(#filter139)" />
    <use xlink:href="#widget140" />
  </g>
</svg>