<?xml version="1.0" encoding="utf-8"?>
<svg version="1.1" xmlns:xlink="http://www.w3.org/1999/xlink" width="196px" height="336px" xmlns="http://www.w3.org/2000/svg">
  <defs>
    <filter x="615px" y="312px" width="196px" height="336px" filterUnits="userSpaceOnUse" id="filter163">
      <feOffset dx="5" dy="5" in="SourceAlpha" result="shadowOffsetInner" />
      <feGaussianBlur stdDeviation="2.5" in="shadowOffsetInner" result="shadowGaussian" />
      <feComposite in2="shadowGaussian" operator="atop" in="SourceAlpha" result="shadowComposite" />
      <feColorMatrix type="matrix" values="0 0 0 0 0  0 0 0 0 0  0 0 0 0 0  0 0 0 0.156862745098039 0  " in="shadowComposite" />
    </filter>
    <g id="widget164">
      <path d="M 616 316  A 3 3 0 0 1 619 313 L 797 313  A 3 3 0 0 1 800 316 L 800 634  A 3 3 0 0 1 797 637 L 619 637  A 3 3 0 0 1 616 634 L 616 316  Z " fill-rule="nonzero" fill="#ffffff" stroke="none" />
      <path d="M 615.5 316  A 3.5 3.5 0 0 1 619 312.5 L 797 312.5  A 3.5 3.5 0 0 1 800.5 316 L 800.5 634  A 3.5 3.5 0 0 1 797 637.5 L 619 637.5  A 3.5 3.5 0 0 1 615.5 634 L 615.5 316  Z " stroke-width="1" stroke="#797979" fill="none" stroke-opacity="0.196078431372549" />
    </g>
  </defs>
  <g transform="matrix(1 0 0 1 -615 -312 )">
    <use xlink:href="#widget164" filter="url(#filter163)" />
    <use xlink:href="#widget164" />
  </g>
</svg>