<?xml version="1.0" encoding="utf-8"?>
<svg version="1.1" xmlns:xlink="http://www.w3.org/1999/xlink" width="272px" height="271px" xmlns="http://www.w3.org/2000/svg">
  <defs>
    <filter x="1311px" y="639px" width="272px" height="271px" filterUnits="userSpaceOnUse" id="filter73">
      <feOffset dx="5" dy="5" in="SourceAlpha" result="shadowOffsetInner" />
      <feGaussianBlur stdDeviation="2.5" in="shadowOffsetInner" result="shadowGaussian" />
      <feComposite in2="shadowGaussian" operator="atop" in="SourceAlpha" result="shadowComposite" />
      <feColorMatrix type="matrix" values="0 0 0 0 0  0 0 0 0 0  0 0 0 0 0  0 0 0 0.156862745098039 0  " in="shadowComposite" />
    </filter>
    <g id="widget74">
      <path d="M 1312 643  A 3 3 0 0 1 1315 640 L 1569 640  A 3 3 0 0 1 1572 643 L 1572 896  A 3 3 0 0 1 1569 899 L 1315 899  A 3 3 0 0 1 1312 896 L 1312 643  Z " fill-rule="nonzero" fill="#ffffff" stroke="none" />
      <path d="M 1311.5 643  A 3.5 3.5 0 0 1 1315 639.5 L 1569 639.5  A 3.5 3.5 0 0 1 1572.5 643 L 1572.5 896  A 3.5 3.5 0 0 1 1569 899.5 L 1315 899.5  A 3.5 3.5 0 0 1 1311.5 896 L 1311.5 643  Z " stroke-width="1" stroke="#797979" fill="none" stroke-opacity="0.196078431372549" />
    </g>
  </defs>
  <g transform="matrix(1 0 0 1 -1311 -639 )">
    <use xlink:href="#widget74" filter="url(#filter73)" />
    <use xlink:href="#widget74" />
  </g>
</svg>