<?xml version="1.0" encoding="utf-8"?>
<svg version="1.1" xmlns:xlink="http://www.w3.org/1999/xlink" width="196px" height="134px" xmlns="http://www.w3.org/2000/svg">
  <defs>
    <filter x="808px" y="342px" width="196px" height="134px" filterUnits="userSpaceOnUse" id="filter211">
      <feOffset dx="5" dy="5" in="SourceAlpha" result="shadowOffsetInner" />
      <feGaussianBlur stdDeviation="2.5" in="shadowOffsetInner" result="shadowGaussian" />
      <feComposite in2="shadowGaussian" operator="atop" in="SourceAlpha" result="shadowComposite" />
      <feColorMatrix type="matrix" values="0 0 0 0 0  0 0 0 0 0  0 0 0 0 0  0 0 0 0.156862745098039 0  " in="shadowComposite" />
    </filter>
    <g id="widget212">
      <path d="M 809 346  A 3 3 0 0 1 812 343 L 990 343  A 3 3 0 0 1 993 346 L 993 462  A 3 3 0 0 1 990 465 L 812 465  A 3 3 0 0 1 809 462 L 809 346  Z " fill-rule="nonzero" fill="#ffffff" stroke="none" />
      <path d="M 808.5 346  A 3.5 3.5 0 0 1 812 342.5 L 990 342.5  A 3.5 3.5 0 0 1 993.5 346 L 993.5 462  A 3.5 3.5 0 0 1 990 465.5 L 812 465.5  A 3.5 3.5 0 0 1 808.5 462 L 808.5 346  Z " stroke-width="1" stroke="#797979" fill="none" stroke-opacity="0.196078431372549" />
    </g>
  </defs>
  <g transform="matrix(1 0 0 1 -808 -342 )">
    <use xlink:href="#widget212" filter="url(#filter211)" />
    <use xlink:href="#widget212" />
  </g>
</svg>