<?xml version="1.0" encoding="utf-8"?>
<svg version="1.1" xmlns:xlink="http://www.w3.org/1999/xlink" width="287px" height="110px" xmlns="http://www.w3.org/2000/svg">
  <defs>
    <filter x="501px" y="838px" width="287px" height="110px" filterUnits="userSpaceOnUse" id="filter79">
      <feOffset dx="5" dy="5" in="SourceAlpha" result="shadowOffsetInner" />
      <feGaussianBlur stdDeviation="2.5" in="shadowOffsetInner" result="shadowGaussian" />
      <feComposite in2="shadowGaussian" operator="atop" in="SourceAlpha" result="shadowComposite" />
      <feColorMatrix type="matrix" values="0 0 0 0 0  0 0 0 0 0  0 0 0 0 0  0 0 0 0.156862745098039 0  " in="shadowComposite" />
    </filter>
    <g id="widget80">
      <path d="M 502 842  A 3 3 0 0 1 505 839 L 774 839  A 3 3 0 0 1 777 842 L 777 934  A 3 3 0 0 1 774 937 L 505 937  A 3 3 0 0 1 502 934 L 502 842  Z " fill-rule="nonzero" fill="#ffffff" stroke="none" />
      <path d="M 501.5 842  A 3.5 3.5 0 0 1 505 838.5 L 774 838.5  A 3.5 3.5 0 0 1 777.5 842 L 777.5 934  A 3.5 3.5 0 0 1 774 937.5 L 505 937.5  A 3.5 3.5 0 0 1 501.5 934 L 501.5 842  Z " stroke-width="1" stroke="#797979" fill="none" stroke-opacity="0.196078431372549" />
    </g>
  </defs>
  <g transform="matrix(1 0 0 1 -501 -838 )">
    <use xlink:href="#widget80" filter="url(#filter79)" />
    <use xlink:href="#widget80" />
  </g>
</svg>