<?xml version="1.0" encoding="utf-8"?>
<svg version="1.1" xmlns:xlink="http://www.w3.org/1999/xlink" width="323px" height="98px" xmlns="http://www.w3.org/2000/svg">
  <defs>
    <filter x="834px" y="228px" width="323px" height="98px" filterUnits="userSpaceOnUse" id="filter201">
      <feOffset dx="5" dy="5" in="SourceAlpha" result="shadowOffsetInner" />
      <feGaussianBlur stdDeviation="2.5" in="shadowOffsetInner" result="shadowGaussian" />
      <feComposite in2="shadowGaussian" operator="atop" in="SourceAlpha" result="shadowComposite" />
      <feColorMatrix type="matrix" values="0 0 0 0 0  0 0 0 0 0  0 0 0 0 0  0 0 0 0.156862745098039 0  " in="shadowComposite" />
    </filter>
    <g id="widget202">
      <path d="M 835 232  A 3 3 0 0 1 838 229 L 1143 229  A 3 3 0 0 1 1146 232 L 1146 312  A 3 3 0 0 1 1143 315 L 838 315  A 3 3 0 0 1 835 312 L 835 232  Z " fill-rule="nonzero" fill="#ffffff" stroke="none" />
      <path d="M 834.5 232  A 3.5 3.5 0 0 1 838 228.5 L 1143 228.5  A 3.5 3.5 0 0 1 1146.5 232 L 1146.5 312  A 3.5 3.5 0 0 1 1143 315.5 L 838 315.5  A 3.5 3.5 0 0 1 834.5 312 L 834.5 232  Z " stroke-width="1" stroke="#797979" fill="none" stroke-opacity="0.196078431372549" />
    </g>
  </defs>
  <g transform="matrix(1 0 0 1 -834 -228 )">
    <use xlink:href="#widget202" filter="url(#filter201)" />
    <use xlink:href="#widget202" />
  </g>
</svg>