<?xml version="1.0" encoding="utf-8"?>
<svg version="1.1" xmlns:xlink="http://www.w3.org/1999/xlink" width="424px" height="244px" xmlns="http://www.w3.org/2000/svg">
  <defs>
    <filter x="1119px" y="320px" width="424px" height="244px" filterUnits="userSpaceOnUse" id="filter119">
      <feOffset dx="5" dy="5" in="SourceAlpha" result="shadowOffsetInner" />
      <feGaussianBlur stdDeviation="2.5" in="shadowOffsetInner" result="shadowGaussian" />
      <feComposite in2="shadowGaussian" operator="atop" in="SourceAlpha" result="shadowComposite" />
      <feColorMatrix type="matrix" values="0 0 0 0 0  0 0 0 0 0  0 0 0 0 0  0 0 0 0.156862745098039 0  " in="shadowComposite" />
    </filter>
    <g id="widget120">
      <path d="M 1120 324  A 3 3 0 0 1 1123 321 L 1529 321  A 3 3 0 0 1 1532 324 L 1532 550  A 3 3 0 0 1 1529 553 L 1123 553  A 3 3 0 0 1 1120 550 L 1120 324  Z " fill-rule="nonzero" fill="#ffffff" stroke="none" />
      <path d="M 1119.5 324  A 3.5 3.5 0 0 1 1123 320.5 L 1529 320.5  A 3.5 3.5 0 0 1 1532.5 324 L 1532.5 550  A 3.5 3.5 0 0 1 1529 553.5 L 1123 553.5  A 3.5 3.5 0 0 1 1119.5 550 L 1119.5 324  Z " stroke-width="1" stroke="#797979" fill="none" stroke-opacity="0.196078431372549" />
    </g>
  </defs>
  <g transform="matrix(1 0 0 1 -1119 -320 )">
    <use xlink:href="#widget120" filter="url(#filter119)" />
    <use xlink:href="#widget120" />
  </g>
</svg>