<?xml version="1.0" encoding="utf-8"?>
<svg version="1.1" xmlns:xlink="http://www.w3.org/1999/xlink" width="196px" height="173px" xmlns="http://www.w3.org/2000/svg">
  <defs>
    <filter x="229px" y="283px" width="196px" height="173px" filterUnits="userSpaceOnUse" id="filter161">
      <feOffset dx="5" dy="5" in="SourceAlpha" result="shadowOffsetInner" />
      <feGaussianBlur stdDeviation="2.5" in="shadowOffsetInner" result="shadowGaussian" />
      <feComposite in2="shadowGaussian" operator="atop" in="SourceAlpha" result="shadowComposite" />
      <feColorMatrix type="matrix" values="0 0 0 0 0  0 0 0 0 0  0 0 0 0 0  0 0 0 0.156862745098039 0  " in="shadowComposite" />
    </filter>
    <g id="widget162">
      <path d="M 230 287  A 3 3 0 0 1 233 284 L 411 284  A 3 3 0 0 1 414 287 L 414 442  A 3 3 0 0 1 411 445 L 233 445  A 3 3 0 0 1 230 442 L 230 287  Z " fill-rule="nonzero" fill="#ffffff" stroke="none" />
      <path d="M 229.5 287  A 3.5 3.5 0 0 1 233 283.5 L 411 283.5  A 3.5 3.5 0 0 1 414.5 287 L 414.5 442  A 3.5 3.5 0 0 1 411 445.5 L 233 445.5  A 3.5 3.5 0 0 1 229.5 442 L 229.5 287  Z " stroke-width="1" stroke="#797979" fill="none" stroke-opacity="0.196078431372549" />
    </g>
  </defs>
  <g transform="matrix(1 0 0 1 -229 -283 )">
    <use xlink:href="#widget162" filter="url(#filter161)" />
    <use xlink:href="#widget162" />
  </g>
</svg>