<?xml version="1.0" encoding="utf-8"?>
<svg version="1.1" xmlns:xlink="http://www.w3.org/1999/xlink" width="177px" height="112px" xmlns="http://www.w3.org/2000/svg">
  <defs>
    <filter x="290px" y="283px" width="177px" height="112px" filterUnits="userSpaceOnUse" id="filter45">
      <feOffset dx="5" dy="5" in="SourceAlpha" result="shadowOffsetInner" />
      <feGaussianBlur stdDeviation="2.5" in="shadowOffsetInner" result="shadowGaussian" />
      <feComposite in2="shadowGaussian" operator="atop" in="SourceAlpha" result="shadowComposite" />
      <feColorMatrix type="matrix" values="0 0 0 0 0  0 0 0 0 0  0 0 0 0 0  0 0 0 0.156862745098039 0  " in="shadowComposite" />
    </filter>
    <g id="widget46">
      <path d="M 291 287  A 3 3 0 0 1 294 284 L 453 284  A 3 3 0 0 1 456 287 L 456 381  A 3 3 0 0 1 453 384 L 294 384  A 3 3 0 0 1 291 381 L 291 287  Z " fill-rule="nonzero" fill="#ffffff" stroke="none" />
      <path d="M 290.5 287  A 3.5 3.5 0 0 1 294 283.5 L 453 283.5  A 3.5 3.5 0 0 1 456.5 287 L 456.5 381  A 3.5 3.5 0 0 1 453 384.5 L 294 384.5  A 3.5 3.5 0 0 1 290.5 381 L 290.5 287  Z " stroke-width="1" stroke="#797979" fill="none" stroke-opacity="0.196078431372549" />
    </g>
  </defs>
  <g transform="matrix(1 0 0 1 -290 -283 )">
    <use xlink:href="#widget46" filter="url(#filter45)" />
    <use xlink:href="#widget46" />
  </g>
</svg>