<?xml version="1.0" encoding="utf-8"?>
<svg version="1.1" xmlns:xlink="http://www.w3.org/1999/xlink" width="392px" height="310px" xmlns="http://www.w3.org/2000/svg">
  <defs>
    <filter x="539px" y="522px" width="392px" height="310px" filterUnits="userSpaceOnUse" id="filter123">
      <feOffset dx="5" dy="5" in="SourceAlpha" result="shadowOffsetInner" />
      <feGaussianBlur stdDeviation="2.5" in="shadowOffsetInner" result="shadowGaussian" />
      <feComposite in2="shadowGaussian" operator="atop" in="SourceAlpha" result="shadowComposite" />
      <feColorMatrix type="matrix" values="0 0 0 0 0  0 0 0 0 0  0 0 0 0 0  0 0 0 0.156862745098039 0  " in="shadowComposite" />
    </filter>
    <g id="widget124">
      <path d="M 540 526  A 3 3 0 0 1 543 523 L 917 523  A 3 3 0 0 1 920 526 L 920 818  A 3 3 0 0 1 917 821 L 543 821  A 3 3 0 0 1 540 818 L 540 526  Z " fill-rule="nonzero" fill="#ffffff" stroke="none" />
      <path d="M 539.5 526  A 3.5 3.5 0 0 1 543 522.5 L 917 522.5  A 3.5 3.5 0 0 1 920.5 526 L 920.5 818  A 3.5 3.5 0 0 1 917 821.5 L 543 821.5  A 3.5 3.5 0 0 1 539.5 818 L 539.5 526  Z " stroke-width="1" stroke="#797979" fill="none" stroke-opacity="0.196078431372549" />
    </g>
  </defs>
  <g transform="matrix(1 0 0 1 -539 -522 )">
    <use xlink:href="#widget124" filter="url(#filter123)" />
    <use xlink:href="#widget124" />
  </g>
</svg>