<?xml version="1.0" encoding="utf-8"?>
<svg version="1.1" xmlns:xlink="http://www.w3.org/1999/xlink" width="177px" height="292px" xmlns="http://www.w3.org/2000/svg">
  <defs>
    <filter x="208px" y="586px" width="177px" height="292px" filterUnits="userSpaceOnUse" id="filter49">
      <feOffset dx="5" dy="5" in="SourceAlpha" result="shadowOffsetInner" />
      <feGaussianBlur stdDeviation="2.5" in="shadowOffsetInner" result="shadowGaussian" />
      <feComposite in2="shadowGaussian" operator="atop" in="SourceAlpha" result="shadowComposite" />
      <feColorMatrix type="matrix" values="0 0 0 0 0  0 0 0 0 0  0 0 0 0 0  0 0 0 0.156862745098039 0  " in="shadowComposite" />
    </filter>
    <g id="widget50">
      <path d="M 209 590  A 3 3 0 0 1 212 587 L 371 587  A 3 3 0 0 1 374 590 L 374 864  A 3 3 0 0 1 371 867 L 212 867  A 3 3 0 0 1 209 864 L 209 590  Z " fill-rule="nonzero" fill="#ffffff" stroke="none" />
      <path d="M 208.5 590  A 3.5 3.5 0 0 1 212 586.5 L 371 586.5  A 3.5 3.5 0 0 1 374.5 590 L 374.5 864  A 3.5 3.5 0 0 1 371 867.5 L 212 867.5  A 3.5 3.5 0 0 1 208.5 864 L 208.5 590  Z " stroke-width="1" stroke="#797979" fill="none" stroke-opacity="0.196078431372549" />
    </g>
  </defs>
  <g transform="matrix(1 0 0 1 -208 -586 )">
    <use xlink:href="#widget50" filter="url(#filter49)" />
    <use xlink:href="#widget50" />
  </g>
</svg>