<?xml version="1.0" encoding="utf-8"?>
<svg version="1.1" xmlns:xlink="http://www.w3.org/1999/xlink" width="299px" height="145px" xmlns="http://www.w3.org/2000/svg">
  <defs>
    <filter x="1244px" y="103px" width="299px" height="145px" filterUnits="userSpaceOnUse" id="filter115">
      <feOffset dx="5" dy="5" in="SourceAlpha" result="shadowOffsetInner" />
      <feGaussianBlur stdDeviation="2.5" in="shadowOffsetInner" result="shadowGaussian" />
      <feComposite in2="shadowGaussian" operator="atop" in="SourceAlpha" result="shadowComposite" />
      <feColorMatrix type="matrix" values="0 0 0 0 0  0 0 0 0 0  0 0 0 0 0  0 0 0 0.156862745098039 0  " in="shadowComposite" />
    </filter>
    <g id="widget116">
      <path d="M 1245 107  A 3 3 0 0 1 1248 104 L 1529 104  A 3 3 0 0 1 1532 107 L 1532 234  A 3 3 0 0 1 1529 237 L 1248 237  A 3 3 0 0 1 1245 234 L 1245 107  Z " fill-rule="nonzero" fill="#ffffff" stroke="none" />
      <path d="M 1244.5 107  A 3.5 3.5 0 0 1 1248 103.5 L 1529 103.5  A 3.5 3.5 0 0 1 1532.5 107 L 1532.5 234  A 3.5 3.5 0 0 1 1529 237.5 L 1248 237.5  A 3.5 3.5 0 0 1 1244.5 234 L 1244.5 107  Z " stroke-width="1" stroke="#797979" fill="none" stroke-opacity="0.196078431372549" />
    </g>
  </defs>
  <g transform="matrix(1 0 0 1 -1244 -103 )">
    <use xlink:href="#widget116" filter="url(#filter115)" />
    <use xlink:href="#widget116" />
  </g>
</svg>