<?xml version="1.0" encoding="utf-8"?>
<svg version="1.1" xmlns:xlink="http://www.w3.org/1999/xlink" width="264px" height="183px" xmlns="http://www.w3.org/2000/svg">
  <defs>
    <filter x="1010px" y="532px" width="264px" height="183px" filterUnits="userSpaceOnUse" id="filter141">
      <feOffset dx="5" dy="5" in="SourceAlpha" result="shadowOffsetInner" />
      <feGaussianBlur stdDeviation="2.5" in="shadowOffsetInner" result="shadowGaussian" />
      <feComposite in2="shadowGaussian" operator="atop" in="SourceAlpha" result="shadowComposite" />
      <feColorMatrix type="matrix" values="0 0 0 0 0  0 0 0 0 0  0 0 0 0 0  0 0 0 0.156862745098039 0  " in="shadowComposite" />
    </filter>
    <g id="widget142">
      <path d="M 1011 536  A 3 3 0 0 1 1014 533 L 1260 533  A 3 3 0 0 1 1263 536 L 1263 701  A 3 3 0 0 1 1260 704 L 1014 704  A 3 3 0 0 1 1011 701 L 1011 536  Z " fill-rule="nonzero" fill="#ffffff" stroke="none" />
      <path d="M 1010.5 536  A 3.5 3.5 0 0 1 1014 532.5 L 1260 532.5  A 3.5 3.5 0 0 1 1263.5 536 L 1263.5 701  A 3.5 3.5 0 0 1 1260 704.5 L 1014 704.5  A 3.5 3.5 0 0 1 1010.5 701 L 1010.5 536  Z " stroke-width="1" stroke="#797979" fill="none" stroke-opacity="0.196078431372549" />
    </g>
  </defs>
  <g transform="matrix(1 0 0 1 -1010 -532 )">
    <use xlink:href="#widget142" filter="url(#filter141)" />
    <use xlink:href="#widget142" />
  </g>
</svg>