<?xml version="1.0" encoding="utf-8"?>
<svg version="1.1" xmlns:xlink="http://www.w3.org/1999/xlink" width="177px" height="96px" xmlns="http://www.w3.org/2000/svg">
  <defs>
    <filter x="121px" y="727px" width="177px" height="96px" filterUnits="userSpaceOnUse" id="filter69">
      <feOffset dx="5" dy="5" in="SourceAlpha" result="shadowOffsetInner" />
      <feGaussianBlur stdDeviation="2.5" in="shadowOffsetInner" result="shadowGaussian" />
      <feComposite in2="shadowGaussian" operator="atop" in="SourceAlpha" result="shadowComposite" />
      <feColorMatrix type="matrix" values="0 0 0 0 0  0 0 0 0 0  0 0 0 0 0  0 0 0 0.156862745098039 0  " in="shadowComposite" />
    </filter>
    <g id="widget70">
      <path d="M 122 731  A 3 3 0 0 1 125 728 L 284 728  A 3 3 0 0 1 287 731 L 287 809  A 3 3 0 0 1 284 812 L 125 812  A 3 3 0 0 1 122 809 L 122 731  Z " fill-rule="nonzero" fill="#ffffff" stroke="none" />
      <path d="M 121.5 731  A 3.5 3.5 0 0 1 125 727.5 L 284 727.5  A 3.5 3.5 0 0 1 287.5 731 L 287.5 809  A 3.5 3.5 0 0 1 284 812.5 L 125 812.5  A 3.5 3.5 0 0 1 121.5 809 L 121.5 731  Z " stroke-width="1" stroke="#797979" fill="none" stroke-opacity="0.196078431372549" />
    </g>
  </defs>
  <g transform="matrix(1 0 0 1 -121 -727 )">
    <use xlink:href="#widget70" filter="url(#filter69)" />
    <use xlink:href="#widget70" />
  </g>
</svg>