<?xml version="1.0" encoding="utf-8"?>
<svg version="1.1" xmlns:xlink="http://www.w3.org/1999/xlink" width="177px" height="183px" xmlns="http://www.w3.org/2000/svg">
  <defs>
    <filter x="181px" y="177px" width="177px" height="183px" filterUnits="userSpaceOnUse" id="filter67">
      <feOffset dx="5" dy="5" in="SourceAlpha" result="shadowOffsetInner" />
      <feGaussianBlur stdDeviation="2.5" in="shadowOffsetInner" result="shadowGaussian" />
      <feComposite in2="shadowGaussian" operator="atop" in="SourceAlpha" result="shadowComposite" />
      <feColorMatrix type="matrix" values="0 0 0 0 0  0 0 0 0 0  0 0 0 0 0  0 0 0 0.156862745098039 0  " in="shadowComposite" />
    </filter>
    <g id="widget68">
      <path d="M 182 181  A 3 3 0 0 1 185 178 L 344 178  A 3 3 0 0 1 347 181 L 347 346  A 3 3 0 0 1 344 349 L 185 349  A 3 3 0 0 1 182 346 L 182 181  Z " fill-rule="nonzero" fill="#ffffff" stroke="none" />
      <path d="M 181.5 181  A 3.5 3.5 0 0 1 185 177.5 L 344 177.5  A 3.5 3.5 0 0 1 347.5 181 L 347.5 346  A 3.5 3.5 0 0 1 344 349.5 L 185 349.5  A 3.5 3.5 0 0 1 181.5 346 L 181.5 181  Z " stroke-width="1" stroke="#797979" fill="none" stroke-opacity="0.196078431372549" />
    </g>
  </defs>
  <g transform="matrix(1 0 0 1 -181 -177 )">
    <use xlink:href="#widget68" filter="url(#filter67)" />
    <use xlink:href="#widget68" />
  </g>
</svg>