<?xml version="1.0" encoding="utf-8"?>
<svg version="1.1" xmlns:xlink="http://www.w3.org/1999/xlink" width="242px" height="83px" xmlns="http://www.w3.org/2000/svg">
  <defs>
    <filter x="287px" y="197px" width="242px" height="83px" filterUnits="userSpaceOnUse" id="filter243">
      <feOffset dx="5" dy="5" in="SourceAlpha" result="shadowOffsetInner" />
      <feGaussianBlur stdDeviation="2.5" in="shadowOffsetInner" result="shadowGaussian" />
      <feComposite in2="shadowGaussian" operator="atop" in="SourceAlpha" result="shadowComposite" />
      <feColorMatrix type="matrix" values="0 0 0 0 0  0 0 0 0 0  0 0 0 0 0  0 0 0 0.156862745098039 0  " in="shadowComposite" />
    </filter>
    <g id="widget244">
      <path d="M 288 201  A 3 3 0 0 1 291 198 L 515 198  A 3 3 0 0 1 518 201 L 518 266  A 3 3 0 0 1 515 269 L 291 269  A 3 3 0 0 1 288 266 L 288 201  Z " fill-rule="nonzero" fill="#ffffff" stroke="none" />
      <path d="M 287.5 201  A 3.5 3.5 0 0 1 291 197.5 L 515 197.5  A 3.5 3.5 0 0 1 518.5 201 L 518.5 266  A 3.5 3.5 0 0 1 515 269.5 L 291 269.5  A 3.5 3.5 0 0 1 287.5 266 L 287.5 201  Z " stroke-width="1" stroke="#797979" fill="none" stroke-opacity="0.196078431372549" />
    </g>
  </defs>
  <g transform="matrix(1 0 0 1 -287 -197 )">
    <use xlink:href="#widget244" filter="url(#filter243)" />
    <use xlink:href="#widget244" />
  </g>
</svg>