<?xml version="1.0" encoding="utf-8"?>
<svg version="1.1" xmlns:xlink="http://www.w3.org/1999/xlink" width="387px" height="138px" xmlns="http://www.w3.org/2000/svg">
  <defs>
    <filter x="1326px" y="771px" width="387px" height="138px" filterUnits="userSpaceOnUse" id="filter149">
      <feOffset dx="5" dy="5" in="SourceAlpha" result="shadowOffsetInner" />
      <feGaussianBlur stdDeviation="2.5" in="shadowOffsetInner" result="shadowGaussian" />
      <feComposite in2="shadowGaussian" operator="atop" in="SourceAlpha" result="shadowComposite" />
      <feColorMatrix type="matrix" values="0 0 0 0 0  0 0 0 0 0  0 0 0 0 0  0 0 0 0.156862745098039 0  " in="shadowComposite" />
    </filter>
    <g id="widget150">
      <path d="M 1327 775  A 3 3 0 0 1 1330 772 L 1699 772  A 3 3 0 0 1 1702 775 L 1702 895  A 3 3 0 0 1 1699 898 L 1330 898  A 3 3 0 0 1 1327 895 L 1327 775  Z " fill-rule="nonzero" fill="#ffffff" stroke="none" />
      <path d="M 1326.5 775  A 3.5 3.5 0 0 1 1330 771.5 L 1699 771.5  A 3.5 3.5 0 0 1 1702.5 775 L 1702.5 895  A 3.5 3.5 0 0 1 1699 898.5 L 1330 898.5  A 3.5 3.5 0 0 1 1326.5 895 L 1326.5 775  Z " stroke-width="1" stroke="#797979" fill="none" stroke-opacity="0.196078431372549" />
    </g>
  </defs>
  <g transform="matrix(1 0 0 1 -1326 -771 )">
    <use xlink:href="#widget150" filter="url(#filter149)" />
    <use xlink:href="#widget150" />
  </g>
</svg>