<?xml version="1.0" encoding="utf-8"?>
<svg version="1.1" xmlns:xlink="http://www.w3.org/1999/xlink" width="196px" height="59px" xmlns="http://www.w3.org/2000/svg">
  <defs>
    <filter x="1296px" y="166px" width="196px" height="59px" filterUnits="userSpaceOnUse" id="filter215">
      <feOffset dx="5" dy="5" in="SourceAlpha" result="shadowOffsetInner" />
      <feGaussianBlur stdDeviation="2.5" in="shadowOffsetInner" result="shadowGaussian" />
      <feComposite in2="shadowGaussian" operator="atop" in="SourceAlpha" result="shadowComposite" />
      <feColorMatrix type="matrix" values="0 0 0 0 0  0 0 0 0 0  0 0 0 0 0  0 0 0 0.156862745098039 0  " in="shadowComposite" />
    </filter>
    <g id="widget216">
      <path d="M 1297 170  A 3 3 0 0 1 1300 167 L 1478 167  A 3 3 0 0 1 1481 170 L 1481 211  A 3 3 0 0 1 1478 214 L 1300 214  A 3 3 0 0 1 1297 211 L 1297 170  Z " fill-rule="nonzero" fill="#ffffff" stroke="none" />
      <path d="M 1296.5 170  A 3.5 3.5 0 0 1 1300 166.5 L 1478 166.5  A 3.5 3.5 0 0 1 1481.5 170 L 1481.5 211  A 3.5 3.5 0 0 1 1478 214.5 L 1300 214.5  A 3.5 3.5 0 0 1 1296.5 211 L 1296.5 170  Z " stroke-width="1" stroke="#797979" fill="none" stroke-opacity="0.196078431372549" />
    </g>
  </defs>
  <g transform="matrix(1 0 0 1 -1296 -166 )">
    <use xlink:href="#widget216" filter="url(#filter215)" />
    <use xlink:href="#widget216" />
  </g>
</svg>