<?xml version="1.0" encoding="utf-8"?>
<svg version="1.1" xmlns:xlink="http://www.w3.org/1999/xlink" width="178px" height="66px" xmlns="http://www.w3.org/2000/svg">
  <defs>
    <filter x="1326px" y="574px" width="178px" height="66px" filterUnits="userSpaceOnUse" id="filter125">
      <feOffset dx="5" dy="5" in="SourceAlpha" result="shadowOffsetInner" />
      <feGaussianBlur stdDeviation="2.5" in="shadowOffsetInner" result="shadowGaussian" />
      <feComposite in2="shadowGaussian" operator="atop" in="SourceAlpha" result="shadowComposite" />
      <feColorMatrix type="matrix" values="0 0 0 0 0  0 0 0 0 0  0 0 0 0 0  0 0 0 0.156862745098039 0  " in="shadowComposite" />
    </filter>
    <g id="widget126">
      <path d="M 1327 578  A 3 3 0 0 1 1330 575 L 1490 575  A 3 3 0 0 1 1493 578 L 1493 626  A 3 3 0 0 1 1490 629 L 1330 629  A 3 3 0 0 1 1327 626 L 1327 578  Z " fill-rule="nonzero" fill="#ffffff" stroke="none" />
      <path d="M 1326.5 578  A 3.5 3.5 0 0 1 1330 574.5 L 1490 574.5  A 3.5 3.5 0 0 1 1493.5 578 L 1493.5 626  A 3.5 3.5 0 0 1 1490 629.5 L 1330 629.5  A 3.5 3.5 0 0 1 1326.5 626 L 1326.5 578  Z " stroke-width="1" stroke="#797979" fill="none" stroke-opacity="0.196078431372549" />
    </g>
  </defs>
  <g transform="matrix(1 0 0 1 -1326 -574 )">
    <use xlink:href="#widget126" filter="url(#filter125)" />
    <use xlink:href="#widget126" />
  </g>
</svg>