<?xml version="1.0" encoding="utf-8"?>
<svg version="1.1" xmlns:xlink="http://www.w3.org/1999/xlink" width="309px" height="145px" xmlns="http://www.w3.org/2000/svg">
  <defs>
    <filter x="1234px" y="156px" width="309px" height="145px" filterUnits="userSpaceOnUse" id="filter117">
      <feOffset dx="5" dy="5" in="SourceAlpha" result="shadowOffsetInner" />
      <feGaussianBlur stdDeviation="2.5" in="shadowOffsetInner" result="shadowGaussian" />
      <feComposite in2="shadowGaussian" operator="atop" in="SourceAlpha" result="shadowComposite" />
      <feColorMatrix type="matrix" values="0 0 0 0 0  0 0 0 0 0  0 0 0 0 0  0 0 0 0.156862745098039 0  " in="shadowComposite" />
    </filter>
    <g id="widget118">
      <path d="M 1235 160  A 3 3 0 0 1 1238 157 L 1529 157  A 3 3 0 0 1 1532 160 L 1532 287  A 3 3 0 0 1 1529 290 L 1238 290  A 3 3 0 0 1 1235 287 L 1235 160  Z " fill-rule="nonzero" fill="#ffffff" stroke="none" />
      <path d="M 1234.5 160  A 3.5 3.5 0 0 1 1238 156.5 L 1529 156.5  A 3.5 3.5 0 0 1 1532.5 160 L 1532.5 287  A 3.5 3.5 0 0 1 1529 290.5 L 1238 290.5  A 3.5 3.5 0 0 1 1234.5 287 L 1234.5 160  Z " stroke-width="1" stroke="#797979" fill="none" stroke-opacity="0.196078431372549" />
    </g>
  </defs>
  <g transform="matrix(1 0 0 1 -1234 -156 )">
    <use xlink:href="#widget118" filter="url(#filter117)" />
    <use xlink:href="#widget118" />
  </g>
</svg>