<?xml version="1.0" encoding="utf-8"?>
<svg version="1.1" xmlns:xlink="http://www.w3.org/1999/xlink" width="193px" height="221px" xmlns="http://www.w3.org/2000/svg">
  <defs>
    <filter x="1328px" y="716px" width="193px" height="221px" filterUnits="userSpaceOnUse" id="filter23">
      <feOffset dx="5" dy="5" in="SourceAlpha" result="shadowOffsetInner" />
      <feGaussianBlur stdDeviation="2.5" in="shadowOffsetInner" result="shadowGaussian" />
      <feComposite in2="shadowGaussian" operator="atop" in="SourceAlpha" result="shadowComposite" />
      <feColorMatrix type="matrix" values="0 0 0 0 0  0 0 0 0 0  0 0 0 0 0  0 0 0 0.156862745098039 0  " in="shadowComposite" />
    </filter>
    <g id="widget24">
      <path d="M 1329 720  A 3 3 0 0 1 1332 717 L 1507 717  A 3 3 0 0 1 1510 720 L 1510 923  A 3 3 0 0 1 1507 926 L 1332 926  A 3 3 0 0 1 1329 923 L 1329 720  Z " fill-rule="nonzero" fill="#ffffff" stroke="none" />
      <path d="M 1328.5 720  A 3.5 3.5 0 0 1 1332 716.5 L 1507 716.5  A 3.5 3.5 0 0 1 1510.5 720 L 1510.5 923  A 3.5 3.5 0 0 1 1507 926.5 L 1332 926.5  A 3.5 3.5 0 0 1 1328.5 923 L 1328.5 720  Z " stroke-width="1" stroke="#797979" fill="none" stroke-opacity="0.196078431372549" />
    </g>
  </defs>
  <g transform="matrix(1 0 0 1 -1328 -716 )">
    <use xlink:href="#widget24" filter="url(#filter23)" />
    <use xlink:href="#widget24" />
  </g>
</svg>