<?xml version="1.0" encoding="utf-8"?>
<svg version="1.1" xmlns:xlink="http://www.w3.org/1999/xlink" width="327px" height="351px" xmlns="http://www.w3.org/2000/svg">
  <defs>
    <filter x="1515px" y="98px" width="327px" height="351px" filterUnits="userSpaceOnUse" id="filter11">
      <feOffset dx="5" dy="5" in="SourceAlpha" result="shadowOffsetInner" />
      <feGaussianBlur stdDeviation="2.5" in="shadowOffsetInner" result="shadowGaussian" />
      <feComposite in2="shadowGaussian" operator="atop" in="SourceAlpha" result="shadowComposite" />
      <feColorMatrix type="matrix" values="0 0 0 0 0  0 0 0 0 0  0 0 0 0 0  0 0 0 0.156862745098039 0  " in="shadowComposite" />
    </filter>
    <g id="widget12">
      <path d="M 1516 102  A 3 3 0 0 1 1519 99 L 1828 99  A 3 3 0 0 1 1831 102 L 1831 435  A 3 3 0 0 1 1828 438 L 1519 438  A 3 3 0 0 1 1516 435 L 1516 102  Z " fill-rule="nonzero" fill="#ffffff" stroke="none" />
      <path d="M 1515.5 102  A 3.5 3.5 0 0 1 1519 98.5 L 1828 98.5  A 3.5 3.5 0 0 1 1831.5 102 L 1831.5 435  A 3.5 3.5 0 0 1 1828 438.5 L 1519 438.5  A 3.5 3.5 0 0 1 1515.5 435 L 1515.5 102  Z " stroke-width="1" stroke="#797979" fill="none" stroke-opacity="0.196078431372549" />
    </g>
  </defs>
  <g transform="matrix(1 0 0 1 -1515 -98 )">
    <use xlink:href="#widget12" filter="url(#filter11)" />
    <use xlink:href="#widget12" />
  </g>
</svg>