<?xml version="1.0" encoding="utf-8"?>
<svg version="1.1" xmlns:xlink="http://www.w3.org/1999/xlink" width="229px" height="86px" xmlns="http://www.w3.org/2000/svg">
  <defs>
    <filter x="1570px" y="290px" width="229px" height="86px" filterUnits="userSpaceOnUse" id="filter97">
      <feOffset dx="5" dy="5" in="SourceAlpha" result="shadowOffsetInner" />
      <feGaussianBlur stdDeviation="2.5" in="shadowOffsetInner" result="shadowGaussian" />
      <feComposite in2="shadowGaussian" operator="atop" in="SourceAlpha" result="shadowComposite" />
      <feColorMatrix type="matrix" values="0 0 0 0 0  0 0 0 0 0  0 0 0 0 0  0 0 0 0.156862745098039 0  " in="shadowComposite" />
    </filter>
    <g id="widget98">
      <path d="M 1571 294  A 3 3 0 0 1 1574 291 L 1785 291  A 3 3 0 0 1 1788 294 L 1788 362  A 3 3 0 0 1 1785 365 L 1574 365  A 3 3 0 0 1 1571 362 L 1571 294  Z " fill-rule="nonzero" fill="#ffffff" stroke="none" />
      <path d="M 1570.5 294  A 3.5 3.5 0 0 1 1574 290.5 L 1785 290.5  A 3.5 3.5 0 0 1 1788.5 294 L 1788.5 362  A 3.5 3.5 0 0 1 1785 365.5 L 1574 365.5  A 3.5 3.5 0 0 1 1570.5 362 L 1570.5 294  Z " stroke-width="1" stroke="#797979" fill="none" stroke-opacity="0.196078431372549" />
    </g>
  </defs>
  <g transform="matrix(1 0 0 1 -1570 -290 )">
    <use xlink:href="#widget98" filter="url(#filter97)" />
    <use xlink:href="#widget98" />
  </g>
</svg>