<?xml version="1.0" encoding="utf-8"?>
<svg version="1.1" xmlns:xlink="http://www.w3.org/1999/xlink" width="196px" height="120px" xmlns="http://www.w3.org/2000/svg">
  <defs>
    <filter x="1129px" y="97px" width="196px" height="120px" filterUnits="userSpaceOnUse" id="filter169">
      <feOffset dx="5" dy="5" in="SourceAlpha" result="shadowOffsetInner" />
      <feGaussianBlur stdDeviation="2.5" in="shadowOffsetInner" result="shadowGaussian" />
      <feComposite in2="shadowGaussian" operator="atop" in="SourceAlpha" result="shadowComposite" />
      <feColorMatrix type="matrix" values="0 0 0 0 0  0 0 0 0 0  0 0 0 0 0  0 0 0 0.156862745098039 0  " in="shadowComposite" />
    </filter>
    <g id="widget170">
      <path d="M 1130 101  A 3 3 0 0 1 1133 98 L 1311 98  A 3 3 0 0 1 1314 101 L 1314 203  A 3 3 0 0 1 1311 206 L 1133 206  A 3 3 0 0 1 1130 203 L 1130 101  Z " fill-rule="nonzero" fill="#ffffff" stroke="none" />
      <path d="M 1129.5 101  A 3.5 3.5 0 0 1 1133 97.5 L 1311 97.5  A 3.5 3.5 0 0 1 1314.5 101 L 1314.5 203  A 3.5 3.5 0 0 1 1311 206.5 L 1133 206.5  A 3.5 3.5 0 0 1 1129.5 203 L 1129.5 101  Z " stroke-width="1" stroke="#797979" fill="none" stroke-opacity="0.196078431372549" />
    </g>
  </defs>
  <g transform="matrix(1 0 0 1 -1129 -97 )">
    <use xlink:href="#widget170" filter="url(#filter169)" />
    <use xlink:href="#widget170" />
  </g>
</svg>