<?xml version="1.0" encoding="utf-8"?>
<svg version="1.1" xmlns:xlink="http://www.w3.org/1999/xlink" width="196px" height="104px" xmlns="http://www.w3.org/2000/svg">
  <defs>
    <filter x="999px" y="187px" width="196px" height="104px" filterUnits="userSpaceOnUse" id="filter189">
      <feOffset dx="5" dy="5" in="SourceAlpha" result="shadowOffsetInner" />
      <feGaussianBlur stdDeviation="2.5" in="shadowOffsetInner" result="shadowGaussian" />
      <feComposite in2="shadowGaussian" operator="atop" in="SourceAlpha" result="shadowComposite" />
      <feColorMatrix type="matrix" values="0 0 0 0 0  0 0 0 0 0  0 0 0 0 0  0 0 0 0.156862745098039 0  " in="shadowComposite" />
    </filter>
    <g id="widget190">
      <path d="M 1000 191  A 3 3 0 0 1 1003 188 L 1181 188  A 3 3 0 0 1 1184 191 L 1184 277  A 3 3 0 0 1 1181 280 L 1003 280  A 3 3 0 0 1 1000 277 L 1000 191  Z " fill-rule="nonzero" fill="#ffffff" stroke="none" />
      <path d="M 999.5 191  A 3.5 3.5 0 0 1 1003 187.5 L 1181 187.5  A 3.5 3.5 0 0 1 1184.5 191 L 1184.5 277  A 3.5 3.5 0 0 1 1181 280.5 L 1003 280.5  A 3.5 3.5 0 0 1 999.5 277 L 999.5 191  Z " stroke-width="1" stroke="#797979" fill="none" stroke-opacity="0.196078431372549" />
    </g>
  </defs>
  <g transform="matrix(1 0 0 1 -999 -187 )">
    <use xlink:href="#widget190" filter="url(#filter189)" />
    <use xlink:href="#widget190" />
  </g>
</svg>