<?xml version="1.0" encoding="utf-8"?>
<svg version="1.1" xmlns:xlink="http://www.w3.org/1999/xlink" width="196px" height="213px" xmlns="http://www.w3.org/2000/svg">
  <defs>
    <filter x="1677px" y="541px" width="196px" height="213px" filterUnits="userSpaceOnUse" id="filter227">
      <feOffset dx="5" dy="5" in="SourceAlpha" result="shadowOffsetInner" />
      <feGaussianBlur stdDeviation="2.5" in="shadowOffsetInner" result="shadowGaussian" />
      <feComposite in2="shadowGaussian" operator="atop" in="SourceAlpha" result="shadowComposite" />
      <feColorMatrix type="matrix" values="0 0 0 0 0  0 0 0 0 0  0 0 0 0 0  0 0 0 0.156862745098039 0  " in="shadowComposite" />
    </filter>
    <g id="widget228">
      <path d="M 1678 545  A 3 3 0 0 1 1681 542 L 1859 542  A 3 3 0 0 1 1862 545 L 1862 740  A 3 3 0 0 1 1859 743 L 1681 743  A 3 3 0 0 1 1678 740 L 1678 545  Z " fill-rule="nonzero" fill="#ffffff" stroke="none" />
      <path d="M 1677.5 545  A 3.5 3.5 0 0 1 1681 541.5 L 1859 541.5  A 3.5 3.5 0 0 1 1862.5 545 L 1862.5 740  A 3.5 3.5 0 0 1 1859 743.5 L 1681 743.5  A 3.5 3.5 0 0 1 1677.5 740 L 1677.5 545  Z " stroke-width="1" stroke="#797979" fill="none" stroke-opacity="0.196078431372549" />
    </g>
  </defs>
  <g transform="matrix(1 0 0 1 -1677 -541 )">
    <use xlink:href="#widget228" filter="url(#filter227)" />
    <use xlink:href="#widget228" />
  </g>
</svg>