<?xml version="1.0" encoding="utf-8"?>
<svg version="1.1" xmlns:xlink="http://www.w3.org/1999/xlink" width="196px" height="92px" xmlns="http://www.w3.org/2000/svg">
  <defs>
    <filter x="697px" y="326px" width="196px" height="92px" filterUnits="userSpaceOnUse" id="filter181">
      <feOffset dx="5" dy="5" in="SourceAlpha" result="shadowOffsetInner" />
      <feGaussianBlur stdDeviation="2.5" in="shadowOffsetInner" result="shadowGaussian" />
      <feComposite in2="shadowGaussian" operator="atop" in="SourceAlpha" result="shadowComposite" />
      <feColorMatrix type="matrix" values="0 0 0 0 0  0 0 0 0 0  0 0 0 0 0  0 0 0 0.156862745098039 0  " in="shadowComposite" />
    </filter>
    <g id="widget182">
      <path d="M 698 330  A 3 3 0 0 1 701 327 L 879 327  A 3 3 0 0 1 882 330 L 882 404  A 3 3 0 0 1 879 407 L 701 407  A 3 3 0 0 1 698 404 L 698 330  Z " fill-rule="nonzero" fill="#ffffff" stroke="none" />
      <path d="M 697.5 330  A 3.5 3.5 0 0 1 701 326.5 L 879 326.5  A 3.5 3.5 0 0 1 882.5 330 L 882.5 404  A 3.5 3.5 0 0 1 879 407.5 L 701 407.5  A 3.5 3.5 0 0 1 697.5 404 L 697.5 330  Z " stroke-width="1" stroke="#797979" fill="none" stroke-opacity="0.196078431372549" />
    </g>
  </defs>
  <g transform="matrix(1 0 0 1 -697 -326 )">
    <use xlink:href="#widget182" filter="url(#filter181)" />
    <use xlink:href="#widget182" />
  </g>
</svg>