<?xml version="1.0" encoding="utf-8"?>
<svg version="1.1" xmlns:xlink="http://www.w3.org/1999/xlink" width="272px" height="68px" xmlns="http://www.w3.org/2000/svg">
  <defs>
    <filter x="466px" y="215px" width="272px" height="68px" filterUnits="userSpaceOnUse" id="filter63">
      <feOffset dx="5" dy="5" in="SourceAlpha" result="shadowOffsetInner" />
      <feGaussianBlur stdDeviation="2.5" in="shadowOffsetInner" result="shadowGaussian" />
      <feComposite in2="shadowGaussian" operator="atop" in="SourceAlpha" result="shadowComposite" />
      <feColorMatrix type="matrix" values="0 0 0 0 0  0 0 0 0 0  0 0 0 0 0  0 0 0 0.156862745098039 0  " in="shadowComposite" />
    </filter>
    <g id="widget64">
      <path d="M 467 219  A 3 3 0 0 1 470 216 L 724 216  A 3 3 0 0 1 727 219 L 727 269  A 3 3 0 0 1 724 272 L 470 272  A 3 3 0 0 1 467 269 L 467 219  Z " fill-rule="nonzero" fill="#ffffff" stroke="none" />
      <path d="M 466.5 219  A 3.5 3.5 0 0 1 470 215.5 L 724 215.5  A 3.5 3.5 0 0 1 727.5 219 L 727.5 269  A 3.5 3.5 0 0 1 724 272.5 L 470 272.5  A 3.5 3.5 0 0 1 466.5 269 L 466.5 219  Z " stroke-width="1" stroke="#797979" fill="none" stroke-opacity="0.196078431372549" />
    </g>
  </defs>
  <g transform="matrix(1 0 0 1 -466 -215 )">
    <use xlink:href="#widget64" filter="url(#filter63)" />
    <use xlink:href="#widget64" />
  </g>
</svg>