<?xml version="1.0" encoding="utf-8"?>
<svg version="1.1" xmlns:xlink="http://www.w3.org/1999/xlink" width="177px" height="119px" xmlns="http://www.w3.org/2000/svg">
  <defs>
    <filter x="1251px" y="393px" width="177px" height="119px" filterUnits="userSpaceOnUse" id="filter43">
      <feOffset dx="5" dy="5" in="SourceAlpha" result="shadowOffsetInner" />
      <feGaussianBlur stdDeviation="2.5" in="shadowOffsetInner" result="shadowGaussian" />
      <feComposite in2="shadowGaussian" operator="atop" in="SourceAlpha" result="shadowComposite" />
      <feColorMatrix type="matrix" values="0 0 0 0 0  0 0 0 0 0  0 0 0 0 0  0 0 0 0.156862745098039 0  " in="shadowComposite" />
    </filter>
    <g id="widget44">
      <path d="M 1252 397  A 3 3 0 0 1 1255 394 L 1414 394  A 3 3 0 0 1 1417 397 L 1417 498  A 3 3 0 0 1 1414 501 L 1255 501  A 3 3 0 0 1 1252 498 L 1252 397  Z " fill-rule="nonzero" fill="#ffffff" stroke="none" />
      <path d="M 1251.5 397  A 3.5 3.5 0 0 1 1255 393.5 L 1414 393.5  A 3.5 3.5 0 0 1 1417.5 397 L 1417.5 498  A 3.5 3.5 0 0 1 1414 501.5 L 1255 501.5  A 3.5 3.5 0 0 1 1251.5 498 L 1251.5 397  Z " stroke-width="1" stroke="#797979" fill="none" stroke-opacity="0.196078431372549" />
    </g>
  </defs>
  <g transform="matrix(1 0 0 1 -1251 -393 )">
    <use xlink:href="#widget44" filter="url(#filter43)" />
    <use xlink:href="#widget44" />
  </g>
</svg>