<?xml version="1.0" encoding="utf-8"?>
<svg version="1.1" xmlns:xlink="http://www.w3.org/1999/xlink" width="215px" height="73px" xmlns="http://www.w3.org/2000/svg">
  <defs>
    <filter x="1548px" y="844px" width="215px" height="73px" filterUnits="userSpaceOnUse" id="filter205">
      <feOffset dx="5" dy="5" in="SourceAlpha" result="shadowOffsetInner" />
      <feGaussianBlur stdDeviation="2.5" in="shadowOffsetInner" result="shadowGaussian" />
      <feComposite in2="shadowGaussian" operator="atop" in="SourceAlpha" result="shadowComposite" />
      <feColorMatrix type="matrix" values="0 0 0 0 0  0 0 0 0 0  0 0 0 0 0  0 0 0 0.156862745098039 0  " in="shadowComposite" />
    </filter>
    <g id="widget206">
      <path d="M 1549 848  A 3 3 0 0 1 1552 845 L 1749 845  A 3 3 0 0 1 1752 848 L 1752 903  A 3 3 0 0 1 1749 906 L 1552 906  A 3 3 0 0 1 1549 903 L 1549 848  Z " fill-rule="nonzero" fill="#ffffff" stroke="none" />
      <path d="M 1548.5 848  A 3.5 3.5 0 0 1 1552 844.5 L 1749 844.5  A 3.5 3.5 0 0 1 1752.5 848 L 1752.5 903  A 3.5 3.5 0 0 1 1749 906.5 L 1552 906.5  A 3.5 3.5 0 0 1 1548.5 903 L 1548.5 848  Z " stroke-width="1" stroke="#797979" fill="none" stroke-opacity="0.196078431372549" />
    </g>
  </defs>
  <g transform="matrix(1 0 0 1 -1548 -844 )">
    <use xlink:href="#widget206" filter="url(#filter205)" />
    <use xlink:href="#widget206" />
  </g>
</svg>