<?xml version="1.0" encoding="utf-8"?>
<svg version="1.1" xmlns:xlink="http://www.w3.org/1999/xlink" width="196px" height="95px" xmlns="http://www.w3.org/2000/svg">
  <defs>
    <filter x="1584px" y="63px" width="196px" height="95px" filterUnits="userSpaceOnUse" id="filter185">
      <feOffset dx="5" dy="5" in="SourceAlpha" result="shadowOffsetInner" />
      <feGaussianBlur stdDeviation="2.5" in="shadowOffsetInner" result="shadowGaussian" />
      <feComposite in2="shadowGaussian" operator="atop" in="SourceAlpha" result="shadowComposite" />
      <feColorMatrix type="matrix" values="0 0 0 0 0  0 0 0 0 0  0 0 0 0 0  0 0 0 0.156862745098039 0  " in="shadowComposite" />
    </filter>
    <g id="widget186">
      <path d="M 1585 67  A 3 3 0 0 1 1588 64 L 1766 64  A 3 3 0 0 1 1769 67 L 1769 144  A 3 3 0 0 1 1766 147 L 1588 147  A 3 3 0 0 1 1585 144 L 1585 67  Z " fill-rule="nonzero" fill="#ffffff" stroke="none" />
      <path d="M 1584.5 67  A 3.5 3.5 0 0 1 1588 63.5 L 1766 63.5  A 3.5 3.5 0 0 1 1769.5 67 L 1769.5 144  A 3.5 3.5 0 0 1 1766 147.5 L 1588 147.5  A 3.5 3.5 0 0 1 1584.5 144 L 1584.5 67  Z " stroke-width="1" stroke="#797979" fill="none" stroke-opacity="0.196078431372549" />
    </g>
  </defs>
  <g transform="matrix(1 0 0 1 -1584 -63 )">
    <use xlink:href="#widget186" filter="url(#filter185)" />
    <use xlink:href="#widget186" />
  </g>
</svg>