<?xml version="1.0" encoding="utf-8"?>
<svg version="1.1" xmlns:xlink="http://www.w3.org/1999/xlink" width="177px" height="103px" xmlns="http://www.w3.org/2000/svg">
  <defs>
    <filter x="986px" y="422px" width="177px" height="103px" filterUnits="userSpaceOnUse" id="filter145">
      <feOffset dx="5" dy="5" in="SourceAlpha" result="shadowOffsetInner" />
      <feGaussianBlur stdDeviation="2.5" in="shadowOffsetInner" result="shadowGaussian" />
      <feComposite in2="shadowGaussian" operator="atop" in="SourceAlpha" result="shadowComposite" />
      <feColorMatrix type="matrix" values="0 0 0 0 0  0 0 0 0 0  0 0 0 0 0  0 0 0 0.156862745098039 0  " in="shadowComposite" />
    </filter>
    <g id="widget146">
      <path d="M 987 426  A 3 3 0 0 1 990 423 L 1149 423  A 3 3 0 0 1 1152 426 L 1152 511  A 3 3 0 0 1 1149 514 L 990 514  A 3 3 0 0 1 987 511 L 987 426  Z " fill-rule="nonzero" fill="#ffffff" stroke="none" />
      <path d="M 986.5 426  A 3.5 3.5 0 0 1 990 422.5 L 1149 422.5  A 3.5 3.5 0 0 1 1152.5 426 L 1152.5 511  A 3.5 3.5 0 0 1 1149 514.5 L 990 514.5  A 3.5 3.5 0 0 1 986.5 511 L 986.5 426  Z " stroke-width="1" stroke="#797979" fill="none" stroke-opacity="0.196078431372549" />
    </g>
  </defs>
  <g transform="matrix(1 0 0 1 -986 -422 )">
    <use xlink:href="#widget146" filter="url(#filter145)" />
    <use xlink:href="#widget146" />
  </g>
</svg>