<?xml version="1.0" encoding="utf-8"?>
<svg version="1.1" xmlns:xlink="http://www.w3.org/1999/xlink" width="177px" height="59px" xmlns="http://www.w3.org/2000/svg">
  <defs>
    <filter x="840px" y="768px" width="177px" height="59px" filterUnits="userSpaceOnUse" id="filter55">
      <feOffset dx="5" dy="5" in="SourceAlpha" result="shadowOffsetInner" />
      <feGaussianBlur stdDeviation="2.5" in="shadowOffsetInner" result="shadowGaussian" />
      <feComposite in2="shadowGaussian" operator="atop" in="SourceAlpha" result="shadowComposite" />
      <feColorMatrix type="matrix" values="0 0 0 0 0  0 0 0 0 0  0 0 0 0 0  0 0 0 0.156862745098039 0  " in="shadowComposite" />
    </filter>
    <g id="widget56">
      <path d="M 841 772  A 3 3 0 0 1 844 769 L 1003 769  A 3 3 0 0 1 1006 772 L 1006 813  A 3 3 0 0 1 1003 816 L 844 816  A 3 3 0 0 1 841 813 L 841 772  Z " fill-rule="nonzero" fill="#ffffff" stroke="none" />
      <path d="M 840.5 772  A 3.5 3.5 0 0 1 844 768.5 L 1003 768.5  A 3.5 3.5 0 0 1 1006.5 772 L 1006.5 813  A 3.5 3.5 0 0 1 1003 816.5 L 844 816.5  A 3.5 3.5 0 0 1 840.5 813 L 840.5 772  Z " stroke-width="1" stroke="#797979" fill="none" stroke-opacity="0.196078431372549" />
    </g>
  </defs>
  <g transform="matrix(1 0 0 1 -840 -768 )">
    <use xlink:href="#widget56" filter="url(#filter55)" />
    <use xlink:href="#widget56" />
  </g>
</svg>