<?xml version="1.0" encoding="utf-8"?>
<svg version="1.1" xmlns:xlink="http://www.w3.org/1999/xlink" width="177px" height="139px" xmlns="http://www.w3.org/2000/svg">
  <defs>
    <filter x="1069px" y="38px" width="177px" height="139px" filterUnits="userSpaceOnUse" id="filter41">
      <feOffset dx="5" dy="5" in="SourceAlpha" result="shadowOffsetInner" />
      <feGaussianBlur stdDeviation="2.5" in="shadowOffsetInner" result="shadowGaussian" />
      <feComposite in2="shadowGaussian" operator="atop" in="SourceAlpha" result="shadowComposite" />
      <feColorMatrix type="matrix" values="0 0 0 0 0  0 0 0 0 0  0 0 0 0 0  0 0 0 0.156862745098039 0  " in="shadowComposite" />
    </filter>
    <g id="widget42">
      <path d="M 1070 42  A 3 3 0 0 1 1073 39 L 1232 39  A 3 3 0 0 1 1235 42 L 1235 163  A 3 3 0 0 1 1232 166 L 1073 166  A 3 3 0 0 1 1070 163 L 1070 42  Z " fill-rule="nonzero" fill="#ffffff" stroke="none" />
      <path d="M 1069.5 42  A 3.5 3.5 0 0 1 1073 38.5 L 1232 38.5  A 3.5 3.5 0 0 1 1235.5 42 L 1235.5 163  A 3.5 3.5 0 0 1 1232 166.5 L 1073 166.5  A 3.5 3.5 0 0 1 1069.5 163 L 1069.5 42  Z " stroke-width="1" stroke="#797979" fill="none" stroke-opacity="0.196078431372549" />
    </g>
  </defs>
  <g transform="matrix(1 0 0 1 -1069 -38 )">
    <use xlink:href="#widget42" filter="url(#filter41)" />
    <use xlink:href="#widget42" />
  </g>
</svg>