<?xml version="1.0" encoding="utf-8"?>
<svg version="1.1" xmlns:xlink="http://www.w3.org/1999/xlink" width="177px" height="142px" xmlns="http://www.w3.org/2000/svg">
  <defs>
    <filter x="1147px" y="799px" width="177px" height="142px" filterUnits="userSpaceOnUse" id="filter53">
      <feOffset dx="5" dy="5" in="SourceAlpha" result="shadowOffsetInner" />
      <feGaussianBlur stdDeviation="2.5" in="shadowOffsetInner" result="shadowGaussian" />
      <feComposite in2="shadowGaussian" operator="atop" in="SourceAlpha" result="shadowComposite" />
      <feColorMatrix type="matrix" values="0 0 0 0 0  0 0 0 0 0  0 0 0 0 0  0 0 0 0.156862745098039 0  " in="shadowComposite" />
    </filter>
    <g id="widget54">
      <path d="M 1148 803  A 3 3 0 0 1 1151 800 L 1310 800  A 3 3 0 0 1 1313 803 L 1313 927  A 3 3 0 0 1 1310 930 L 1151 930  A 3 3 0 0 1 1148 927 L 1148 803  Z " fill-rule="nonzero" fill="#ffffff" stroke="none" />
      <path d="M 1147.5 803  A 3.5 3.5 0 0 1 1151 799.5 L 1310 799.5  A 3.5 3.5 0 0 1 1313.5 803 L 1313.5 927  A 3.5 3.5 0 0 1 1310 930.5 L 1151 930.5  A 3.5 3.5 0 0 1 1147.5 927 L 1147.5 803  Z " stroke-width="1" stroke="#797979" fill="none" stroke-opacity="0.196078431372549" />
    </g>
  </defs>
  <g transform="matrix(1 0 0 1 -1147 -799 )">
    <use xlink:href="#widget54" filter="url(#filter53)" />
    <use xlink:href="#widget54" />
  </g>
</svg>