<?xml version="1.0" encoding="utf-8"?>
<svg version="1.1" xmlns:xlink="http://www.w3.org/1999/xlink" width="283px" height="89px" xmlns="http://www.w3.org/2000/svg">
  <defs>
    <filter x="397px" y="168px" width="283px" height="89px" filterUnits="userSpaceOnUse" id="filter151">
      <feOffset dx="5" dy="5" in="SourceAlpha" result="shadowOffsetInner" />
      <feGaussianBlur stdDeviation="2.5" in="shadowOffsetInner" result="shadowGaussian" />
      <feComposite in2="shadowGaussian" operator="atop" in="SourceAlpha" result="shadowComposite" />
      <feColorMatrix type="matrix" values="0 0 0 0 0  0 0 0 0 0  0 0 0 0 0  0 0 0 0.156862745098039 0  " in="shadowComposite" />
    </filter>
    <g id="widget152">
      <path d="M 398 172  A 3 3 0 0 1 401 169 L 666 169  A 3 3 0 0 1 669 172 L 669 243  A 3 3 0 0 1 666 246 L 401 246  A 3 3 0 0 1 398 243 L 398 172  Z " fill-rule="nonzero" fill="#ffffff" stroke="none" />
      <path d="M 397.5 172  A 3.5 3.5 0 0 1 401 168.5 L 666 168.5  A 3.5 3.5 0 0 1 669.5 172 L 669.5 243  A 3.5 3.5 0 0 1 666 246.5 L 401 246.5  A 3.5 3.5 0 0 1 397.5 243 L 397.5 172  Z " stroke-width="1" stroke="#797979" fill="none" stroke-opacity="0.196078431372549" />
    </g>
  </defs>
  <g transform="matrix(1 0 0 1 -397 -168 )">
    <use xlink:href="#widget152" filter="url(#filter151)" />
    <use xlink:href="#widget152" />
  </g>
</svg>