<?xml version="1.0" encoding="utf-8"?>
<svg version="1.1" xmlns:xlink="http://www.w3.org/1999/xlink" width="196px" height="97px" xmlns="http://www.w3.org/2000/svg">
  <defs>
    <filter x="682px" y="88px" width="196px" height="97px" filterUnits="userSpaceOnUse" id="filter179">
      <feOffset dx="5" dy="5" in="SourceAlpha" result="shadowOffsetInner" />
      <feGaussianBlur stdDeviation="2.5" in="shadowOffsetInner" result="shadowGaussian" />
      <feComposite in2="shadowGaussian" operator="atop" in="SourceAlpha" result="shadowComposite" />
      <feColorMatrix type="matrix" values="0 0 0 0 0  0 0 0 0 0  0 0 0 0 0  0 0 0 0.156862745098039 0  " in="shadowComposite" />
    </filter>
    <g id="widget180">
      <path d="M 683 92  A 3 3 0 0 1 686 89 L 864 89  A 3 3 0 0 1 867 92 L 867 171  A 3 3 0 0 1 864 174 L 686 174  A 3 3 0 0 1 683 171 L 683 92  Z " fill-rule="nonzero" fill="#ffffff" stroke="none" />
      <path d="M 682.5 92  A 3.5 3.5 0 0 1 686 88.5 L 864 88.5  A 3.5 3.5 0 0 1 867.5 92 L 867.5 171  A 3.5 3.5 0 0 1 864 174.5 L 686 174.5  A 3.5 3.5 0 0 1 682.5 171 L 682.5 92  Z " stroke-width="1" stroke="#797979" fill="none" stroke-opacity="0.196078431372549" />
    </g>
  </defs>
  <g transform="matrix(1 0 0 1 -682 -88 )">
    <use xlink:href="#widget180" filter="url(#filter179)" />
    <use xlink:href="#widget180" />
  </g>
</svg>