<?xml version="1.0" encoding="utf-8"?>
<svg version="1.1" xmlns:xlink="http://www.w3.org/1999/xlink" width="177px" height="154px" xmlns="http://www.w3.org/2000/svg">
  <defs>
    <filter x="65px" y="69px" width="177px" height="154px" filterUnits="userSpaceOnUse" id="filter129">
      <feOffset dx="5" dy="5" in="SourceAlpha" result="shadowOffsetInner" />
      <feGaussianBlur stdDeviation="2.5" in="shadowOffsetInner" result="shadowGaussian" />
      <feComposite in2="shadowGaussian" operator="atop" in="SourceAlpha" result="shadowComposite" />
      <feColorMatrix type="matrix" values="0 0 0 0 0  0 0 0 0 0  0 0 0 0 0  0 0 0 0.156862745098039 0  " in="shadowComposite" />
    </filter>
    <g id="widget130">
      <path d="M 66 73  A 3 3 0 0 1 69 70 L 228 70  A 3 3 0 0 1 231 73 L 231 209  A 3 3 0 0 1 228 212 L 69 212  A 3 3 0 0 1 66 209 L 66 73  Z " fill-rule="nonzero" fill="#ffffff" stroke="none" />
      <path d="M 65.5 73  A 3.5 3.5 0 0 1 69 69.5 L 228 69.5  A 3.5 3.5 0 0 1 231.5 73 L 231.5 209  A 3.5 3.5 0 0 1 228 212.5 L 69 212.5  A 3.5 3.5 0 0 1 65.5 209 L 65.5 73  Z " stroke-width="1" stroke="#797979" fill="none" stroke-opacity="0.196078431372549" />
    </g>
  </defs>
  <g transform="matrix(1 0 0 1 -65 -69 )">
    <use xlink:href="#widget130" filter="url(#filter129)" />
    <use xlink:href="#widget130" />
  </g>
</svg>