<?xml version="1.0" encoding="utf-8"?>
<svg version="1.1" xmlns:xlink="http://www.w3.org/1999/xlink" width="336px" height="214px" xmlns="http://www.w3.org/2000/svg">
  <defs>
    <filter x="484px" y="148px" width="336px" height="214px" filterUnits="userSpaceOnUse" id="filter131">
      <feOffset dx="5" dy="5" in="SourceAlpha" result="shadowOffsetInner" />
      <feGaussianBlur stdDeviation="2.5" in="shadowOffsetInner" result="shadowGaussian" />
      <feComposite in2="shadowGaussian" operator="atop" in="SourceAlpha" result="shadowComposite" />
      <feColorMatrix type="matrix" values="0 0 0 0 0  0 0 0 0 0  0 0 0 0 0  0 0 0 0.156862745098039 0  " in="shadowComposite" />
    </filter>
    <g id="widget132">
      <path d="M 485 152  A 3 3 0 0 1 488 149 L 806 149  A 3 3 0 0 1 809 152 L 809 348  A 3 3 0 0 1 806 351 L 488 351  A 3 3 0 0 1 485 348 L 485 152  Z " fill-rule="nonzero" fill="#ffffff" stroke="none" />
      <path d="M 484.5 152  A 3.5 3.5 0 0 1 488 148.5 L 806 148.5  A 3.5 3.5 0 0 1 809.5 152 L 809.5 348  A 3.5 3.5 0 0 1 806 351.5 L 488 351.5  A 3.5 3.5 0 0 1 484.5 348 L 484.5 152  Z " stroke-width="1" stroke="#797979" fill="none" stroke-opacity="0.196078431372549" />
    </g>
  </defs>
  <g transform="matrix(1 0 0 1 -484 -148 )">
    <use xlink:href="#widget132" filter="url(#filter131)" />
    <use xlink:href="#widget132" />
  </g>
</svg>