<?xml version="1.0" encoding="utf-8"?>
<svg version="1.1" xmlns:xlink="http://www.w3.org/1999/xlink" width="247px" height="183px" xmlns="http://www.w3.org/2000/svg">
  <defs>
    <filter x="1441px" y="149px" width="247px" height="183px" filterUnits="userSpaceOnUse" id="filter109">
      <feOffset dx="5" dy="5" in="SourceAlpha" result="shadowOffsetInner" />
      <feGaussianBlur stdDeviation="2.5" in="shadowOffsetInner" result="shadowGaussian" />
      <feComposite in2="shadowGaussian" operator="atop" in="SourceAlpha" result="shadowComposite" />
      <feColorMatrix type="matrix" values="0 0 0 0 0  0 0 0 0 0  0 0 0 0 0  0 0 0 0.156862745098039 0  " in="shadowComposite" />
    </filter>
    <g id="widget110">
      <path d="M 1442 153  A 3 3 0 0 1 1445 150 L 1674 150  A 3 3 0 0 1 1677 153 L 1677 318  A 3 3 0 0 1 1674 321 L 1445 321  A 3 3 0 0 1 1442 318 L 1442 153  Z " fill-rule="nonzero" fill="#ffffff" stroke="none" />
      <path d="M 1441.5 153  A 3.5 3.5 0 0 1 1445 149.5 L 1674 149.5  A 3.5 3.5 0 0 1 1677.5 153 L 1677.5 318  A 3.5 3.5 0 0 1 1674 321.5 L 1445 321.5  A 3.5 3.5 0 0 1 1441.5 318 L 1441.5 153  Z " stroke-width="1" stroke="#797979" fill="none" stroke-opacity="0.196078431372549" />
    </g>
  </defs>
  <g transform="matrix(1 0 0 1 -1441 -149 )">
    <use xlink:href="#widget110" filter="url(#filter109)" />
    <use xlink:href="#widget110" />
  </g>
</svg>