<?xml version="1.0" encoding="utf-8"?>
<svg version="1.1" xmlns:xlink="http://www.w3.org/1999/xlink" width="398px" height="117px" xmlns="http://www.w3.org/2000/svg">
  <defs>
    <filter x="540px" y="591px" width="398px" height="117px" filterUnits="userSpaceOnUse" id="filter15">
      <feOffset dx="5" dy="5" in="SourceAlpha" result="shadowOffsetInner" />
      <feGaussianBlur stdDeviation="2.5" in="shadowOffsetInner" result="shadowGaussian" />
      <feComposite in2="shadowGaussian" operator="atop" in="SourceAlpha" result="shadowComposite" />
      <feColorMatrix type="matrix" values="0 0 0 0 0  0 0 0 0 0  0 0 0 0 0  0 0 0 0.156862745098039 0  " in="shadowComposite" />
    </filter>
    <g id="widget16">
      <path d="M 541 595  A 3 3 0 0 1 544 592 L 924 592  A 3 3 0 0 1 927 595 L 927 694  A 3 3 0 0 1 924 697 L 544 697  A 3 3 0 0 1 541 694 L 541 595  Z " fill-rule="nonzero" fill="#ffffff" stroke="none" />
      <path d="M 540.5 595  A 3.5 3.5 0 0 1 544 591.5 L 924 591.5  A 3.5 3.5 0 0 1 927.5 595 L 927.5 694  A 3.5 3.5 0 0 1 924 697.5 L 544 697.5  A 3.5 3.5 0 0 1 540.5 694 L 540.5 595  Z " stroke-width="1" stroke="#797979" fill="none" stroke-opacity="0.196078431372549" />
    </g>
  </defs>
  <g transform="matrix(1 0 0 1 -540 -591 )">
    <use xlink:href="#widget16" filter="url(#filter15)" />
    <use xlink:href="#widget16" />
  </g>
</svg>