<?xml version="1.0" encoding="utf-8"?>
<svg version="1.1" xmlns:xlink="http://www.w3.org/1999/xlink" width="398px" height="182px" xmlns="http://www.w3.org/2000/svg">
  <defs>
    <filter x="540px" y="630px" width="398px" height="182px" filterUnits="userSpaceOnUse" id="filter19">
      <feOffset dx="5" dy="5" in="SourceAlpha" result="shadowOffsetInner" />
      <feGaussianBlur stdDeviation="2.5" in="shadowOffsetInner" result="shadowGaussian" />
      <feComposite in2="shadowGaussian" operator="atop" in="SourceAlpha" result="shadowComposite" />
      <feColorMatrix type="matrix" values="0 0 0 0 0  0 0 0 0 0  0 0 0 0 0  0 0 0 0.156862745098039 0  " in="shadowComposite" />
    </filter>
    <g id="widget20">
      <path d="M 541 634  A 3 3 0 0 1 544 631 L 924 631  A 3 3 0 0 1 927 634 L 927 798  A 3 3 0 0 1 924 801 L 544 801  A 3 3 0 0 1 541 798 L 541 634  Z " fill-rule="nonzero" fill="#ffffff" stroke="none" />
      <path d="M 540.5 634  A 3.5 3.5 0 0 1 544 630.5 L 924 630.5  A 3.5 3.5 0 0 1 927.5 634 L 927.5 798  A 3.5 3.5 0 0 1 924 801.5 L 544 801.5  A 3.5 3.5 0 0 1 540.5 798 L 540.5 634  Z " stroke-width="1" stroke="#797979" fill="none" stroke-opacity="0.196078431372549" />
    </g>
  </defs>
  <g transform="matrix(1 0 0 1 -540 -630 )">
    <use xlink:href="#widget20" filter="url(#filter19)" />
    <use xlink:href="#widget20" />
  </g>
</svg>