<?xml version="1.0" encoding="utf-8"?>
<svg version="1.1" xmlns:xlink="http://www.w3.org/1999/xlink" width="162px" height="60px" xmlns="http://www.w3.org/2000/svg">
  <defs>
    <filter x="1436px" y="120px" width="162px" height="60px" filterUnits="userSpaceOnUse" id="filter199">
      <feOffset dx="5" dy="5" in="SourceAlpha" result="shadowOffsetInner" />
      <feGaussianBlur stdDeviation="2.5" in="shadowOffsetInner" result="shadowGaussian" />
      <feComposite in2="shadowGaussian" operator="atop" in="SourceAlpha" result="shadowComposite" />
      <feColorMatrix type="matrix" values="0 0 0 0 0  0 0 0 0 0  0 0 0 0 0  0 0 0 0.156862745098039 0  " in="shadowComposite" />
    </filter>
    <g id="widget200">
      <path d="M 1437 124  A 3 3 0 0 1 1440 121 L 1584 121  A 3 3 0 0 1 1587 124 L 1587 166  A 3 3 0 0 1 1584 169 L 1440 169  A 3 3 0 0 1 1437 166 L 1437 124  Z " fill-rule="nonzero" fill="#ffffff" stroke="none" />
      <path d="M 1436.5 124  A 3.5 3.5 0 0 1 1440 120.5 L 1584 120.5  A 3.5 3.5 0 0 1 1587.5 124 L 1587.5 166  A 3.5 3.5 0 0 1 1584 169.5 L 1440 169.5  A 3.5 3.5 0 0 1 1436.5 166 L 1436.5 124  Z " stroke-width="1" stroke="#797979" fill="none" stroke-opacity="0.196078431372549" />
    </g>
  </defs>
  <g transform="matrix(1 0 0 1 -1436 -120 )">
    <use xlink:href="#widget200" filter="url(#filter199)" />
    <use xlink:href="#widget200" />
  </g>
</svg>