<?xml version="1.0" encoding="utf-8"?>
<svg version="1.1" xmlns:xlink="http://www.w3.org/1999/xlink" width="398px" height="85px" xmlns="http://www.w3.org/2000/svg">
  <defs>
    <filter x="540px" y="516px" width="398px" height="85px" filterUnits="userSpaceOnUse" id="filter31">
      <feOffset dx="5" dy="5" in="SourceAlpha" result="shadowOffsetInner" />
      <feGaussianBlur stdDeviation="2.5" in="shadowOffsetInner" result="shadowGaussian" />
      <feComposite in2="shadowGaussian" operator="atop" in="SourceAlpha" result="shadowComposite" />
      <feColorMatrix type="matrix" values="0 0 0 0 0  0 0 0 0 0  0 0 0 0 0  0 0 0 0.156862745098039 0  " in="shadowComposite" />
    </filter>
    <g id="widget32">
      <path d="M 541 520  A 3 3 0 0 1 544 517 L 924 517  A 3 3 0 0 1 927 520 L 927 587  A 3 3 0 0 1 924 590 L 544 590  A 3 3 0 0 1 541 587 L 541 520  Z " fill-rule="nonzero" fill="#ffffff" stroke="none" />
      <path d="M 540.5 520  A 3.5 3.5 0 0 1 544 516.5 L 924 516.5  A 3.5 3.5 0 0 1 927.5 520 L 927.5 587  A 3.5 3.5 0 0 1 924 590.5 L 544 590.5  A 3.5 3.5 0 0 1 540.5 587 L 540.5 520  Z " stroke-width="1" stroke="#797979" fill="none" stroke-opacity="0.196078431372549" />
    </g>
  </defs>
  <g transform="matrix(1 0 0 1 -540 -516 )">
    <use xlink:href="#widget32" filter="url(#filter31)" />
    <use xlink:href="#widget32" />
  </g>
</svg>