<?xml version="1.0" encoding="utf-8"?>
<svg version="1.1" xmlns:xlink="http://www.w3.org/1999/xlink" width="162px" height="81px" xmlns="http://www.w3.org/2000/svg">
  <defs>
    <filter x="1186px" y="73px" width="162px" height="81px" filterUnits="userSpaceOnUse" id="filter197">
      <feOffset dx="5" dy="5" in="SourceAlpha" result="shadowOffsetInner" />
      <feGaussianBlur stdDeviation="2.5" in="shadowOffsetInner" result="shadowGaussian" />
      <feComposite in2="shadowGaussian" operator="atop" in="SourceAlpha" result="shadowComposite" />
      <feColorMatrix type="matrix" values="0 0 0 0 0  0 0 0 0 0  0 0 0 0 0  0 0 0 0.156862745098039 0  " in="shadowComposite" />
    </filter>
    <g id="widget198">
      <path d="M 1187 77  A 3 3 0 0 1 1190 74 L 1334 74  A 3 3 0 0 1 1337 77 L 1337 140  A 3 3 0 0 1 1334 143 L 1190 143  A 3 3 0 0 1 1187 140 L 1187 77  Z " fill-rule="nonzero" fill="#ffffff" stroke="none" />
      <path d="M 1186.5 77  A 3.5 3.5 0 0 1 1190 73.5 L 1334 73.5  A 3.5 3.5 0 0 1 1337.5 77 L 1337.5 140  A 3.5 3.5 0 0 1 1334 143.5 L 1190 143.5  A 3.5 3.5 0 0 1 1186.5 140 L 1186.5 77  Z " stroke-width="1" stroke="#797979" fill="none" stroke-opacity="0.196078431372549" />
    </g>
  </defs>
  <g transform="matrix(1 0 0 1 -1186 -73 )">
    <use xlink:href="#widget198" filter="url(#filter197)" />
    <use xlink:href="#widget198" />
  </g>
</svg>