<?xml version="1.0" encoding="utf-8"?>
<svg version="1.1" xmlns:xlink="http://www.w3.org/1999/xlink" width="398px" height="72px" xmlns="http://www.w3.org/2000/svg">
  <defs>
    <filter x="540px" y="737px" width="398px" height="72px" filterUnits="userSpaceOnUse" id="filter21">
      <feOffset dx="5" dy="5" in="SourceAlpha" result="shadowOffsetInner" />
      <feGaussianBlur stdDeviation="2.5" in="shadowOffsetInner" result="shadowGaussian" />
      <feComposite in2="shadowGaussian" operator="atop" in="SourceAlpha" result="shadowComposite" />
      <feColorMatrix type="matrix" values="0 0 0 0 0  0 0 0 0 0  0 0 0 0 0  0 0 0 0.156862745098039 0  " in="shadowComposite" />
    </filter>
    <g id="widget22">
      <path d="M 541 741  A 3 3 0 0 1 544 738 L 924 738  A 3 3 0 0 1 927 741 L 927 795  A 3 3 0 0 1 924 798 L 544 798  A 3 3 0 0 1 541 795 L 541 741  Z " fill-rule="nonzero" fill="#ffffff" stroke="none" />
      <path d="M 540.5 741  A 3.5 3.5 0 0 1 544 737.5 L 924 737.5  A 3.5 3.5 0 0 1 927.5 741 L 927.5 795  A 3.5 3.5 0 0 1 924 798.5 L 544 798.5  A 3.5 3.5 0 0 1 540.5 795 L 540.5 741  Z " stroke-width="1" stroke="#797979" fill="none" stroke-opacity="0.196078431372549" />
    </g>
  </defs>
  <g transform="matrix(1 0 0 1 -540 -737 )">
    <use xlink:href="#widget22" filter="url(#filter21)" />
    <use xlink:href="#widget22" />
  </g>
</svg>