<?xml version="1.0" encoding="utf-8"?>
<svg version="1.1" xmlns:xlink="http://www.w3.org/1999/xlink" width="311px" height="188px" xmlns="http://www.w3.org/2000/svg">
  <defs>
    <filter x="448px" y="142px" width="311px" height="188px" filterUnits="userSpaceOnUse" id="filter87">
      <feOffset dx="5" dy="5" in="SourceAlpha" result="shadowOffsetInner" />
      <feGaussianBlur stdDeviation="2.5" in="shadowOffsetInner" result="shadowGaussian" />
      <feComposite in2="shadowGaussian" operator="atop" in="SourceAlpha" result="shadowComposite" />
      <feColorMatrix type="matrix" values="0 0 0 0 0  0 0 0 0 0  0 0 0 0 0  0 0 0 0.156862745098039 0  " in="shadowComposite" />
    </filter>
    <g id="widget88">
      <path d="M 449 146  A 3 3 0 0 1 452 143 L 745 143  A 3 3 0 0 1 748 146 L 748 316  A 3 3 0 0 1 745 319 L 452 319  A 3 3 0 0 1 449 316 L 449 146  Z " fill-rule="nonzero" fill="#ffffff" stroke="none" />
      <path d="M 448.5 146  A 3.5 3.5 0 0 1 452 142.5 L 745 142.5  A 3.5 3.5 0 0 1 748.5 146 L 748.5 316  A 3.5 3.5 0 0 1 745 319.5 L 452 319.5  A 3.5 3.5 0 0 1 448.5 316 L 448.5 146  Z " stroke-width="1" stroke="#797979" fill="none" stroke-opacity="0.196078431372549" />
    </g>
  </defs>
  <g transform="matrix(1 0 0 1 -448 -142 )">
    <use xlink:href="#widget88" filter="url(#filter87)" />
    <use xlink:href="#widget88" />
  </g>
</svg>