<?xml version="1.0" encoding="utf-8"?>
<svg version="1.1" xmlns:xlink="http://www.w3.org/1999/xlink" width="295px" height="96px" xmlns="http://www.w3.org/2000/svg">
  <defs>
    <filter x="493px" y="220px" width="295px" height="96px" filterUnits="userSpaceOnUse" id="filter83">
      <feOffset dx="5" dy="5" in="SourceAlpha" result="shadowOffsetInner" />
      <feGaussianBlur stdDeviation="2.5" in="shadowOffsetInner" result="shadowGaussian" />
      <feComposite in2="shadowGaussian" operator="atop" in="SourceAlpha" result="shadowComposite" />
      <feColorMatrix type="matrix" values="0 0 0 0 0  0 0 0 0 0  0 0 0 0 0  0 0 0 0.156862745098039 0  " in="shadowComposite" />
    </filter>
    <g id="widget84">
      <path d="M 494 224  A 3 3 0 0 1 497 221 L 774 221  A 3 3 0 0 1 777 224 L 777 302  A 3 3 0 0 1 774 305 L 497 305  A 3 3 0 0 1 494 302 L 494 224  Z " fill-rule="nonzero" fill="#ffffff" stroke="none" />
      <path d="M 493.5 224  A 3.5 3.5 0 0 1 497 220.5 L 774 220.5  A 3.5 3.5 0 0 1 777.5 224 L 777.5 302  A 3.5 3.5 0 0 1 774 305.5 L 497 305.5  A 3.5 3.5 0 0 1 493.5 302 L 493.5 224  Z " stroke-width="1" stroke="#797979" fill="none" stroke-opacity="0.196078431372549" />
    </g>
  </defs>
  <g transform="matrix(1 0 0 1 -493 -220 )">
    <use xlink:href="#widget84" filter="url(#filter83)" />
    <use xlink:href="#widget84" />
  </g>
</svg>