<?xml version="1.0" encoding="utf-8"?>
<svg version="1.1" xmlns:xlink="http://www.w3.org/1999/xlink" width="245px" height="108px" xmlns="http://www.w3.org/2000/svg">
  <defs>
    <filter x="1501px" y="90px" width="245px" height="108px" filterUnits="userSpaceOnUse" id="filter81">
      <feOffset dx="5" dy="5" in="SourceAlpha" result="shadowOffsetInner" />
      <feGaussianBlur stdDeviation="2.5" in="shadowOffsetInner" result="shadowGaussian" />
      <feComposite in2="shadowGaussian" operator="atop" in="SourceAlpha" result="shadowComposite" />
      <feColorMatrix type="matrix" values="0 0 0 0 0  0 0 0 0 0  0 0 0 0 0  0 0 0 0.156862745098039 0  " in="shadowComposite" />
    </filter>
    <g id="widget82">
      <path d="M 1502 94  A 3 3 0 0 1 1505 91 L 1732 91  A 3 3 0 0 1 1735 94 L 1735 184  A 3 3 0 0 1 1732 187 L 1505 187  A 3 3 0 0 1 1502 184 L 1502 94  Z " fill-rule="nonzero" fill="#ffffff" stroke="none" />
      <path d="M 1501.5 94  A 3.5 3.5 0 0 1 1505 90.5 L 1732 90.5  A 3.5 3.5 0 0 1 1735.5 94 L 1735.5 184  A 3.5 3.5 0 0 1 1732 187.5 L 1505 187.5  A 3.5 3.5 0 0 1 1501.5 184 L 1501.5 94  Z " stroke-width="1" stroke="#797979" fill="none" stroke-opacity="0.196078431372549" />
    </g>
  </defs>
  <g transform="matrix(1 0 0 1 -1501 -90 )">
    <use xlink:href="#widget82" filter="url(#filter81)" />
    <use xlink:href="#widget82" />
  </g>
</svg>