<?xml version="1.0" encoding="utf-8"?>
<svg version="1.1" xmlns:xlink="http://www.w3.org/1999/xlink" width="311px" height="164px" xmlns="http://www.w3.org/2000/svg">
  <defs>
    <filter x="507px" y="33px" width="311px" height="164px" filterUnits="userSpaceOnUse" id="filter85">
      <feOffset dx="5" dy="5" in="SourceAlpha" result="shadowOffsetInner" />
      <feGaussianBlur stdDeviation="2.5" in="shadowOffsetInner" result="shadowGaussian" />
      <feComposite in2="shadowGaussian" operator="atop" in="SourceAlpha" result="shadowComposite" />
      <feColorMatrix type="matrix" values="0 0 0 0 0  0 0 0 0 0  0 0 0 0 0  0 0 0 0.156862745098039 0  " in="shadowComposite" />
    </filter>
    <g id="widget86">
      <path d="M 508 37  A 3 3 0 0 1 511 34 L 804 34  A 3 3 0 0 1 807 37 L 807 183  A 3 3 0 0 1 804 186 L 511 186  A 3 3 0 0 1 508 183 L 508 37  Z " fill-rule="nonzero" fill="#ffffff" stroke="none" />
      <path d="M 507.5 37  A 3.5 3.5 0 0 1 511 33.5 L 804 33.5  A 3.5 3.5 0 0 1 807.5 37 L 807.5 183  A 3.5 3.5 0 0 1 804 186.5 L 511 186.5  A 3.5 3.5 0 0 1 507.5 183 L 507.5 37  Z " stroke-width="1" stroke="#797979" fill="none" stroke-opacity="0.196078431372549" />
    </g>
  </defs>
  <g transform="matrix(1 0 0 1 -507 -33 )">
    <use xlink:href="#widget86" filter="url(#filter85)" />
    <use xlink:href="#widget86" />
  </g>
</svg>