<?xml version="1.0" encoding="utf-8"?>
<svg version="1.1" xmlns:xlink="http://www.w3.org/1999/xlink" width="245px" height="174px" xmlns="http://www.w3.org/2000/svg">
  <defs>
    <filter x="56px" y="705px" width="245px" height="174px" filterUnits="userSpaceOnUse" id="filter17">
      <feOffset dx="5" dy="5" in="SourceAlpha" result="shadowOffsetInner" />
      <feGaussianBlur stdDeviation="2.5" in="shadowOffsetInner" result="shadowGaussian" />
      <feComposite in2="shadowGaussian" operator="atop" in="SourceAlpha" result="shadowComposite" />
      <feColorMatrix type="matrix" values="0 0 0 0 0  0 0 0 0 0  0 0 0 0 0  0 0 0 0.156862745098039 0  " in="shadowComposite" />
    </filter>
    <g id="widget18">
      <path d="M 57 709  A 3 3 0 0 1 60 706 L 287 706  A 3 3 0 0 1 290 709 L 290 865  A 3 3 0 0 1 287 868 L 60 868  A 3 3 0 0 1 57 865 L 57 709  Z " fill-rule="nonzero" fill="#ffffff" stroke="none" />
      <path d="M 56.5 709  A 3.5 3.5 0 0 1 60 705.5 L 287 705.5  A 3.5 3.5 0 0 1 290.5 709 L 290.5 865  A 3.5 3.5 0 0 1 287 868.5 L 60 868.5  A 3.5 3.5 0 0 1 56.5 865 L 56.5 709  Z " stroke-width="1" stroke="#797979" fill="none" stroke-opacity="0.196078431372549" />
    </g>
  </defs>
  <g transform="matrix(1 0 0 1 -56 -705 )">
    <use xlink:href="#widget18" filter="url(#filter17)" />
    <use xlink:href="#widget18" />
  </g>
</svg>