<?xml version="1.0" encoding="utf-8"?>
<svg version="1.1" xmlns:xlink="http://www.w3.org/1999/xlink" width="243px" height="71px" xmlns="http://www.w3.org/2000/svg">
  <defs>
    <filter x="1197px" y="309px" width="243px" height="71px" filterUnits="userSpaceOnUse" id="filter33">
      <feOffset dx="5" dy="5" in="SourceAlpha" result="shadowOffsetInner" />
      <feGaussianBlur stdDeviation="2.5" in="shadowOffsetInner" result="shadowGaussian" />
      <feComposite in2="shadowGaussian" operator="atop" in="SourceAlpha" result="shadowComposite" />
      <feColorMatrix type="matrix" values="0 0 0 0 0  0 0 0 0 0  0 0 0 0 0  0 0 0 0.156862745098039 0  " in="shadowComposite" />
    </filter>
    <g id="widget34">
      <path d="M 1198 313  A 3 3 0 0 1 1201 310 L 1426 310  A 3 3 0 0 1 1429 313 L 1429 366  A 3 3 0 0 1 1426 369 L 1201 369  A 3 3 0 0 1 1198 366 L 1198 313  Z " fill-rule="nonzero" fill="#ffffff" stroke="none" />
      <path d="M 1197.5 313  A 3.5 3.5 0 0 1 1201 309.5 L 1426 309.5  A 3.5 3.5 0 0 1 1429.5 313 L 1429.5 366  A 3.5 3.5 0 0 1 1426 369.5 L 1201 369.5  A 3.5 3.5 0 0 1 1197.5 366 L 1197.5 313  Z " stroke-width="1" stroke="#797979" fill="none" stroke-opacity="0.196078431372549" />
    </g>
  </defs>
  <g transform="matrix(1 0 0 1 -1197 -309 )">
    <use xlink:href="#widget34" filter="url(#filter33)" />
    <use xlink:href="#widget34" />
  </g>
</svg>