<?xml version="1.0" encoding="utf-8"?>
<svg version="1.1" xmlns:xlink="http://www.w3.org/1999/xlink" width="243px" height="120px" xmlns="http://www.w3.org/2000/svg">
  <defs>
    <filter x="1034px" y="427px" width="243px" height="120px" filterUnits="userSpaceOnUse" id="filter27">
      <feOffset dx="5" dy="5" in="SourceAlpha" result="shadowOffsetInner" />
      <feGaussianBlur stdDeviation="2.5" in="shadowOffsetInner" result="shadowGaussian" />
      <feComposite in2="shadowGaussian" operator="atop" in="SourceAlpha" result="shadowComposite" />
      <feColorMatrix type="matrix" values="0 0 0 0 0  0 0 0 0 0  0 0 0 0 0  0 0 0 0.156862745098039 0  " in="shadowComposite" />
    </filter>
    <g id="widget28">
      <path d="M 1035 431  A 3 3 0 0 1 1038 428 L 1263 428  A 3 3 0 0 1 1266 431 L 1266 533  A 3 3 0 0 1 1263 536 L 1038 536  A 3 3 0 0 1 1035 533 L 1035 431  Z " fill-rule="nonzero" fill="#ffffff" stroke="none" />
      <path d="M 1034.5 431  A 3.5 3.5 0 0 1 1038 427.5 L 1263 427.5  A 3.5 3.5 0 0 1 1266.5 431 L 1266.5 533  A 3.5 3.5 0 0 1 1263 536.5 L 1038 536.5  A 3.5 3.5 0 0 1 1034.5 533 L 1034.5 431  Z " stroke-width="1" stroke="#797979" fill="none" stroke-opacity="0.196078431372549" />
    </g>
  </defs>
  <g transform="matrix(1 0 0 1 -1034 -427 )">
    <use xlink:href="#widget28" filter="url(#filter27)" />
    <use xlink:href="#widget28" />
  </g>
</svg>