<?xml version="1.0" encoding="utf-8"?>
<svg version="1.1" xmlns:xlink="http://www.w3.org/1999/xlink" width="136px" height="152px" xmlns="http://www.w3.org/2000/svg">
  <defs>
    <filter x="1212px" y="165px" width="136px" height="152px" filterUnits="userSpaceOnUse" id="filter5">
      <feOffset dx="5" dy="5" in="SourceAlpha" result="shadowOffsetInner" />
      <feGaussianBlur stdDeviation="2.5" in="shadowOffsetInner" result="shadowGaussian" />
      <feComposite in2="shadowGaussian" operator="atop" in="SourceAlpha" result="shadowComposite" />
      <feColorMatrix type="matrix" values="0 0 0 0 0  0 0 0 0 0  0 0 0 0 0  0 0 0 0.156862745098039 0  " in="shadowComposite" />
    </filter>
    <g id="widget6">
      <path d="M 1213 169  A 3 3 0 0 1 1216 166 L 1334 166  A 3 3 0 0 1 1337 169 L 1337 303  A 3 3 0 0 1 1334 306 L 1216 306  A 3 3 0 0 1 1213 303 L 1213 169  Z " fill-rule="nonzero" fill="#ffffff" stroke="none" />
      <path d="M 1212.5 169  A 3.5 3.5 0 0 1 1216 165.5 L 1334 165.5  A 3.5 3.5 0 0 1 1337.5 169 L 1337.5 303  A 3.5 3.5 0 0 1 1334 306.5 L 1216 306.5  A 3.5 3.5 0 0 1 1212.5 303 L 1212.5 169  Z " stroke-width="1" stroke="#797979" fill="none" stroke-opacity="0.196078431372549" />
    </g>
  </defs>
  <g transform="matrix(1 0 0 1 -1212 -165 )">
    <use xlink:href="#widget6" filter="url(#filter5)" />
    <use xlink:href="#widget6" />
  </g>
</svg>