<?xml version="1.0" encoding="utf-8"?>
<svg version="1.1" xmlns:xlink="http://www.w3.org/1999/xlink" width="409px" height="251px" xmlns="http://www.w3.org/2000/svg">
  <defs>
    <filter x="542px" y="269px" width="409px" height="251px" filterUnits="userSpaceOnUse" id="filter7">
      <feOffset dx="5" dy="5" in="SourceAlpha" result="shadowOffsetInner" />
      <feGaussianBlur stdDeviation="2.5" in="shadowOffsetInner" result="shadowGaussian" />
      <feComposite in2="shadowGaussian" operator="atop" in="SourceAlpha" result="shadowComposite" />
      <feColorMatrix type="matrix" values="0 0 0 0 0  0 0 0 0 0  0 0 0 0 0  0 0 0 0.156862745098039 0  " in="shadowComposite" />
    </filter>
    <g id="widget8">
      <path d="M 543 273  A 3 3 0 0 1 546 270 L 937 270  A 3 3 0 0 1 940 273 L 940 506  A 3 3 0 0 1 937 509 L 546 509  A 3 3 0 0 1 543 506 L 543 273  Z " fill-rule="nonzero" fill="#ffffff" stroke="none" />
      <path d="M 542.5 273  A 3.5 3.5 0 0 1 546 269.5 L 937 269.5  A 3.5 3.5 0 0 1 940.5 273 L 940.5 506  A 3.5 3.5 0 0 1 937 509.5 L 546 509.5  A 3.5 3.5 0 0 1 542.5 506 L 542.5 273  Z " stroke-width="1" stroke="#797979" fill="none" stroke-opacity="0.196078431372549" />
    </g>
  </defs>
  <g transform="matrix(1 0 0 1 -542 -269 )">
    <use xlink:href="#widget8" filter="url(#filter7)" />
    <use xlink:href="#widget8" />
  </g>
</svg>