<?xml version="1.0" encoding="utf-8"?>
<svg version="1.1" xmlns:xlink="http://www.w3.org/1999/xlink" width="9px" height="5px" xmlns="http://www.w3.org/2000/svg">
  <g transform="matrix(1 0 0 1 -1606 -18 )">
    <path d="M 4.49908345427611 5  C 4.32590083458958 5  4.15271821490304 4.93624191638583  4.02076970577623 4.80872574915748  C 4.02076970577623 4.80872574915748  0.197923022707124 1.1148556334821  0.197923022707124 1.1148556334821  C -0.0659743409023745 0.859823299025412  -0.0659743409023745 0.447672829948083  0.197923022707124 0.190818835959559  C 0.461820386316621 -0.0637580836141725  0.888821043157922 -0.0637580836141725  1.15271840676742 0.190818835959559  C 1.15271840676742 0.190818835959559  4.49908345427611 3.42289826031515  4.49908345427611 3.42289826031515  C 4.49908345427611 3.42289826031515  7.84544884714068 0.190818835959559  7.84544884714068 0.190818835959559  C 8.1093458653943 -0.061936424082339  8.53634663735422 -0.061936424082339  8.80207726508944 0.190818835959559  C 9.06597428334306 0.447672829948083  9.06597428334306 0.859823299025412  8.80207726508944 1.1148556334821  C 8.80207726508944 1.1148556334821  4.97739766325049 4.80872574915748  4.97739766325049 4.80872574915748  C 4.84544915412368 4.93624191638583  4.67226607396264 5  4.49908345427611 5  Z " fill-rule="nonzero" fill="#4e6ef2" stroke="none" transform="matrix(1 0 0 1 1606 18 )" />
  </g>
</svg>