<?xml version="1.0" encoding="utf-8"?>
<svg version="1.1" xmlns:xlink="http://www.w3.org/1999/xlink" width="14px" height="19px" xmlns="http://www.w3.org/2000/svg">
  <g transform="matrix(1 0 0 1 -1849 -880 )">
    <path d="M 4.45742660797688 11.119928950154  C 4.45742660797688 11.119928950154  0.700776565738063 11.119928950154  0.700776565738063 11.119928950154  C 0.210317989626242 11.119928950154  -0.128030867430733 10.6324086961076  0.046518033654407 10.1775666895723  C 0.046518033654407 10.1775666895723  3.7793625025349 0.447665607081814  3.7793625025349 0.447665607081814  C 3.88273759755869 0.178158639372438  4.14297441703345 4.52294083199893E-05  4.43339330273051 0  C 4.43339330273051 0  10.7324269604191 0  10.7324269604191 0  C 11.2294290327793 0  11.5682181714864 0.500033723681642  11.3806278242821 0.957189968275934  C 11.3806278242821 0.957189968275934  9.2071243210065 6.25497840890877  9.2071243210065 6.25497840890877  C 9.2071243210065 6.25497840890877  13.2988590632411 6.25497840890877  13.2988590632411 6.25497840890877  C 13.900617804079 6.25497840890877  14.2216894019002 6.95937367584956  13.8247982675025 7.40841877988513  C 13.8247982675025 7.40841877988513  3.79288977668183 18.7598167653514  3.79288977668183 18.7598167653514  C 3.3052398938552 19.3117436968455  2.40106838788599 18.8335030097394  2.59031358680974 18.1237782108516  C 2.59031358680974 18.1237782108516  4.45742660797688 11.1199364883887  4.45742660797688 11.1199364883887  Z " fill-rule="nonzero" fill="#444444" stroke="none" transform="matrix(1 0 0 1 1849 880 )" />
  </g>
</svg>